<svg width="19" height="19" viewBox="0 0 19 19" fill="none" xmlns="http://www.w3.org/2000/svg">
<path fill-rule="evenodd" clip-rule="evenodd" d="M14.898 0.474C16.107 0.941 17.062 1.897 17.531 3.106C17.799 3.814 17.939 4.565 17.952 5.323C18.008 6.28 18.008 6.59 18.008 9.033C18.008 11.476 17.995 11.781 17.952 12.743C17.937 13.491 17.796 14.229 17.533 14.929C17.064 16.138 16.109 17.093 14.9 17.562C14.2 17.824 13.461 17.966 12.714 17.981C11.759 18.036 11.446 18.036 9.004 18.036C6.562 18.036 6.257 18.023 5.294 17.981C4.544 17.957 3.805 17.803 3.109 17.531C1.899 17.063 0.944 16.107 0.475 14.899C0.212 14.198 0.071 13.46 0.056 12.712C0 11.755 0 11.444 0 9.002C0 6.559 0.013 6.254 0.056 5.292C0.071 4.544 0.212 3.806 0.475 3.106C0.943 1.897 1.898 0.941 3.108 0.474C3.807 0.21 4.546 0.0689999 5.292 0.0539999C6.247 0 6.56 0 9.002 0C11.444 0 11.749 0.0119999 12.712 0.0539999C13.46 0.0699999 14.199 0.211 14.898 0.474ZM16.002 14.326C16.202 13.785 16.306 13.214 16.313 12.638V12.639H16.324C16.367 11.683 16.367 11.421 16.367 8.985C16.367 6.548 16.356 6.281 16.313 5.33C16.304 4.76 16.198 4.195 16.002 3.661C15.697 2.874 15.076 2.252 14.29 1.949C13.755 1.75 13.191 1.645 12.62 1.638C11.653 1.583 11.403 1.583 8.966 1.583C6.529 1.583 6.262 1.595 5.311 1.638C4.742 1.646 4.176 1.751 3.642 1.949C2.853 2.251 2.228 2.872 1.923 3.661C1.723 4.202 1.619 4.772 1.612 5.348C1.559 6.317 1.559 6.566 1.559 9.003C1.559 11.439 1.569 11.707 1.612 12.657C1.621 13.227 1.727 13.792 1.923 14.326C2.228 15.114 2.853 15.736 3.642 16.037C4.176 16.236 4.742 16.341 5.311 16.348C6.279 16.403 6.528 16.403 8.966 16.403C11.402 16.403 11.67 16.392 12.62 16.348C13.191 16.34 13.755 16.236 14.29 16.037C15.076 15.735 15.697 15.113 16.002 14.326ZM13.8041 5.28002C14.3994 5.28002 14.8821 4.79739 14.8821 4.20202C14.8821 3.60666 14.3994 3.12402 13.8041 3.12402C13.2087 3.12402 12.7261 3.60666 12.7261 4.20202C12.7261 4.79739 13.2087 5.28002 13.8041 5.28002ZM8.99702 4.37231C6.44302 4.37231 4.37402 6.44231 4.37402 8.99531C4.37402 11.5493 6.44302 13.6193 8.99702 13.6193C11.549 13.6193 13.62 11.5493 13.62 8.99531C13.62 6.44231 11.549 4.37231 8.99702 4.37231ZM8.99702 11.9993C7.33802 11.9993 5.99302 10.6543 5.99302 8.99632C5.99302 7.33732 7.33802 5.99331 8.99702 5.99331C10.656 5.99331 11.999 7.33732 11.999 8.99632C11.999 10.6543 10.656 11.9993 8.99702 11.9993Z" fill="#B8B8B8"/>
</svg>
