<svg width="21" height="12" viewBox="0 0 21 12" fill="none" xmlns="http://www.w3.org/2000/svg">
<path d="M19.579 0.806C19.719 0.341 19.579 0 18.917 0H16.724C16.166 0 15.911 0.295 15.771 0.619C15.771 0.619 14.656 3.338 13.076 5.101C12.566 5.614 12.333 5.776 12.055 5.776C11.916 5.776 11.714 5.614 11.714 5.149V0.806C11.714 0.248 11.553 0 11.088 0H7.642C7.294 0 7.084 0.258 7.084 0.504C7.084 1.032 7.874 1.154 7.955 2.642V5.87C7.955 6.577 7.828 6.706 7.548 6.706C6.805 6.706 4.997 3.977 3.924 0.853C3.715 0.246 3.504 0.0010004 2.944 0.0010004H0.752C0.125 0.0010004 0 0.296 0 0.62C0 1.202 0.743 4.082 3.461 7.891C5.273 10.492 7.824 11.902 10.148 11.902C11.541 11.902 11.713 11.589 11.713 11.049V9.083C11.713 8.457 11.846 8.331 12.287 8.331C12.611 8.331 13.169 8.495 14.47 9.748C15.956 11.234 16.202 11.901 17.037 11.901H19.229C19.855 11.901 20.168 11.588 19.988 10.97C19.791 10.355 19.081 9.46 18.139 8.401C17.627 7.797 16.862 7.147 16.629 6.822C16.304 6.403 16.398 6.218 16.629 5.846C16.63 5.847 19.301 2.085 19.579 0.806Z" fill="#B8B8B8"/>
</svg>
