<svg width="135" height="47" viewBox="0 0 135 47" fill="none" xmlns="http://www.w3.org/2000/svg">
<path d="M130 1H5C2.79086 1 1 2.79086 1 5V42C1 44.2091 2.79086 46 5 46H130C132.209 46 134 44.2091 134 42V5C134 2.79086 132.209 1 130 1Z" stroke="white" stroke-opacity="0.6"/>
<path fill-rule="evenodd" clip-rule="evenodd" d="M29.4728 23.806C29.5048 27.588 32.7808 28.838 32.8208 28.851C32.8008 28.939 32.3088 30.656 31.0808 32.398C30.0528 33.933 28.9778 35.433 27.2708 35.461C25.6118 35.498 25.0548 34.483 23.1508 34.483C21.2308 34.483 20.6368 35.433 19.0468 35.498C17.4198 35.559 16.1768 33.86 15.1138 32.339C12.9898 29.236 11.3348 23.591 13.5538 19.751C14.6278 17.867 16.5898 16.654 18.6838 16.621C20.3118 16.587 21.8218 17.721 22.8228 17.721C23.8038 17.721 25.6718 16.365 27.5978 16.568C28.4028 16.591 30.6968 16.885 32.1768 19.042C32.0568 19.114 29.4438 20.65 29.4728 23.806ZM26.3358 14.504C25.4428 15.557 24.0138 16.364 22.6228 16.259C22.4408 14.839 23.1458 13.326 23.9348 12.404C24.8268 11.357 26.3748 10.555 27.6148 10.5C27.7758 11.979 27.1908 13.434 26.3348 14.504H26.3358Z" fill="white" fill-opacity="0.6"/>
<path d="M49.2773 16.8945H48.5312V15.5H44.4492V16.8984H43.6992L43.6953 14.8867H44.1602C44.4049 14.6107 44.599 14.2409 44.7422 13.7773C44.888 13.3112 44.9792 12.8008 45.0156 12.2461L45.1406 9.8125H48.543V14.8867H49.2852L49.2773 16.8945ZM45.0156 14.8867H47.7891V10.4297H45.8633L45.7812 12.1016C45.7474 12.7552 45.6602 13.3125 45.5195 13.7734C45.3815 14.2344 45.2135 14.6055 45.0156 14.8867ZM49.8711 13.3477C49.8711 12.9336 49.9518 12.5612 50.1133 12.2305C50.2773 11.8997 50.5039 11.6445 50.793 11.4648C51.0846 11.2852 51.4167 11.1953 51.7891 11.1953C52.3646 11.1953 52.8294 11.3945 53.1836 11.793C53.5404 12.1914 53.7188 12.7214 53.7188 13.3828V13.4336C53.7188 13.8451 53.6393 14.2148 53.4805 14.543C53.3242 14.8685 53.099 15.1224 52.8047 15.3047C52.513 15.487 52.1771 15.5781 51.7969 15.5781C51.224 15.5781 50.7591 15.3789 50.4023 14.9805C50.0482 14.582 49.8711 14.0547 49.8711 13.3984V13.3477ZM50.5977 13.4336C50.5977 13.9023 50.7057 14.2786 50.9219 14.5625C51.1406 14.8464 51.4323 14.9883 51.7969 14.9883C52.1641 14.9883 52.4557 14.8451 52.6719 14.5586C52.888 14.2695 52.9961 13.8659 52.9961 13.3477C52.9961 12.8841 52.8854 12.5091 52.6641 12.2227C52.4453 11.9336 52.1536 11.7891 51.7891 11.7891C51.4323 11.7891 51.1445 11.931 50.9258 12.2148C50.707 12.4987 50.5977 12.9049 50.5977 13.4336ZM56.3203 14.9883C56.5781 14.9883 56.8034 14.9102 56.9961 14.7539C57.1888 14.5977 57.2956 14.4023 57.3164 14.168H58C57.987 14.4102 57.9036 14.6406 57.75 14.8594C57.5964 15.0781 57.3906 15.2526 57.1328 15.3828C56.8776 15.513 56.6068 15.5781 56.3203 15.5781C55.7448 15.5781 55.2865 15.3867 54.9453 15.0039C54.6068 14.6185 54.4375 14.0924 54.4375 13.4258V13.3047C54.4375 12.8932 54.513 12.5273 54.6641 12.207C54.8151 11.8867 55.0312 11.638 55.3125 11.4609C55.5964 11.2839 55.931 11.1953 56.3164 11.1953C56.7904 11.1953 57.1836 11.3372 57.4961 11.6211C57.8112 11.9049 57.9792 12.2734 58 12.7266H57.3164C57.2956 12.4531 57.1914 12.2292 57.0039 12.0547C56.819 11.8776 56.5898 11.7891 56.3164 11.7891C55.9492 11.7891 55.6641 11.9219 55.4609 12.1875C55.2604 12.4505 55.1602 12.832 55.1602 13.332V13.4688C55.1602 13.9557 55.2604 14.3307 55.4609 14.5938C55.6615 14.8568 55.9479 14.9883 56.3203 14.9883ZM61.9531 11.8594H60.5352V15.5H59.8125V11.8594H58.4219V11.2734H61.9531V11.8594ZM64.0859 14.4414L65.0703 11.2734H65.8438L64.1445 16.1523C63.8815 16.8555 63.4635 17.207 62.8906 17.207L62.7539 17.1953L62.4844 17.1445V16.5586L62.6797 16.5742C62.9245 16.5742 63.1146 16.5247 63.25 16.4258C63.388 16.3268 63.5013 16.1458 63.5898 15.8828L63.75 15.4531L62.2422 11.2734H63.0312L64.0859 14.4414ZM69.9492 15.5H69.2266V11.8711H67.2812V15.5H66.5547V11.2734H69.9492V15.5ZM74.5625 15.5H73.8398V13.6953H71.8984V15.5H71.1719V11.2734H71.8984V13.1055H73.8398V11.2734H74.5625V15.5ZM75.5352 13.3477C75.5352 12.9336 75.6159 12.5612 75.7773 12.2305C75.9414 11.8997 76.168 11.6445 76.457 11.4648C76.7487 11.2852 77.0807 11.1953 77.4531 11.1953C78.0286 11.1953 78.4935 11.3945 78.8477 11.793C79.2044 12.1914 79.3828 12.7214 79.3828 13.3828V13.4336C79.3828 13.8451 79.3034 14.2148 79.1445 14.543C78.9883 14.8685 78.763 15.1224 78.4688 15.3047C78.1771 15.487 77.8411 15.5781 77.4609 15.5781C76.888 15.5781 76.4232 15.3789 76.0664 14.9805C75.7122 14.582 75.5352 14.0547 75.5352 13.3984V13.3477ZM76.2617 13.4336C76.2617 13.9023 76.3698 14.2786 76.5859 14.5625C76.8047 14.8464 77.0964 14.9883 77.4609 14.9883C77.8281 14.9883 78.1198 14.8451 78.3359 14.5586C78.5521 14.2695 78.6602 13.8659 78.6602 13.3477C78.6602 12.8841 78.5495 12.5091 78.3281 12.2227C78.1094 11.9336 77.8177 11.7891 77.4531 11.7891C77.0964 11.7891 76.8086 11.931 76.5898 12.2148C76.3711 12.4987 76.2617 12.9049 76.2617 13.4336ZM82.3398 15.5V11.2734H83.9883C84.5508 11.2734 84.9818 11.3724 85.2812 11.5703C85.5833 11.7656 85.7344 12.0534 85.7344 12.4336C85.7344 12.6289 85.6758 12.806 85.5586 12.9648C85.4414 13.1211 85.2682 13.2409 85.0391 13.3242C85.2943 13.3841 85.4987 13.5013 85.6523 13.6758C85.8086 13.8503 85.8867 14.0586 85.8867 14.3008C85.8867 14.6888 85.7435 14.9857 85.457 15.1914C85.1732 15.3971 84.7708 15.5 84.25 15.5H82.3398ZM83.0625 13.6445V14.918H84.2578C84.5599 14.918 84.7852 14.862 84.9336 14.75C85.0846 14.638 85.1602 14.4805 85.1602 14.2773C85.1602 13.8555 84.8503 13.6445 84.2305 13.6445H83.0625ZM83.0625 13.0664H83.9961C84.6732 13.0664 85.0117 12.8685 85.0117 12.4727C85.0117 12.0768 84.6914 11.8724 84.0508 11.8594H83.0625V13.0664Z" fill="white" fill-opacity="0.6"/>
<path d="M53.1452 36.004H50.8742L49.6302 32.095H45.3062L44.1212 36.004H41.9102L46.1942 22.696H48.8402L53.1452 36.004ZM49.2552 30.455L48.1302 26.98C48.0112 26.625 47.7882 25.789 47.4592 24.473H47.4192C47.2197 25.3114 47.009 26.1472 46.7872 26.98L45.6822 30.455H49.2552ZM64.1622 31.088C64.1622 32.72 63.7212 34.01 62.8392 34.957C62.0492 35.8 61.0682 36.221 59.8972 36.221C58.6332 36.221 57.7252 35.767 57.1722 34.859H57.1322V39.914H55.0002V29.567C55.0002 28.541 54.9732 27.488 54.9212 26.408H56.7962L56.9152 27.929H56.9552C57.6662 26.783 58.7452 26.211 60.1932 26.211C61.3252 26.211 62.2702 26.658 63.0262 27.553C63.7842 28.449 64.1622 29.627 64.1622 31.088ZM61.9902 31.166C61.9902 30.232 61.7802 29.462 61.3582 28.856C60.8972 28.224 60.2782 27.908 59.5022 27.908C58.9762 27.908 58.4982 28.084 58.0712 28.431C57.6432 28.781 57.3632 29.238 57.2322 29.804C57.1662 30.068 57.1332 30.284 57.1332 30.454V32.054C57.1332 32.752 57.3472 33.341 57.7752 33.822C58.2032 34.303 58.7592 34.543 59.4432 34.543C60.2462 34.543 60.8712 34.233 61.3182 33.615C61.7662 32.996 61.9902 32.18 61.9902 31.166ZM75.1992 31.088C75.1992 32.72 74.7582 34.01 73.8752 34.957C73.0862 35.8 72.1052 36.221 70.9342 36.221C69.6702 36.221 68.7622 35.767 68.2102 34.859H68.1702V39.914H66.0382V29.567C66.0382 28.541 66.0112 27.488 65.9592 26.408H67.8342L67.9532 27.929H67.9932C68.7032 26.783 69.7822 26.211 71.2312 26.211C72.3622 26.211 73.3072 26.658 74.0652 27.553C74.8202 28.449 75.1992 29.627 75.1992 31.088ZM73.0272 31.166C73.0272 30.232 72.8162 29.462 72.3942 28.856C71.9332 28.224 71.3162 27.908 70.5392 27.908C70.0151 27.9078 69.5078 28.0931 69.1072 28.431C68.6792 28.781 68.4002 29.238 68.2692 29.804C68.2042 30.068 68.1702 30.284 68.1702 30.454V32.054C68.1702 32.752 68.3842 33.341 68.8102 33.822C69.2382 34.302 69.7942 34.543 70.4802 34.543C71.2832 34.543 71.9082 34.233 72.3552 33.615C72.8032 32.996 73.0272 32.18 73.0272 31.166ZM87.5392 32.272C87.5392 33.404 87.1462 34.325 86.3572 35.036C85.4902 35.813 84.2832 36.201 82.7322 36.201C81.3002 36.201 80.1522 35.925 79.2832 35.372L79.7772 33.595C80.7132 34.161 81.7402 34.445 82.8592 34.445C83.6622 34.445 84.2872 34.263 84.7362 33.901C85.1832 33.539 85.4062 33.053 85.4062 32.447C85.4062 31.907 85.2222 31.452 84.8532 31.083C84.4862 30.714 83.8732 30.371 83.0172 30.054C80.6872 29.185 79.5232 27.912 79.5232 26.238C79.5232 25.144 79.9312 24.247 80.7482 23.549C81.5622 22.85 82.6482 22.501 84.0062 22.501C85.2172 22.501 86.2232 22.712 87.0262 23.133L86.4932 24.871C85.7432 24.463 84.8952 24.259 83.9462 24.259C83.1962 24.259 82.6102 24.444 82.1902 24.812C82.0198 24.9626 81.884 25.1483 81.792 25.3563C81.7001 25.5642 81.654 25.7896 81.6572 26.017C81.6572 26.543 81.8602 26.978 82.2682 27.32C82.6232 27.636 83.2682 27.978 84.2042 28.347C85.3492 28.808 86.1902 29.347 86.7312 29.965C87.2702 30.581 87.5392 31.352 87.5392 32.272ZM94.5882 28.008H92.2382V32.667C92.2382 33.852 92.6522 34.444 93.4822 34.444C93.8632 34.444 94.1792 34.411 94.4292 34.345L94.4882 35.964C94.0682 36.121 93.5152 36.2 92.8302 36.2C91.9882 36.2 91.3302 35.943 90.8552 35.43C90.3822 34.916 90.1442 34.054 90.1442 32.843V28.006H88.7442V26.406H90.1442V24.649L92.2382 24.017V26.406H94.5882V28.008ZM105.191 31.127C105.191 32.602 104.769 33.813 103.927 34.76C103.044 35.735 101.872 36.221 100.411 36.221C99.0032 36.221 97.8822 35.754 97.0462 34.82C96.2102 33.886 95.7922 32.707 95.7922 31.286C95.7922 29.799 96.2222 28.581 97.0852 27.634C97.9462 26.686 99.1082 26.212 100.569 26.212C101.977 26.212 103.11 26.679 103.965 27.614C104.783 28.521 105.191 29.692 105.191 31.127ZM102.979 31.196C102.979 30.311 102.79 29.552 102.407 28.919C101.96 28.153 101.321 27.771 100.493 27.771C99.6362 27.771 98.9852 28.154 98.5382 28.919C98.1552 29.553 97.9662 30.324 97.9662 31.236C97.9662 32.121 98.1552 32.88 98.5382 33.512C98.9992 34.278 99.6432 34.66 100.474 34.66C101.288 34.66 101.927 34.27 102.388 33.492C102.781 32.847 102.979 32.08 102.979 31.196ZM112.121 28.283C111.899 28.2429 111.674 28.2232 111.449 28.224C110.699 28.224 110.119 28.507 109.711 29.074C109.356 29.574 109.178 30.206 109.178 30.969V36.004H107.047L107.067 29.43C107.067 28.324 107.04 27.317 106.987 26.409H108.844L108.922 28.245H108.981C109.206 27.614 109.561 27.106 110.047 26.725C110.492 26.3921 111.033 26.2118 111.588 26.211C111.785 26.211 111.963 26.225 112.121 26.25V28.283ZM121.656 30.752C121.662 31.0761 121.635 31.3999 121.578 31.719H115.182C115.207 32.667 115.516 33.392 116.11 33.892C116.649 34.339 117.346 34.563 118.202 34.563C119.149 34.563 120.013 34.412 120.79 34.109L121.124 35.589C120.216 35.985 119.144 36.182 117.907 36.182C116.419 36.182 115.251 35.744 114.401 34.869C113.553 33.994 113.128 32.819 113.128 31.345C113.128 29.898 113.523 28.693 114.314 27.732C115.142 26.706 116.261 26.193 117.669 26.193C119.052 26.193 120.099 26.706 120.81 27.732C121.373 28.547 121.656 29.555 121.656 30.752ZM119.623 30.199C119.637 29.567 119.498 29.021 119.209 28.56C118.84 27.967 118.273 27.671 117.51 27.671C116.813 27.671 116.246 27.96 115.813 28.54C115.458 29.001 115.247 29.554 115.182 30.198H119.623V30.199Z" fill="white" fill-opacity="0.6"/>
</svg>
