<svg width="158" height="47" viewBox="0 0 158 47" fill="none" xmlns="http://www.w3.org/2000/svg">
<path d="M61.0008 30.6963H55.1017L53.777 34.384H51.8623L57.2391 20.2544H58.8638L64.2501 34.384H62.345L61.0008 30.6963ZM55.6627 29.163H60.4498L58.0514 22.5543L55.6627 29.163ZM74.7041 29.2503C74.7041 30.8483 74.3396 32.1359 73.6113 33.1126C72.8826 34.0897 71.8962 34.5779 70.652 34.5779C69.3819 34.5779 68.3827 34.1737 67.6541 33.3649V38.4211H65.8652V23.8838H67.4995L67.5864 25.0483C68.315 24.1426 69.3273 23.6897 70.6229 23.6897C71.8803 23.6897 72.8731 24.1652 73.6014 25.1162C74.3364 26.0673 74.7041 27.3903 74.7041 29.0853V29.2503ZM72.9149 29.0465C72.9149 27.8626 72.6635 26.9277 72.1607 26.242C71.6579 25.5562 70.9679 25.2133 70.0911 25.2133C69.0082 25.2133 68.1958 25.6953 67.6541 26.6592V31.6765C68.1891 32.634 69.0082 33.1126 70.1106 33.1126C70.9679 33.1126 71.648 32.7731 72.1508 32.0936C72.6603 31.4079 72.9149 30.3922 72.9149 29.0465ZM85.825 29.2503C85.825 30.8483 85.4609 32.1359 84.7322 33.1126C84.0039 34.0897 83.0175 34.5779 81.7733 34.5779C80.5032 34.5779 79.5036 34.1737 78.7753 33.3649V38.4211H76.9862V23.8838H78.6204L78.7076 25.0483C79.4359 24.1426 80.4482 23.6897 81.7442 23.6897C83.0012 23.6897 83.994 24.1652 84.7226 25.1162C85.4577 26.0673 85.825 27.3903 85.825 29.0853V29.2503ZM84.0362 29.0465C84.0362 27.8626 83.7844 26.9277 83.2816 26.242C82.7788 25.5562 82.0889 25.2133 81.2123 25.2133C80.1291 25.2133 79.3168 25.6953 78.7753 26.6592V31.6765C79.3104 32.634 80.1291 33.1126 81.2315 33.1126C82.0889 33.1126 82.7693 32.7731 83.2721 32.0936C83.7812 31.4079 84.0362 30.3922 84.0362 29.0465ZM98.7837 32.5305C98.3064 33.2162 97.6391 33.7303 96.7817 34.0733C95.9308 34.4099 94.938 34.5779 93.8033 34.5779C92.6556 34.5779 91.6369 34.3096 90.7472 33.7726C89.8576 33.229 89.1679 32.4593 88.6779 31.4629C88.1943 30.4666 87.9461 29.3118 87.9333 27.9984V26.766C87.9333 24.6375 88.4265 22.9877 89.4129 21.8168C90.4058 20.6458 91.7982 20.0603 93.5906 20.0603C95.0603 20.0603 96.2435 20.4387 97.1395 21.1957C98.0356 21.9462 98.5837 23.0136 98.7837 24.3981H96.9268C96.5786 22.5284 95.4698 21.5935 93.6001 21.5935C92.3559 21.5935 91.4114 22.0335 90.7667 22.9133C90.1285 23.7867 89.8062 25.0548 89.7998 26.7175V27.8723C89.7998 29.4573 90.1608 30.7189 90.8827 31.657C91.6049 32.5885 92.5815 33.0543 93.8129 33.0543C94.5093 33.0543 95.1184 32.9767 95.6407 32.8216C96.1627 32.6664 96.5949 32.4042 96.9364 32.0355V28.8621H93.6775V27.3483H98.7837V32.5305ZM108.067 34.384C107.964 34.1769 107.88 33.8082 107.816 33.2777C106.984 34.1445 105.991 34.5779 104.837 34.5779C103.806 34.5779 102.958 34.2868 102.294 33.7047C101.636 33.1158 101.308 32.3718 101.308 31.4726C101.308 30.3793 101.72 29.5317 102.545 28.93C103.377 28.3219 104.544 28.0178 106.046 28.0178H107.787V27.193C107.787 26.5654 107.6 26.0673 107.226 25.6985C106.852 25.3233 106.301 25.1356 105.572 25.1356C104.934 25.1356 104.399 25.2974 103.967 25.6209C103.535 25.9443 103.319 26.3357 103.319 26.7951H101.52C101.52 26.2711 101.704 25.7664 102.071 25.2812C102.445 24.7895 102.948 24.4013 103.58 24.1167C104.218 23.832 104.918 23.6897 105.679 23.6897C106.884 23.6897 107.829 23.9938 108.512 24.6019C109.196 25.2036 109.55 26.0349 109.576 27.0959V31.9288C109.576 32.8927 109.698 33.6592 109.943 34.2288V34.384H108.067ZM105.098 33.0155C105.659 33.0155 106.191 32.87 106.694 32.5789C107.197 32.2878 107.561 31.9092 107.787 31.4435V29.2891H106.384C104.193 29.2891 103.097 29.9329 103.097 31.2203C103.097 31.7833 103.284 32.2231 103.657 32.5401C104.032 32.8571 104.512 33.0155 105.098 33.0155ZM114.324 34.384H112.535V19.478H114.324V34.384ZM119.14 34.384H117.351V19.478H119.14V34.384ZM126.354 34.5779C124.936 34.5779 123.782 34.1121 122.892 33.1806C122.002 32.2426 121.558 30.9906 121.558 29.425V29.095C121.558 28.0534 121.754 27.1251 122.147 26.3099C122.547 25.4883 123.102 24.8478 123.811 24.3884C124.526 23.9226 125.3 23.6897 126.132 23.6897C127.492 23.6897 128.549 24.1393 129.304 25.0386C130.058 25.9379 130.435 27.2253 130.435 28.9009V29.6482H123.347C123.373 30.6833 123.672 31.5211 124.246 32.1615C124.826 32.7956 125.561 33.1126 126.451 33.1126C127.083 33.1126 127.618 32.9831 128.056 32.7244C128.495 32.4657 128.878 32.1227 129.207 31.6958L130.3 32.5497C129.423 33.9018 128.108 34.5779 126.354 34.5779ZM126.132 25.1648C125.41 25.1648 124.804 25.43 124.314 25.9605C123.824 26.4845 123.521 27.2221 123.405 28.1731H128.646V28.0373C128.594 27.1251 128.35 26.4199 127.911 25.9217C127.473 25.4171 126.88 25.1648 126.132 25.1648ZM137.572 25.4947C137.301 25.4494 137.008 25.4268 136.692 25.4268C135.519 25.4268 134.723 25.9282 134.303 26.931V34.384H132.514V23.8838H134.255L134.284 25.0968C134.871 24.1587 135.702 23.6897 136.779 23.6897C137.127 23.6897 137.391 23.735 137.572 23.8256V25.4947ZM142.823 31.7541L145.26 23.8838H147.175L142.968 36.0047C142.317 37.7514 141.282 38.6246 139.864 38.6246L139.526 38.5958L138.858 38.4695V37.0138L139.342 37.0526C139.948 37.0526 140.418 36.9298 140.754 36.684C141.095 36.4381 141.376 35.9883 141.595 35.335L141.991 34.2676L138.259 23.8838H140.212L142.823 31.7541Z" fill="white" fill-opacity="0.6"/>
<path d="M57.0675 11.419C57.0675 12.1335 56.9477 12.758 56.7081 13.2922C56.4685 13.8232 56.1289 14.2289 55.6897 14.5094C55.2505 14.7898 54.7381 14.9301 54.1526 14.9301C53.5801 14.9301 53.0729 14.7898 52.6301 14.5094C52.1877 14.2255 51.8434 13.8232 51.5971 13.3023C51.354 12.778 51.2294 12.1719 51.2227 11.4841V10.9582C51.2227 10.2569 51.3441 9.63751 51.5872 9.0999C51.8299 8.56229 52.1727 8.15159 52.6151 7.86777C53.0611 7.58059 53.5702 7.43701 54.1427 7.43701C54.7247 7.43701 55.2374 7.57892 55.6798 7.86274C56.1258 8.14323 56.4685 8.55229 56.7081 9.0899C56.9477 9.62414 57.0675 10.2469 57.0675 10.9582V11.419ZM56.1139 10.9482C56.1139 10.0833 55.9411 9.42046 55.5948 8.95966C55.2489 8.49552 54.7646 8.26344 54.1427 8.26344C53.537 8.26344 53.0595 8.49552 52.71 8.95966C52.364 9.42046 52.1861 10.0616 52.1759 10.883V11.419C52.1759 12.2571 52.3506 12.9166 52.7001 13.3974C53.0528 13.8749 53.537 14.1137 54.1526 14.1137C54.7713 14.1137 55.2505 13.8883 55.5901 13.4375C55.9293 12.9834 56.104 12.3339 56.1139 11.4891V10.9482ZM62.373 10.1618H60.5612V14.8299H59.638V10.1618H57.8609V9.41046H62.373V10.1618ZM64.9534 12.5209H64.2797V14.8299H63.3514V9.41046H64.2797V11.7045H64.8838L66.7004 9.41046H67.8185L65.6824 12.015L67.9983 14.8299H66.8253L64.9534 12.5209ZM73.3537 12.1803C73.3537 13.0051 73.1659 13.6696 72.7899 14.1738C72.4136 14.678 71.9047 14.9301 71.2623 14.9301C70.6069 14.9301 70.0913 14.7214 69.7153 14.304V16.9135H68.7918V9.41046H69.6354L69.6802 10.0115C70.0561 9.544 70.5787 9.31028 71.2473 9.31028C71.8964 9.31028 72.4088 9.5557 72.7848 10.0465C73.164 10.5375 73.3537 11.2203 73.3537 12.0952V12.1803ZM72.4305 12.0751C72.4305 11.4641 72.3005 10.9816 72.0411 10.6276C71.7814 10.2736 71.4256 10.0966 70.9729 10.0966C70.4139 10.0966 69.9948 10.3454 69.7153 10.843V13.4325C69.9913 13.9267 70.4139 14.1738 70.9828 14.1738C71.4256 14.1738 71.7766 13.9985 72.036 13.6479C72.2989 13.2939 72.4305 12.7697 72.4305 12.0751ZM74.2871 12.0701C74.2871 11.5392 74.3903 11.0617 74.5966 10.6376C74.8062 10.2135 75.0956 9.88626 75.4652 9.65587C75.8377 9.42546 76.2619 9.31028 76.7378 9.31028C77.4732 9.31028 78.067 9.5657 78.5197 10.0766C78.9755 10.5875 79.2036 11.267 79.2036 12.1152V12.1803C79.2036 12.7079 79.102 13.1821 78.8992 13.6028C78.6995 14.0202 78.4114 14.3457 78.0354 14.5795C77.6629 14.8132 77.2336 14.9301 76.7477 14.9301C76.0156 14.9301 75.4217 14.6746 74.9659 14.1638C74.5133 13.6529 74.2871 12.9767 74.2871 12.1352V12.0701ZM75.2154 12.1803C75.2154 12.7814 75.3537 13.2639 75.6297 13.6278C75.9092 13.9918 76.282 14.1738 76.7477 14.1738C77.217 14.1738 77.5898 13.9901 77.8658 13.6228C78.1421 13.2522 78.2801 12.7346 78.2801 12.0701C78.2801 11.4758 78.1386 10.9949 77.8559 10.6276C77.5764 10.2569 77.2036 10.0716 76.7378 10.0716C76.282 10.0716 75.9143 10.2536 75.6348 10.6176C75.3553 10.9816 75.2154 11.5025 75.2154 12.1803ZM83.8552 9.41046H84.7787V14.8299H83.8552V10.878L81.3646 14.8299H80.4414V9.41046H81.3646V13.3674L83.8552 9.41046ZM84.1047 7.43701C84.1047 7.84104 83.9667 8.1666 83.6907 8.41371C83.4176 8.65747 83.0582 8.77934 82.6126 8.77934C82.1667 8.77934 81.8054 8.6558 81.5294 8.40871C81.2531 8.1616 81.1151 7.8377 81.1151 7.43701H81.8687C81.8687 7.67076 81.9319 7.85441 82.0584 7.98798C82.1849 8.11819 82.3695 8.1833 82.6126 8.1833C82.8455 8.1833 83.0266 8.11819 83.1566 7.98798C83.2895 7.85774 83.3563 7.67409 83.3563 7.43701H84.1047ZM90.274 10.1618H88.4622V14.8299H87.5387V10.1618H85.762V9.41046H90.274V10.1618ZM93.0142 14.9301C92.282 14.9301 91.6866 14.6897 91.2272 14.2088C90.7682 13.7247 90.5385 13.0785 90.5385 12.2705V12.1002C90.5385 11.5626 90.6401 11.0834 90.843 10.6627C91.0493 10.2386 91.3355 9.90796 91.7016 9.67091C92.0709 9.43049 92.4702 9.31028 92.8995 9.31028C93.6016 9.31028 94.1472 9.54233 94.5366 10.0065C94.9257 10.4706 95.1206 11.1352 95.1206 12V12.3857H91.462C91.4751 12.9199 91.6301 13.3523 91.9262 13.6829C92.2255 14.0102 92.605 14.1738 93.064 14.1738C93.3902 14.1738 93.6665 14.107 93.8926 13.9734C94.1188 13.8399 94.3169 13.6629 94.4865 13.4425L95.0506 13.8833C94.598 14.5812 93.9191 14.9301 93.0142 14.9301ZM92.8995 10.0716C92.5267 10.0716 92.214 10.2085 91.961 10.4823C91.708 10.7528 91.5518 11.1335 91.4917 11.6243H94.1971V11.5542C94.1705 11.0834 94.044 10.7194 93.8179 10.4623C93.5914 10.2018 93.2854 10.0716 92.8995 10.0716ZM98.8139 14.8299V9.41046H100.92C101.639 9.41046 102.189 9.53733 102.572 9.79112C102.958 10.0415 103.151 10.4105 103.151 10.8981C103.151 11.1485 103.076 11.3756 102.926 11.5793C102.777 11.7796 102.555 11.9332 102.262 12.0401C102.589 12.1169 102.85 12.2671 103.046 12.4908C103.246 12.7146 103.346 12.9817 103.346 13.2922C103.346 13.7898 103.163 14.1704 102.797 14.4342C102.434 14.698 101.92 14.8299 101.254 14.8299H98.8139ZM99.7374 12.4508V14.0836H101.264C101.65 14.0836 101.938 14.0118 102.128 13.8682C102.321 13.7247 102.417 13.5226 102.417 13.2622C102.417 12.7213 102.021 12.4508 101.229 12.4508H99.7374ZM99.7374 11.7095H100.93C101.795 11.7095 102.228 11.4557 102.228 10.9482C102.228 10.4406 101.818 10.1785 101 10.1618H99.7374V11.7095Z" fill="white" fill-opacity="0.6"/>
<path fill-rule="evenodd" clip-rule="evenodd" d="M34.0005 8.25732H20.7438C14.4828 8.25732 12.2148 10.5653 12.2148 16.8162V30.1193C12.2148 36.4023 14.5148 38.6782 20.7438 38.6782H34.0005C40.2615 38.6782 42.5295 36.3702 42.5295 30.1193V16.8162C42.5614 10.5653 40.2615 8.25732 34.0005 8.25732Z" fill="white" fill-opacity="0.6"/>
<path d="M18.221 23.4834H19.0196V27.4583H18.221V25.8555H16.4002V27.4583H15.6016V23.4834H16.4002V25.0862H18.221V23.4834ZM22.757 25.7594C22.757 26.4005 22.4376 26.7531 21.8626 26.7531C21.2876 26.7531 20.9681 26.4005 20.9681 25.7273V23.4834H20.1695V25.7594C20.1695 26.8813 20.7765 27.5224 21.8626 27.5224C22.9487 27.5224 23.5875 26.8813 23.5875 25.7273V23.4834H22.7889V25.7594H22.757ZM32.0527 26.2082L31.1582 23.4834H30.4874L29.593 26.2082L28.7305 23.4834H27.868L29.2416 27.4583H29.9124L30.8068 24.8298L31.7013 27.4583H32.3721L33.7457 23.4834H32.9151L32.0527 26.2082ZM35.2151 25.7594H36.6845V25.0221H35.2151V24.2207H37.3553V23.4834H34.4484V27.4583H37.4512V26.721H35.247V25.7594H35.2151ZM38.3775 27.4583H39.1761V23.4834H38.3775V27.4583ZM25.1528 26.6249L24.8014 27.4583H23.9709L25.6958 23.4834H26.3986L28.1236 27.4583H27.293L26.9416 26.6249H25.1528ZM25.4403 25.9197H26.6541L26.0472 24.5092L25.4403 25.9197Z" fill="white"/>
<path d="M27.3879 18.4188C24.6088 18.4188 22.3408 16.1429 22.3408 13.354H23.0436C23.0436 15.7582 24.9921 17.7136 27.3879 17.7136C29.7837 17.7136 31.7323 15.7582 31.7323 13.354H32.435C32.435 16.1429 30.167 18.4188 27.3879 18.4188Z" fill="white"/>
<path d="M153.5 1H4.5C2.567 1 1 2.567 1 4.5V42.5C1 44.433 2.567 46 4.5 46H153.5C155.433 46 157 44.433 157 42.5V4.5C157 2.567 155.433 1 153.5 1Z" stroke="white" stroke-opacity="0.6"/>
</svg>
