<svg width="12" height="7" viewBox="0 0 12 7" fill="none" xmlns="http://www.w3.org/2000/svg">
<path d="M6 4.7968L10.4532 0.278655C10.5362 0.191477 10.6355 0.121941 10.7453 0.0741039C10.855 0.0262672 10.9731 0.00108762 11.0925 3.44618e-05C11.212 -0.00101869 11.3305 0.0220763 11.441 0.0679705C11.5516 0.113865 11.652 0.18164 11.7365 0.267341C11.821 0.353042 11.8878 0.454953 11.933 0.567127C11.9782 0.679302 12.001 0.799493 12 0.920688C11.9989 1.04188 11.9741 1.16166 11.927 1.27302C11.8798 1.38438 11.8113 1.48509 11.7253 1.56929L6.63605 6.73276C6.46734 6.90387 6.23855 7 6 7C5.76145 7 5.53266 6.90387 5.36395 6.73276L0.274651 1.56929C0.188726 1.48509 0.120189 1.38438 0.0730395 1.27302C0.0258899 1.16166 0.00107199 1.04188 3.3968e-05 0.920688C-0.00100406 0.799493 0.0217583 0.679302 0.0669933 0.567127C0.112228 0.454953 0.17903 0.353042 0.2635 0.267341C0.34797 0.18164 0.448418 0.113865 0.558981 0.0679705C0.669544 0.0220763 0.788009 -0.00101869 0.907464 3.44618e-05C1.02692 0.00108762 1.14497 0.0262672 1.25473 0.0741039C1.36449 0.121941 1.46376 0.191477 1.54675 0.278655L6 4.7968Z" fill="#999999"/>
</svg>
