<svg width="30" height="30" viewBox="0 0 30 30" fill="none" xmlns="http://www.w3.org/2000/svg">
<g clip-path="url(#clip0_1_11008)">
<path d="M15 0C6.72914 0 0 6.72914 0 15C0 23.2709 6.72914 30 15 30C23.2709 30 30 23.2709 30 15C30 6.72914 23.2709 0 15 0ZM15 28.75C7.4182 28.75 1.24998 22.5818 1.24998 15C1.24998 7.4182 7.4182 1.24998 15 1.24998C22.5818 1.24998 28.75 7.4182 28.75 15C28.75 22.5818 22.5818 28.75 15 28.75Z" fill="white" fill-opacity="0.6"/>
<path d="M14.3723 5C14.0487 5 13.7863 5.26234 13.7863 5.58594V8.76465H12.4488V5.58594C12.4488 5.26234 12.1865 5 11.8629 5C11.5393 5 11.277 5.26234 11.277 5.58594V8.76465H9.93945V5.58594C9.93945 5.26234 9.67711 5 9.35352 5C9.02992 5 8.76758 5.26234 8.76758 5.58594V12.1006C8.76758 12.5624 9.02418 12.9774 9.43715 13.1838L10.0007 13.4655C10.014 13.4721 10.0223 13.4855 10.0223 13.5004V23.7812C10.0223 24.449 10.5655 24.9922 11.2332 24.9922H12.4926C13.1603 24.9922 13.7035 24.449 13.7035 23.7812V13.5004C13.7035 13.4855 13.7118 13.4721 13.7252 13.4654L14.2886 13.1838C14.7016 12.9774 14.9582 12.5624 14.9582 12.1006C14.9582 11.698 14.9582 5.76922 14.9582 5.58594C14.9582 5.26234 14.6959 5 14.3723 5V5ZM13.7863 12.1006C13.7863 12.1155 13.7781 12.1289 13.7647 12.1356L13.2013 12.4172C12.7882 12.6236 12.5316 13.0386 12.5316 13.5004V23.7812C12.5316 23.8028 12.5141 23.8203 12.4926 23.8203H11.2332C11.2117 23.8203 11.1941 23.8028 11.1941 23.7812V13.5004C11.1941 13.0386 10.9375 12.6236 10.5246 12.4172L9.96098 12.1355C9.9477 12.1289 9.93945 12.1155 9.93945 12.1006V9.93648H13.7863V12.1006Z" fill="white"/>
<path d="M16.8818 5.0249C16.5582 5.0249 16.2959 5.28725 16.2959 5.61084V23.789C16.2959 24.4567 16.8391 24.9999 17.5068 24.9999H18.7662C19.4339 24.9999 19.9771 24.4567 19.9771 23.789V18.0913H20.6459C20.9695 18.0913 21.2318 17.829 21.2318 17.5054V9.3749C21.2318 6.97631 19.2804 5.0249 16.8818 5.0249V5.0249ZM18.8053 23.789C18.8053 23.8105 18.7877 23.828 18.7662 23.828H17.5068C17.4853 23.828 17.4678 23.8105 17.4678 23.789V18.0913H18.8053V23.789ZM20.06 16.9194C19.7659 16.9194 17.7595 16.9194 17.4678 16.9194V6.25088C18.9413 6.52666 20.06 7.82256 20.06 9.3749V16.9194Z" fill="white"/>
</g>
<defs>
<clipPath id="clip0_1_11008">
<rect width="30" height="30" fill="white"/>
</clipPath>
</defs>
</svg>
