<svg width="11" height="10" viewBox="0 0 11 10" fill="none" xmlns="http://www.w3.org/2000/svg">
<path d="M4.26628 10C3.94156 10 3.63014 9.8683 3.40052 9.63388C3.17091 9.39946 3.04192 9.08152 3.04192 8.75C3.04192 8.41848 3.17091 8.10054 3.40052 7.86612C3.63014 7.6317 3.94156 7.5 4.26628 7.5C4.591 7.5 4.90242 7.6317 5.13203 7.86612C5.36165 8.10054 5.49064 8.41848 5.49064 8.75C5.49064 9.08152 5.36165 9.39946 5.13203 9.63388C4.90242 9.8683 4.591 10 4.26628 10ZM8.55154 10C8.22682 10 7.9154 9.8683 7.68579 9.63388C7.45618 9.39946 7.32718 9.08152 7.32718 8.75C7.32718 8.41848 7.45618 8.10054 7.68579 7.86612C7.9154 7.6317 8.22682 7.5 8.55154 7.5C8.87626 7.5 9.18768 7.6317 9.4173 7.86612C9.64691 8.10054 9.7759 8.41848 9.7759 8.75C9.7759 9.08152 9.64691 9.39946 9.4173 9.63388C9.18768 9.8683 8.87626 10 8.55154 10ZM0.569933 1.20187C0.417109 1.19684 0.272193 1.13132 0.165831 1.01918C0.0594691 0.907028 0 0.757043 0 0.600938C0 0.444832 0.0594691 0.294847 0.165831 0.182698C0.272193 0.0705502 0.417109 0.00503238 0.569933 0H1.27455C1.82674 0 2.30424 0.39125 2.42423 0.94125L3.19129 4.4675C3.31128 5.0175 3.78878 5.40875 4.34096 5.40875H8.93967L9.82243 1.8025H4.1016C3.95022 1.79545 3.80732 1.72909 3.70263 1.61722C3.59795 1.50535 3.53953 1.35659 3.53953 1.20187C3.53953 1.04716 3.59795 0.898397 3.70263 0.78653C3.80732 0.674663 3.95022 0.608303 4.1016 0.60125H9.82243C10.0014 0.601196 10.178 0.642799 10.3389 0.722896C10.4997 0.802993 10.6405 0.919477 10.7507 1.06349C10.8608 1.2075 10.9373 1.37526 10.9744 1.554C11.0115 1.73274 11.0082 1.91776 10.9648 2.095L10.082 5.7C10.0184 5.96012 9.87135 6.19105 9.66436 6.35606C9.45737 6.52106 9.20228 6.61067 8.93967 6.61062H4.34096C3.80518 6.6107 3.2854 6.4242 2.86745 6.08194C2.44951 5.73967 2.15841 5.26211 2.04223 4.72812L1.27455 1.20187H0.569933Z" fill="white"/>
</svg>
