<svg width="70" height="70" viewBox="0 0 70 70" fill="none" xmlns="http://www.w3.org/2000/svg">
<circle cx="35" cy="35" r="35" fill="#FF4A76"/>
<circle cx="35" cy="35" r="20" fill="white"/>
<circle cx="35" cy="35" r="25" fill="white" fill-opacity="0.5"/>
<g clip-path="url(#clip0_1_14731)">
<path d="M40.7 29.9899C40.3037 28.9092 39.6104 27.9622 38.7 27.2579C37.6394 26.4413 36.3385 25.9985 35 25.9985C33.6615 25.9985 32.3606 26.4413 31.3 27.2579C30.3896 27.9622 29.6963 28.9092 29.3 29.9899C28.2061 30.0116 27.1597 30.4411 26.366 31.1943C25.5723 31.9474 25.0885 32.9699 25.0095 34.0612C24.9305 35.1525 25.262 36.234 25.939 37.0935C26.6159 37.9531 27.5896 38.5289 28.669 38.7079V40.8679H41.33V38.7079C42.4094 38.5289 43.3831 37.9531 44.06 37.0935C44.737 36.234 45.0685 35.1525 44.9895 34.0612C44.9105 32.9699 44.4267 31.9474 43.633 31.1943C42.8393 30.4411 41.7929 30.0116 40.699 29.9899H40.7Z" fill="#FF4A76"/>
<path d="M28.67 43.978C28.67 44.1334 28.7317 44.2825 28.8416 44.3924C28.9515 44.5023 29.1006 44.564 29.256 44.564H40.744C40.8994 44.564 41.0485 44.5023 41.1583 44.3924C41.2682 44.2825 41.33 44.1334 41.33 43.978V42.04H28.67V43.978Z" fill="#FF4A76"/>
</g>
<defs>
<clipPath id="clip0_1_14731">
<rect width="20" height="18.564" fill="white" transform="translate(25 26)"/>
</clipPath>
</defs>
</svg>
