<svg width="16" height="20" viewBox="0 0 16 20" fill="none" xmlns="http://www.w3.org/2000/svg">
<path d="M9.0005 11H11.0005C11.2657 11 11.5201 11.1054 11.7076 11.2929C11.8951 11.4804 12.0005 11.7348 12.0005 12C12.0005 12.2652 11.8951 12.5196 11.7076 12.7071C11.5201 12.8946 11.2657 13 11.0005 13H8.0005C7.86907 13.0004 7.73886 12.9748 7.61735 12.9247C7.49585 12.8746 7.38545 12.8009 7.29252 12.708C7.19958 12.6151 7.12593 12.5047 7.07582 12.3832C7.0257 12.2616 7.00011 12.1314 7.0005 12V8C7.0005 7.73478 7.10586 7.48043 7.2934 7.29289C7.48093 7.10536 7.73529 7 8.0005 7C8.26572 7 8.52007 7.10536 8.70761 7.29289C8.89515 7.48043 9.0005 7.73478 9.0005 8V11ZM1.8695 6.861C1.64102 6.75503 1.44289 6.59324 1.2934 6.39053C1.14391 6.18783 1.04786 5.95075 1.01413 5.70115C0.980388 5.45156 1.01004 5.19749 1.10035 4.96237C1.19066 4.72725 1.33872 4.51866 1.53088 4.35584C1.72303 4.19301 1.95309 4.08119 2.19985 4.03069C2.4466 3.98019 2.70209 3.99263 2.94276 4.06687C3.18344 4.14112 3.40154 4.27477 3.57696 4.4555C3.75238 4.63623 3.87947 4.85822 3.9465 5.101C4.30688 4.88907 4.68337 4.70584 5.0725 4.553C4.63517 4.2491 4.3063 3.81348 4.13383 3.30962C3.96136 2.80576 3.9543 2.25999 4.11368 1.75184C4.27306 1.24368 4.59054 0.799703 5.01987 0.484591C5.4492 0.169479 5.96794 -0.000297705 6.5005 3.91882e-07H9.5005C10.0331 -0.000297705 10.5518 0.169479 10.9811 0.484591C11.4105 0.799703 11.728 1.24368 11.8873 1.75184C12.0467 2.25999 12.0396 2.80576 11.8672 3.30962C11.6947 3.81348 11.3658 4.2491 10.9285 4.553C11.3185 4.707 11.6955 4.89 12.0545 5.101C12.1215 4.85822 12.2486 4.63623 12.424 4.4555C12.5995 4.27477 12.8176 4.14112 13.0582 4.06687C13.2989 3.99263 13.5544 3.98019 13.8012 4.03069C14.0479 4.08119 14.278 4.19301 14.4701 4.35584C14.6623 4.51866 14.8103 4.72725 14.9007 4.96237C14.991 5.19749 15.0206 5.45156 14.9869 5.70115C14.9531 5.95075 14.8571 6.18783 14.7076 6.39053C14.5581 6.59324 14.36 6.75503 14.1315 6.861C15.1094 8.02784 15.734 9.44949 15.932 10.959C16.1301 12.4685 15.8933 14.0031 15.2494 15.3827C14.6056 16.7623 13.5815 17.9295 12.2974 18.7473C11.0132 19.5651 9.52243 19.9996 8 19.9996C6.47758 19.9996 4.98676 19.5651 3.70264 18.7473C2.41852 17.9295 1.3944 16.7623 0.750577 15.3827C0.10675 14.0031 -0.130056 12.4685 0.0679677 10.959C0.265991 9.44949 0.890623 8.02784 1.8685 6.861H1.8695ZM8.0005 18C8.78844 18 9.56865 17.8448 10.2966 17.5433C11.0246 17.2417 11.686 16.7998 12.2431 16.2426C12.8003 15.6855 13.2423 15.0241 13.5438 14.2961C13.8453 13.5681 14.0005 12.7879 14.0005 12C14.0005 11.2121 13.8453 10.4319 13.5438 9.7039C13.2423 8.97595 12.8003 8.31451 12.2431 7.75736C11.686 7.20021 11.0246 6.75825 10.2966 6.45672C9.56865 6.1552 8.78844 6 8.0005 6C6.40921 6 4.88308 6.63214 3.75786 7.75736C2.63265 8.88258 2.0005 10.4087 2.0005 12C2.0005 13.5913 2.63265 15.1174 3.75786 16.2426C4.88308 17.3679 6.40921 18 8.0005 18ZM6.5005 2C6.3679 2 6.24072 2.05268 6.14695 2.14645C6.05318 2.24022 6.0005 2.36739 6.0005 2.5C6.0005 2.63261 6.05318 2.75979 6.14695 2.85355C6.24072 2.94732 6.3679 3 6.5005 3H9.5005C9.63311 3 9.76029 2.94732 9.85406 2.85355C9.94783 2.75979 10.0005 2.63261 10.0005 2.5C10.0005 2.36739 9.94783 2.24022 9.85406 2.14645C9.76029 2.05268 9.63311 2 9.5005 2H6.5005Z" fill="#3D3D3D"/>
</svg>
