<svg width="70" height="70" viewBox="0 0 70 70" fill="none" xmlns="http://www.w3.org/2000/svg">
<circle cx="35" cy="35" r="34" fill="white" stroke="#FF4A76" stroke-width="2"/>
<circle cx="35" cy="35" r="20" fill="#FF4A76"/>
<g clip-path="url(#clip0_1_14739)">
<path d="M44.8853 32.3028C44.7874 32.1835 44.6415 32.1138 44.4884 32.1138H42.5419C42.0615 30.8469 41.4358 29.6055 40.7245 29.1369C38.2638 27.5182 31.7371 27.5182 29.2765 29.1369C28.5647 29.606 27.9415 30.8489 27.4585 32.1138H25.5121C25.3574 32.1138 25.212 32.1835 25.1152 32.3028C25.0179 32.4216 24.979 32.5788 25.0107 32.7299L25.299 34.127C25.3482 34.3651 25.5582 34.5351 25.8004 34.5351H26.377C25.8203 35.1773 25.5505 35.9859 25.5469 36.7951C25.5433 37.7947 25.9228 38.6981 26.6167 39.3372C26.6243 39.3438 26.632 39.3484 26.6392 39.3551V41.3098C26.6392 41.7333 26.9833 42.078 27.4073 42.078H29.2028C29.6268 42.078 29.9709 41.7333 29.9709 41.3098V40.5243H40.029V41.3098C40.029 41.7333 40.3732 42.078 40.7972 42.078H42.5926C43.0156 42.078 43.3607 41.7333 43.3607 41.3098V39.3935C44.0971 38.7191 44.4489 37.7911 44.4536 36.8647C44.4566 36.0279 44.1745 35.1896 43.585 34.5341H44.2001C44.4433 34.5341 44.6533 34.3641 44.7014 34.1254L44.9902 32.7289C45.0199 32.5788 44.9826 32.4226 44.8853 32.3028ZM30.1199 30.4198C32.0813 29.1287 37.9187 29.1287 39.879 30.4198C40.26 30.6697 40.7501 31.6801 41.1992 32.9173H28.8008C29.2488 31.6806 29.7389 30.6707 30.1199 30.4198ZM27.8227 36.9876C27.8227 36.1529 28.4996 35.4769 29.3339 35.4769C30.1691 35.4769 30.8451 36.1529 30.8451 36.9876C30.8451 37.8224 30.1691 38.4988 29.3339 38.4988C28.4996 38.4988 27.8227 37.8224 27.8227 36.9876ZM40.686 38.4988C39.8518 38.4988 39.1748 37.8224 39.1748 36.9876C39.1748 36.1529 39.8518 35.4769 40.686 35.4769C41.5213 35.4769 42.1973 36.1529 42.1973 36.9876C42.1973 37.8224 41.5203 38.4988 40.686 38.4988Z" fill="white"/>
</g>
<defs>
<clipPath id="clip0_1_14739">
<rect width="20" height="20" fill="white" transform="translate(25 25)"/>
</clipPath>
</defs>
</svg>
