<svg width="17" height="17" viewBox="0 0 17 17" fill="none" xmlns="http://www.w3.org/2000/svg">
<path d="M15.7604 -1.08368e-07L13.9896 -2.63179e-07C13.306 -3.22936e-07 12.75 0.556041 12.75 1.23958L12.75 1.49883C11.679 0.953416 9.24658 -6.77825e-07 5.29054 -1.02367e-06L4.15721 -1.12275e-06C2.51529 -1.26629e-06 1.12129 1.17442 0.842918 2.79225L0.0495824 7.39642C-0.119001 8.37887 0.152291 9.37762 0.792624 10.1384C1.43225 10.8977 2.37008 11.3333 3.36387 11.3333L6.57688 11.3333C6.37642 11.8717 6.17596 12.6565 6.17596 13.6354C6.17596 16.2966 7.68187 17 8.47804 17C9.94854 17 10.0718 15.6287 10.0718 14.3437C10.0718 12.7755 11.8306 11.4722 12.7592 10.8927C12.8067 11.5331 13.3372 12.0417 13.9896 12.0417L15.7604 12.0417C16.444 12.0417 17 11.4856 17 10.8021L17 1.23958C17 0.556042 16.444 -4.86107e-08 15.7604 -1.08368e-07ZM9.00929 14.3437C9.00929 15.9375 8.73942 15.9375 8.47804 15.9375C7.97937 15.9375 7.23846 15.3241 7.23846 13.6354C7.23846 12.0657 7.85329 11.1038 7.85754 11.0967C7.96592 10.9338 7.97654 10.7242 7.88375 10.5513C7.79167 10.3785 7.61104 10.2708 7.41554 10.2708L3.36388 10.2708C2.68387 10.2708 2.04283 9.97333 1.60508 9.45412C1.16663 8.93421 0.981042 8.24996 1.0965 7.57775L1.88983 2.97358C2.08038 1.86717 3.03379 1.06321 4.15721 1.06321L5.29054 1.06321C10.1093 1.0625 12.5233 2.56983 12.75 2.71929L12.75 9.66804C12.16 9.98112 9.00929 11.7732 9.00929 14.3437ZM15.9375 10.8021C15.9375 10.8998 15.8582 10.9792 15.7604 10.9792L13.9896 10.9792C13.8918 10.9792 13.8125 10.8998 13.8125 10.8021L13.8125 1.23958C13.8125 1.14325 13.8933 1.0625 13.9896 1.0625L15.7604 1.0625C15.8582 1.0625 15.9375 1.14183 15.9375 1.23958L15.9375 10.8021Z" fill="#999999"/>
</svg>
