<svg width="16" height="17" viewBox="0 0 16 17" fill="none" xmlns="http://www.w3.org/2000/svg">
<path d="M9.54395 3.659C9.54414 2.93548 9.33058 2.22814 8.93026 1.62645C8.52994 1.02477 7.96085 0.555756 7.29496 0.278737C6.62907 0.0017187 5.8963 -0.0708646 5.18931 0.0701672C4.48232 0.211199 3.83288 0.559511 3.32312 1.07105C2.81336 1.58259 2.46617 2.23438 2.32548 2.94399C2.18478 3.6536 2.25689 4.38916 2.53269 5.05763C2.80849 5.7261 3.27558 6.29746 3.8749 6.69945C4.47423 7.10144 5.17885 7.316 5.89966 7.316C6.86569 7.31494 7.79186 6.92935 8.47504 6.24378C9.15822 5.55822 9.54263 4.62867 9.54395 3.659ZM4.06457 3.659C4.06418 3.29388 4.17172 2.93686 4.37358 2.63312C4.57545 2.32938 4.86255 2.09259 5.19856 1.95273C5.53456 1.81287 5.90436 1.77622 6.26112 1.84743C6.61789 1.91864 6.94558 2.0945 7.20272 2.35275C7.45986 2.61099 7.63489 2.94002 7.70563 3.29817C7.77638 3.65631 7.73967 4.02748 7.60015 4.36467C7.46063 4.70186 7.22457 4.98992 6.92187 5.19238C6.61916 5.39484 6.26341 5.5026 5.89966 5.502C5.41312 5.50094 4.94682 5.3064 4.60287 4.96097C4.25892 4.61554 4.06536 4.14738 4.06457 3.659Z" fill="#999999"/>
<path d="M4.06152 3.65896C4.06152 3.41841 3.96632 3.18771 3.79687 3.01762C3.62741 2.84752 3.39757 2.75196 3.15792 2.75196L0.933298 2.75196C0.812178 2.74793 0.691485 2.76838 0.578403 2.81212C0.46532 2.85586 0.362158 2.92198 0.275054 3.00656C0.187951 3.09113 0.118686 3.19243 0.071382 3.30443C0.0240779 3.41642 -0.000299454 3.53682 -0.000299454 3.65846C-0.000299454 3.78011 0.0240779 3.90051 0.071382 4.0125C0.118686 4.1245 0.187951 4.2258 0.275054 4.31037C0.362158 4.39495 0.46532 4.46107 0.578403 4.50481C0.691485 4.54855 0.812178 4.569 0.933298 4.56496H3.15792C3.3974 4.56497 3.62708 4.46954 3.79651 4.29966C3.96594 4.12979 4.06126 3.89934 4.06152 3.65896V3.65896Z" fill="#999999"/>
<path d="M15.9697 3.65896C15.9697 3.41841 15.8745 3.18771 15.7051 3.01762C15.5356 2.84752 15.3058 2.75196 15.0661 2.75196L8.6702 2.75196C8.54908 2.74793 8.42839 2.76838 8.31531 2.81212C8.20222 2.85586 8.09906 2.92198 8.01196 3.00656C7.92486 3.09113 7.85559 3.19243 7.80829 3.30443C7.76098 3.41642 7.7366 3.53682 7.7366 3.65846C7.7366 3.78011 7.76098 3.90051 7.80829 4.0125C7.85559 4.1245 7.92486 4.2258 8.01196 4.31037C8.09906 4.39495 8.20222 4.46107 8.31531 4.50481C8.42839 4.54855 8.54908 4.569 8.6702 4.56496H15.0661C15.3056 4.56497 15.5353 4.46954 15.7047 4.29966C15.8741 4.12979 15.9695 3.89934 15.9697 3.65896V3.65896Z" fill="#999999"/>
<path d="M6.45557 12.345C6.45538 11.6216 6.66892 10.9143 7.06919 10.3126C7.46947 9.71093 8.0385 9.24192 8.70433 8.96487C9.37016 8.68782 10.1029 8.61518 10.8098 8.75613C11.5168 8.89708 12.1662 9.24529 12.676 9.75673C13.1859 10.2682 13.5331 10.9199 13.6739 11.6294C13.8147 12.339 13.7428 13.0745 13.4671 13.743C13.1915 14.4115 12.7245 14.9829 12.1253 15.385C11.5262 15.7871 10.8216 16.0018 10.1009 16.002C9.13465 16.0012 8.20822 15.6158 7.52483 14.9302C6.84143 14.2446 6.45689 13.3149 6.45557 12.345ZM11.9349 12.345C11.9353 11.9799 11.8278 11.6228 11.6259 11.3191C11.424 11.0153 11.1368 10.7785 10.8007 10.6387C10.4647 10.4988 10.0948 10.4623 9.73803 10.5335C9.38124 10.6048 9.05354 10.7808 8.79644 11.0391C8.53934 11.2975 8.3644 11.6266 8.29377 11.9848C8.22313 12.343 8.25999 12.7142 8.39966 13.0514C8.53933 13.3886 8.77554 13.6766 9.07838 13.8789C9.38122 14.0812 9.73706 14.1888 10.1009 14.188C10.5877 14.1875 11.0546 13.9932 11.3989 13.6477C11.7433 13.3022 11.9371 12.8338 11.9379 12.345H11.9349Z" fill="#999999"/>
<path d="M11.9382 12.345C11.9382 12.1044 12.0334 11.8737 12.2028 11.7037C12.3723 11.5336 12.6021 11.438 12.8418 11.438H15.0664C15.1875 11.434 15.3082 11.4544 15.4213 11.4982C15.5344 11.5419 15.6375 11.608 15.7246 11.6926C15.8117 11.7772 15.881 11.8785 15.9283 11.9905C15.9756 12.1025 16 12.2229 16 12.3445C16 12.4661 15.9756 12.5865 15.9283 12.6985C15.881 12.8105 15.8117 12.9118 15.7246 12.9964C15.6375 13.081 15.5344 13.1471 15.4213 13.1908C15.3082 13.2346 15.1875 13.255 15.0664 13.251H12.8418C12.6023 13.251 12.3726 13.1556 12.2032 12.9857C12.0338 12.8158 11.9384 12.5854 11.9382 12.345Z" fill="#999999"/>
<path d="M0.03055 12.345C0.03055 12.1044 0.125751 11.8737 0.295208 11.7037C0.464666 11.5336 0.694499 11.438 0.934149 11.438H7.33007C7.45119 11.434 7.57189 11.4544 7.68497 11.4982C7.79805 11.5419 7.90121 11.608 7.98832 11.6926C8.07542 11.7772 8.14469 11.8785 8.19199 11.9905C8.23929 12.1025 8.26367 12.2229 8.26367 12.3445C8.26367 12.4661 8.23929 12.5865 8.19199 12.6985C8.14469 12.8105 8.07542 12.9118 7.98832 12.9964C7.90121 13.081 7.79805 13.1471 7.68497 13.1908C7.57189 13.2346 7.45119 13.255 7.33007 13.251H0.934149C0.694672 13.251 0.464989 13.1556 0.29556 12.9857C0.126131 12.8158 0.0308142 12.5854 0.03055 12.345Z" fill="#999999"/>
</svg>
