<svg width="70" height="70" viewBox="0 0 70 70" fill="none" xmlns="http://www.w3.org/2000/svg">
<circle cx="35" cy="35" r="34" fill="white" stroke="#FF4A76" stroke-width="2"/>
<circle cx="35" cy="35" r="20" fill="#FF4A76"/>
<g clip-path="url(#clip0_1_14724)">
<path d="M27.1702 25.9952C27.1613 25.7369 27.043 25.4919 26.8405 25.3121C26.638 25.1323 26.3671 25.0317 26.0851 25.0317C25.8031 25.0317 25.5322 25.1323 25.3297 25.3121C25.1272 25.4919 25.0089 25.7369 25 25.9952V44.0052C25.0089 44.2635 25.1272 44.5085 25.3297 44.6883C25.5322 44.8681 25.8031 44.9687 26.0851 44.9687C26.3671 44.9687 26.638 44.8681 26.8405 44.6883C27.043 44.5085 27.1613 44.2635 27.1702 44.0052V36.1332V25.9952Z" fill="white"/>
<path d="M41.5903 30.4453C41.4978 30.3373 41.4476 30.204 41.4476 30.0668C41.4476 29.9295 41.4978 29.7962 41.5903 29.6883C42.5149 28.6721 43.5459 27.7414 44.6683 26.9093C45.5412 26.2613 44.401 25.7893 44.1446 25.6903C38.916 23.6733 33.6929 27.8903 28.4686 26.6093V36.5743C33.7059 37.8603 38.9345 33.6203 44.1675 35.6643C44.4228 35.7643 44.6563 35.7393 44.7687 35.5843C44.8211 35.4747 44.8419 35.3547 44.8293 35.2357C44.8167 35.1166 44.7711 35.0025 44.6967 34.9043C43.7699 33.3567 42.7321 31.8671 41.5903 30.4453Z" fill="white"/>
</g>
<defs>
<clipPath id="clip0_1_14724">
<rect width="20" height="20" fill="white" transform="translate(25 25)"/>
</clipPath>
</defs>
</svg>
