<svg width="30" height="30" viewBox="0 0 30 30" fill="none" xmlns="http://www.w3.org/2000/svg">
<path d="M6.21094 30H23.7891C25.2429 30 26.4258 28.8171 26.4258 27.3633V17.5781H27.3047C27.7901 17.5781 28.1836 17.1847 28.1836 16.6992V9.66797C28.1836 8.21411 27.0007 7.03125 25.5469 7.03125H20.4714L21.3611 6.42998C22.3311 5.77469 22.9102 4.68498 22.9102 3.51562C22.9102 1.577 21.3332 0 19.3945 0C17.8093 0 16.4136 1.06796 16.0004 2.59666L15 6.29883L13.9996 2.59666C13.5864 1.06796 12.1907 0 10.6055 0C8.66684 0 7.08984 1.577 7.08984 3.51562C7.08984 4.68498 7.66891 5.77469 8.63892 6.42998L9.52858 7.03125H4.45312C2.99927 7.03125 1.81641 8.21411 1.81641 9.66797V16.6992C1.81641 17.1847 2.20985 17.5781 2.69531 17.5781H3.57422V27.3633C3.57422 28.8171 4.75708 30 6.21094 30ZM5.33203 27.3633V17.5781H12.3633V28.2422H6.21094C5.72639 28.2422 5.33203 27.8478 5.33203 27.3633ZM14.1211 8.78906C14.5127 8.78906 15.2854 8.78906 15.8789 8.78906V28.2422H14.1211V8.78906ZM24.668 27.3633C24.668 27.8478 24.2736 28.2422 23.7891 28.2422H17.6367V17.5781H24.668V27.3633ZM26.4258 9.66797V15.8203H17.6367V10.0321L21.4098 13.805C21.7529 14.1483 22.3096 14.1483 22.6527 13.805C22.996 13.4619 22.996 12.9055 22.6527 12.5622L18.8798 8.78906H25.5469C26.0314 8.78906 26.4258 9.18343 26.4258 9.66797ZM17.6974 3.05534C17.9038 2.29134 18.6017 1.75781 19.3945 1.75781C20.3638 1.75781 21.1523 2.54631 21.1523 3.51562C21.1523 4.10042 20.8626 4.64539 20.3769 4.9736L17.3321 7.03125H16.623L17.6974 3.05534ZM9.62311 4.9736C9.13742 4.64539 8.84766 4.10042 8.84766 3.51562C8.84766 2.54631 9.63615 1.75781 10.6055 1.75781C11.3983 1.75781 12.0962 2.29134 12.3026 3.05534L13.377 7.03125H12.6679L9.62311 4.9736ZM3.57422 9.66797C3.57422 9.18343 3.96858 8.78906 4.45312 8.78906H11.1202L7.34734 12.5622C7.00401 12.9055 7.00401 13.4619 7.34734 13.805C7.69043 14.1483 8.24684 14.1483 8.59016 13.805L12.3633 10.0321V15.8203H3.57422V9.66797Z" fill="white"/>
</svg>
