<svg width="18" height="20" viewBox="0 0 18 20" fill="none" xmlns="http://www.w3.org/2000/svg">
<path d="M3.14062 20H14.8594C15.8286 20 16.6172 19.2114 16.6172 18.2422V11.7188H17.2031C17.5268 11.7188 17.7891 11.4565 17.7891 11.1328V6.44531C17.7891 5.47607 17.0005 4.6875 16.0312 4.6875H12.6476L13.2407 4.28665C13.8874 3.84979 14.2734 3.12332 14.2734 2.34375C14.2734 1.05133 13.2221 0 11.9297 0C10.8729 0 9.94238 0.711975 9.66696 1.73111L9 4.19922L8.33304 1.73111C8.05762 0.711975 7.12714 0 6.07031 0C4.77789 0 3.72656 1.05133 3.72656 2.34375C3.72656 3.12332 4.11261 3.84979 4.75928 4.28665L5.35239 4.6875H1.96875C0.999512 4.6875 0.210938 5.47607 0.210938 6.44531V11.1328C0.210938 11.4565 0.473236 11.7188 0.796875 11.7188H1.38281V18.2422C1.38281 19.2114 2.17139 20 3.14062 20ZM2.55469 18.2422V11.7188H7.24219V18.8281H3.14062C2.8176 18.8281 2.55469 18.5652 2.55469 18.2422ZM8.41406 5.85938C8.67514 5.85938 9.19028 5.85938 9.58594 5.85938V18.8281H8.41406V5.85938ZM15.4453 18.2422C15.4453 18.5652 15.1824 18.8281 14.8594 18.8281H10.7578V11.7188H15.4453V18.2422ZM16.6172 6.44531V10.5469H10.7578V6.68808L13.2732 9.20334C13.502 9.43222 13.873 9.43222 14.1018 9.20334C14.3307 8.97461 14.3307 8.60367 14.1018 8.37479L11.5865 5.85938H16.0312C16.3543 5.85938 16.6172 6.12228 16.6172 6.44531ZM10.7982 2.0369C10.9359 1.52756 11.4011 1.17188 11.9297 1.17188C12.5759 1.17188 13.1016 1.69754 13.1016 2.34375C13.1016 2.73361 12.9084 3.09692 12.5846 3.31573L10.5547 4.6875H10.082L10.7982 2.0369ZM5.41541 3.31573C5.09161 3.09692 4.89844 2.73361 4.89844 2.34375C4.89844 1.69754 5.4241 1.17188 6.07031 1.17188C6.59888 1.17188 7.06412 1.52756 7.20175 2.0369L7.918 4.6875H7.44528L5.41541 3.31573ZM1.38281 6.44531C1.38281 6.12228 1.64572 5.85938 1.96875 5.85938H6.41348L3.89822 8.37479C3.66934 8.60367 3.66934 8.97461 3.89822 9.20334C4.12695 9.43222 4.49789 9.43222 4.72678 9.20334L7.24219 6.68808V10.5469H1.38281V6.44531Z" fill="#FF4A76"/>
</svg>
