<svg width="157" height="47" viewBox="0 0 157 47" fill="none" xmlns="http://www.w3.org/2000/svg">
<path d="M152 1H5C2.79086 1 1 2.79086 1 5V42C1 44.2091 2.79086 46 5 46H152C154.209 46 156 44.2091 156 42V5C156 2.79086 154.209 1 152 1Z" stroke="white"/>
<path fill-rule="evenodd" clip-rule="evenodd" d="M123.673 34.9769H125.83V20.5269H123.673V34.9769ZM143.102 25.7319L140.629 31.9969H140.555L137.989 25.7319H135.665L139.513 34.4879L137.32 39.3599H139.57L145.5 25.7319H143.102ZM130.868 33.3359C130.162 33.3359 129.176 32.9829 129.176 32.1089C129.176 30.9929 130.403 30.5659 131.463 30.5659C132.411 30.5659 132.857 30.7699 133.433 31.0489C133.354 31.6756 133.05 32.2525 132.579 32.6729C132.107 33.0933 131.5 33.3288 130.868 33.3359ZM131.128 25.4159C129.567 25.4159 127.949 26.1039 127.28 27.6279L129.195 28.4279C129.605 27.6279 130.366 27.3679 131.165 27.3679C132.281 27.3679 133.415 28.0379 133.434 29.2279V29.3759C133.044 29.1529 132.207 28.8179 131.184 28.8179C129.121 28.8179 127.02 29.9519 127.02 32.0719C127.02 34.0049 128.711 35.2509 130.608 35.2509C132.058 35.2509 132.858 34.6009 133.36 33.8379H133.434V34.9529H135.516V29.4129C135.516 26.8469 133.601 25.4159 131.129 25.4159H131.128ZM117.798 27.4909H114.731V22.5369H117.798C119.411 22.5369 120.327 23.8719 120.327 25.0139C120.327 26.1339 119.411 27.4909 117.798 27.4909ZM117.742 20.5259H112.574V34.9769H114.731V29.5019H117.742C120.133 29.5019 122.483 27.7719 122.483 25.0139C122.483 22.2569 120.133 20.5259 117.743 20.5259H117.742ZM89.558 33.3379C88.068 33.3379 86.821 32.0909 86.821 30.3779C86.821 28.6459 88.069 27.3789 89.558 27.3789C91.03 27.3789 92.184 28.6459 92.184 30.3769C92.184 32.0909 91.03 33.3379 89.558 33.3379ZM92.035 26.5409H91.961C91.476 25.9639 90.545 25.4429 89.371 25.4429C86.914 25.4429 84.661 27.6029 84.661 30.3769C84.661 33.1339 86.914 35.2749 89.371 35.2749C90.545 35.2749 91.476 34.7539 91.961 34.1579H92.035V34.8659C92.035 36.7459 91.03 37.7519 89.409 37.7519C88.087 37.7519 87.268 36.8019 86.933 36.0019L85.051 36.7839C85.591 38.0879 87.025 39.6889 89.409 39.6889C91.942 39.6889 94.084 38.1989 94.084 34.5679V25.7399H92.035V26.5409ZM95.573 34.9769H97.734V20.5259H95.574V34.9769H95.573ZM100.919 30.2099C100.863 28.3099 102.389 27.3419 103.489 27.3419C104.345 27.3419 105.072 27.7699 105.314 28.3849L100.919 30.2099ZM107.623 28.5699C107.213 27.4719 105.965 25.4429 103.414 25.4429C100.881 25.4429 98.777 27.4349 98.777 30.3589C98.777 33.1149 100.863 35.2749 103.657 35.2749C105.91 35.2749 107.213 33.8969 107.753 33.0969L106.077 31.9789C105.519 32.7989 104.755 33.3389 103.657 33.3389C102.557 33.3389 101.775 32.8359 101.272 31.8489L107.846 29.1289L107.623 28.5709V28.5699ZM55.247 26.9509V29.0369H60.238C60.089 30.2099 59.698 31.0669 59.102 31.6629C58.376 32.3889 57.24 33.1899 55.247 33.1899C52.174 33.1899 49.772 30.7129 49.772 27.6399C49.772 24.5669 52.174 22.0899 55.247 22.0899C56.905 22.0899 58.115 22.7419 59.009 23.5799L60.481 22.1089C59.233 20.9169 57.575 20.0039 55.247 20.0039C51.038 20.0039 47.5 23.4309 47.5 27.6399C47.5 31.8489 51.038 35.2749 55.247 35.2749C57.52 35.2749 59.233 34.5299 60.573 33.1339C61.952 31.7559 62.38 29.8189 62.38 28.2539C62.38 27.7699 62.343 27.3239 62.268 26.9509H55.248H55.247ZM68.054 33.3379C66.564 33.3379 65.279 32.1099 65.279 30.3579C65.279 28.5889 66.564 27.3789 68.054 27.3789C69.544 27.3789 70.829 28.5889 70.829 30.3589C70.829 32.1089 69.544 33.3389 68.054 33.3389V33.3379ZM68.054 25.4429C65.334 25.4429 63.119 27.5089 63.119 30.3589C63.119 33.1889 65.335 35.2749 68.054 35.2749C70.774 35.2749 72.989 33.1899 72.989 30.3589C72.989 27.5089 70.773 25.4429 68.054 25.4429ZM78.82 33.3379C77.33 33.3379 76.046 32.1099 76.046 30.3579C76.046 28.5889 77.33 27.3789 78.82 27.3789C80.31 27.3789 81.595 28.5889 81.595 30.3589C81.595 32.1089 80.31 33.3389 78.82 33.3389V33.3379ZM78.82 25.4429C76.101 25.4429 73.885 27.5089 73.885 30.3589C73.885 33.1889 76.101 35.2749 78.82 35.2749C81.54 35.2749 83.756 33.1899 83.756 30.3589C83.756 27.5089 81.539 25.4429 78.82 25.4429Z" fill="white"/>
<path d="M51.0781 10.3398C51.0781 10.0378 50.9674 9.79818 50.7461 9.62109C50.5273 9.44141 50.2188 9.35156 49.8203 9.35156C49.487 9.35156 49.207 9.44401 48.9805 9.62891C48.7565 9.8112 48.6445 10.0378 48.6445 10.3086H47.8945C47.8945 10.0065 47.9766 9.73568 48.1406 9.49609C48.3073 9.25651 48.5391 9.07031 48.8359 8.9375C49.1328 8.80208 49.4609 8.73438 49.8203 8.73438C50.4557 8.73438 50.9492 8.8776 51.3008 9.16406C51.6523 9.44792 51.8281 9.84375 51.8281 10.3516C51.8281 10.6146 51.7474 10.8542 51.5859 11.0703C51.4245 11.2865 51.1992 11.457 50.9102 11.582C51.5794 11.806 51.9141 12.25 51.9141 12.9141C51.9141 13.4245 51.724 13.8294 51.3438 14.1289C50.9635 14.4284 50.4557 14.5781 49.8203 14.5781C49.4427 14.5781 49.099 14.5117 48.7891 14.3789C48.4818 14.2435 48.2422 14.0521 48.0703 13.8047C47.8984 13.5573 47.8125 13.263 47.8125 12.9219H48.5625C48.5625 13.2214 48.681 13.4714 48.918 13.6719C49.1549 13.8698 49.4557 13.9688 49.8203 13.9688C50.2292 13.9688 50.5547 13.8737 50.7969 13.6836C51.0417 13.4935 51.1641 13.2422 51.1641 12.9297C51.1641 12.263 50.7513 11.9232 49.9258 11.9102H49.2227V11.293H49.9219C50.3021 11.2852 50.5898 11.1992 50.7852 11.0352C50.9805 10.8711 51.0781 10.6393 51.0781 10.3398ZM55.4062 14.5C55.3646 14.4167 55.3307 14.2682 55.3047 14.0547C54.9688 14.4036 54.5677 14.5781 54.1016 14.5781C53.6849 14.5781 53.3424 14.4609 53.0742 14.2266C52.8086 13.9896 52.6758 13.6901 52.6758 13.3281C52.6758 12.888 52.8424 12.5469 53.1758 12.3047C53.5117 12.0599 53.9831 11.9375 54.5898 11.9375H55.293V11.6055C55.293 11.3529 55.2174 11.1523 55.0664 11.0039C54.9154 10.8529 54.6927 10.7773 54.3984 10.7773C54.1406 10.7773 53.9245 10.8424 53.75 10.9727C53.5755 11.1029 53.4883 11.2604 53.4883 11.4453H52.7617C52.7617 11.2344 52.8359 11.0312 52.9844 10.8359C53.1354 10.638 53.3385 10.4818 53.5938 10.3672C53.8516 10.2526 54.1341 10.1953 54.4414 10.1953C54.9284 10.1953 55.3099 10.3177 55.5859 10.5625C55.862 10.8047 56.0052 11.1393 56.0156 11.5664V13.5117C56.0156 13.8997 56.0651 14.2083 56.1641 14.4375V14.5H55.4062ZM54.207 13.9492C54.4336 13.9492 54.6484 13.8906 54.8516 13.7734C55.0547 13.6562 55.2018 13.5039 55.293 13.3164V12.4492H54.7266C53.8411 12.4492 53.3984 12.7083 53.3984 13.2266C53.3984 13.4531 53.474 13.6302 53.625 13.7578C53.776 13.8854 53.9701 13.9492 54.207 13.9492ZM59.8789 10.8711H57.9297V14.5H57.2031V10.2734H59.8789V10.8711ZM64.0781 12.4336C64.0781 13.0768 63.931 13.5951 63.6367 13.9883C63.3424 14.3815 62.944 14.5781 62.4414 14.5781C61.9284 14.5781 61.5247 14.4154 61.2305 14.0898V16.125H60.5078V10.2734H61.168L61.2031 10.7422C61.4974 10.3776 61.9062 10.1953 62.4297 10.1953C62.9375 10.1953 63.3385 10.3867 63.6328 10.7695C63.9297 11.1523 64.0781 11.6849 64.0781 12.3672V12.4336ZM63.3555 12.3516C63.3555 11.875 63.2539 11.4987 63.0508 11.2227C62.8477 10.9466 62.569 10.8086 62.2148 10.8086C61.7773 10.8086 61.4492 11.0026 61.2305 11.3906V13.4102C61.4466 13.7956 61.7773 13.9883 62.2227 13.9883C62.569 13.9883 62.8438 13.8516 63.0469 13.5781C63.2526 13.3021 63.3555 12.8932 63.3555 12.3516ZM66.3359 13.4414L67.3203 10.2734H68.0938L66.3945 15.1523C66.1315 15.8555 65.7135 16.207 65.1406 16.207L65.0039 16.1953L64.7344 16.1445V15.5586L64.9297 15.5742C65.1745 15.5742 65.3646 15.5247 65.5 15.4258C65.638 15.3268 65.7513 15.1458 65.8398 14.8828L66 14.4531L64.4922 10.2734H65.2812L66.3359 13.4414ZM71.0664 11.4297C71.0664 11.2318 70.9909 11.0755 70.8398 10.9609C70.6888 10.8438 70.4818 10.7852 70.2188 10.7852C69.9635 10.7852 69.75 10.8516 69.5781 10.9844C69.4089 11.1172 69.3242 11.2734 69.3242 11.4531H68.6055C68.6055 11.0859 68.7591 10.7852 69.0664 10.5508C69.3737 10.3164 69.7578 10.1992 70.2188 10.1992C70.7135 10.1992 71.099 10.306 71.375 10.5195C71.651 10.7305 71.7891 11.0326 71.7891 11.4258C71.7891 11.6159 71.7318 11.7904 71.6172 11.9492C71.5026 12.1081 71.3398 12.2344 71.1289 12.3281C71.6211 12.4948 71.8672 12.8229 71.8672 13.3125C71.8672 13.7005 71.7174 14.0078 71.418 14.2344C71.1185 14.4609 70.7188 14.5742 70.2188 14.5742C69.7318 14.5742 69.3294 14.4557 69.0117 14.2188C68.6966 13.9792 68.5391 13.6562 68.5391 13.25H69.2578C69.2578 13.4557 69.349 13.6328 69.5312 13.7812C69.7161 13.9271 69.9453 14 70.2188 14C70.4948 14 70.7174 13.9362 70.8867 13.8086C71.056 13.681 71.1406 13.5156 71.1406 13.3125C71.1406 13.0755 71.069 12.9062 70.9258 12.8047C70.7852 12.7005 70.5651 12.6484 70.2656 12.6484H69.543V12.0391H70.3281C70.8203 12.026 71.0664 11.8229 71.0664 11.4297ZM75.5391 10.2734H76.2617V14.5H75.5391V11.418L73.5898 14.5H72.8672V10.2734H73.5898V13.3594L75.5391 10.2734ZM80.5625 10.8594H79.1445V14.5H78.4219V10.8594H77.0312V10.2734H80.5625V10.8594ZM82.707 14.5781C82.1341 14.5781 81.668 14.3906 81.3086 14.0156C80.9492 13.638 80.7695 13.1341 80.7695 12.5039V12.3711C80.7695 11.9518 80.849 11.5781 81.0078 11.25C81.1693 10.9193 81.3932 10.6615 81.6797 10.4766C81.9688 10.2891 82.2812 10.1953 82.6172 10.1953C83.1667 10.1953 83.5938 10.3763 83.8984 10.7383C84.2031 11.1003 84.3555 11.6185 84.3555 12.293V12.5938H81.4922C81.5026 13.0104 81.6237 13.3477 81.8555 13.6055C82.0898 13.8607 82.3867 13.9883 82.7461 13.9883C83.0013 13.9883 83.2174 13.9362 83.3945 13.832C83.5716 13.7279 83.7266 13.5898 83.8594 13.418L84.3008 13.7617C83.9466 14.306 83.4154 14.5781 82.707 14.5781ZM82.6172 10.7891C82.3255 10.7891 82.0807 10.8958 81.8828 11.1094C81.6849 11.3203 81.5625 11.6172 81.5156 12H83.6328V11.9453C83.612 11.5781 83.513 11.2943 83.3359 11.0938C83.1589 10.8906 82.9193 10.7891 82.6172 10.7891ZM90.6328 14.5H89.9102V12.6953H87.9688V14.5H87.2422V10.2734H87.9688V12.1055H89.9102V10.2734H90.6328V14.5ZM94.4062 14.5C94.3646 14.4167 94.3307 14.2682 94.3047 14.0547C93.9688 14.4036 93.5677 14.5781 93.1016 14.5781C92.6849 14.5781 92.3424 14.4609 92.0742 14.2266C91.8086 13.9896 91.6758 13.6901 91.6758 13.3281C91.6758 12.888 91.8424 12.5469 92.1758 12.3047C92.5117 12.0599 92.9831 11.9375 93.5898 11.9375H94.293V11.6055C94.293 11.3529 94.2174 11.1523 94.0664 11.0039C93.9154 10.8529 93.6927 10.7773 93.3984 10.7773C93.1406 10.7773 92.9245 10.8424 92.75 10.9727C92.5755 11.1029 92.4883 11.2604 92.4883 11.4453H91.7617C91.7617 11.2344 91.8359 11.0312 91.9844 10.8359C92.1354 10.638 92.3385 10.4818 92.5938 10.3672C92.8516 10.2526 93.1341 10.1953 93.4414 10.1953C93.9284 10.1953 94.3099 10.3177 94.5859 10.5625C94.862 10.8047 95.0052 11.1393 95.0156 11.5664V13.5117C95.0156 13.8997 95.0651 14.2083 95.1641 14.4375V14.5H94.4062ZM93.207 13.9492C93.4336 13.9492 93.6484 13.8906 93.8516 13.7734C94.0547 13.6562 94.2018 13.5039 94.293 13.3164V12.4492H93.7266C92.8411 12.4492 92.3984 12.7083 92.3984 13.2266C92.3984 13.4531 92.474 13.6302 92.625 13.7578C92.776 13.8854 92.9701 13.9492 93.207 13.9492Z" fill="white"/>
<path d="M12.81 8.5L26.168 22.064L29.831 18.318L13.64 8.756C13.3894 8.60203 13.1038 8.51397 12.81 8.5ZM11.693 9.13C11.573 9.35 11.5 9.609 11.5 9.9V36.258C11.5 36.47 11.543 36.66 11.616 36.83L25.282 22.95L11.692 9.13H11.693ZM30.949 18.968L27.036 22.951L30.949 26.913L35.729 24.113C36.409 23.713 36.505 23.203 36.499 22.931C36.493 22.482 36.216 22.064 35.749 21.807C35.341 21.583 32.317 19.782 30.949 18.968ZM26.169 23.838L12.694 37.5C12.918 37.488 13.161 37.438 13.388 37.303L24.587 30.679L29.849 27.584L26.167 23.838H26.169Z" fill="white"/>
</svg>
