<svg width="4" height="6" viewBox="0 0 4 6" fill="none" xmlns="http://www.w3.org/2000/svg">
<path d="M2.498 3L0.924159 1.46672C0.869673 1.41485 0.826213 1.35281 0.796315 1.28421C0.766417 1.2156 0.75068 1.14182 0.750021 1.06716C0.749363 0.992506 0.763798 0.918465 0.792481 0.849362C0.821165 0.780261 0.863525 0.717481 0.917088 0.664687C0.970651 0.611893 1.03435 0.570142 1.10445 0.541871C1.17456 0.513598 1.24968 0.499372 1.32543 0.500021C1.40118 0.500669 1.47603 0.51618 1.54563 0.545649C1.61523 0.575117 1.67818 0.617953 1.73081 0.671657L3.70797 2.60247C3.81492 2.70791 3.875 2.8509 3.875 3C3.875 3.1491 3.81492 3.29209 3.70797 3.39753L1.73081 5.32834C1.67818 5.38205 1.61523 5.42488 1.54563 5.45435C1.47603 5.48382 1.40118 5.49933 1.32543 5.49998C1.24968 5.50063 1.17456 5.4864 1.10445 5.45813C1.03435 5.42986 0.970651 5.38811 0.917088 5.33531C0.863525 5.28252 0.821166 5.21974 0.792482 5.15064C0.763798 5.08153 0.749363 5.00749 0.750022 4.93284C0.75068 4.85818 0.766417 4.78439 0.796315 4.71579C0.826213 4.64719 0.869673 4.58515 0.924159 4.53328L2.498 3Z" fill="white"/>
</svg>
