<svg width="30" height="30" viewBox="0 0 30 30" fill="none" xmlns="http://www.w3.org/2000/svg">
<g clip-path="url(#clip0_1_10999)">
<path d="M15 5C13.6213 5 12.5 6.12119 12.5 7.50002C12.5 8.87884 13.6212 10 15 10C16.3789 10 17.5 8.87884 17.5 7.50002C17.5 6.12119 16.3788 5 15 5ZM15 8.75C14.311 8.75 13.75 8.18908 13.75 7.50002C13.75 6.81096 14.311 6.25004 15 6.25004C15.6891 6.25004 16.25 6.81096 16.25 7.50002C16.25 8.18908 15.6891 8.75 15 8.75Z" fill="white"/>
<path d="M16.875 11.25H11.875C11.5296 11.25 11.25 11.5296 11.25 11.875V14.375C11.25 14.7205 11.5296 15.0001 11.875 15.0001H12.5V24.3751C12.5 24.7205 12.7796 25.0001 13.1251 25.0001H16.8751C17.2205 25.0001 17.5001 24.7205 17.5001 24.3751V11.875C17.5 11.5296 17.2205 11.25 16.875 11.25ZM16.25 23.75H13.75V14.375C13.75 14.0295 13.4704 13.75 13.1249 13.75H12.4999V12.5H16.2499V23.75H16.25Z" fill="white"/>
<path d="M15 0C6.72914 0 0 6.72914 0 15C0 23.2709 6.72914 30 15 30C23.2709 30 30 23.2709 30 15C30 6.72914 23.2709 0 15 0ZM15 28.75C7.4182 28.75 1.24998 22.5818 1.24998 15C1.24998 7.4182 7.4182 1.24998 15 1.24998C22.5818 1.24998 28.75 7.4182 28.75 15C28.75 22.5818 22.5818 28.75 15 28.75Z" fill="white" fill-opacity="0.6"/>
</g>
<defs>
<clipPath id="clip0_1_10999">
<rect width="30" height="30" fill="white"/>
</clipPath>
</defs>
</svg>
