<svg width="20" height="20" viewBox="0 0 20 20" fill="none" xmlns="http://www.w3.org/2000/svg">
<path d="M10 0C4.47715 0 0 4.47715 0 10C0 15.5229 4.47715 20 10 20C15.5229 20 20 15.5229 20 10C20 4.47715 15.5229 0 10 0ZM10 18.75C5.1675 18.75 1.25 14.8325 1.25 10C1.25 5.1675 5.1675 1.25 10 1.25C14.8325 1.25 18.75 5.1675 18.75 10C18.75 14.8325 14.8325 18.75 10 18.75Z" fill="#FF4A76"/>
<path d="M11.25 8.125C11.25 7.43465 10.6904 6.875 10 6.875H8.75C8.40482 6.875 8.125 7.15482 8.125 7.5C8.125 7.84518 8.40482 8.125 8.75 8.125H10V15H9.375C9.02982 15 8.75 15.2798 8.75 15.625C8.75 15.9702 9.02982 16.25 9.375 16.25H11.875C12.2202 16.25 12.5 15.9702 12.5 15.625C12.5 15.2798 12.2202 15 11.875 15H11.25V8.125Z" fill="#FF4A76"/>
<path d="M10 5.625C10.6904 5.625 11.25 5.06536 11.25 4.375C11.25 3.68464 10.6904 3.125 10 3.125C9.30964 3.125 8.75 3.68464 8.75 4.375C8.75 5.06536 9.30964 5.625 10 5.625Z" fill="#FF4A76"/>
</svg>
