<svg width="17" height="17" viewBox="0 0 17 17" fill="none" xmlns="http://www.w3.org/2000/svg">
<path d="M1.23958 17H3.01042C3.69396 17 4.25 16.444 4.25 15.7604V15.5012C5.321 16.0466 7.75342 17 11.7095 17H12.8428C14.4847 17 15.8787 15.8256 16.1571 14.2078L16.9504 9.60358C17.119 8.62112 16.8477 7.62238 16.2074 6.86163C15.5678 6.10229 14.6299 5.66667 13.6361 5.66667H10.4231C10.6236 5.12833 10.824 4.3435 10.824 3.36458C10.824 0.703375 9.31813 0 8.52196 0C7.05146 0 6.92821 1.37133 6.92821 2.65625C6.92821 4.2245 5.16942 5.52783 4.24079 6.10725C4.19333 5.46692 3.66279 4.95833 3.01042 4.95833H1.23958C0.556042 4.95833 0 5.51437 0 6.19792V15.7604C0 16.444 0.556042 17 1.23958 17ZM7.99071 2.65625C7.99071 1.0625 8.26058 1.0625 8.52196 1.0625C9.02063 1.0625 9.76154 1.67592 9.76154 3.36458C9.76154 4.93425 9.14671 5.89617 9.14246 5.90325C9.03408 6.06617 9.02346 6.27583 9.11625 6.44867C9.20833 6.6215 9.38896 6.72917 9.58446 6.72917H13.6361C14.3161 6.72917 14.9572 7.02667 15.3949 7.54587C15.8334 8.06579 16.019 8.75004 15.9035 9.42225L15.1102 14.0264C14.9196 15.1328 13.9662 15.9368 12.8428 15.9368H11.7095C6.89067 15.9375 4.47667 14.4302 4.25 14.2807V7.33196C4.84004 7.01887 7.99071 5.22679 7.99071 2.65625ZM1.0625 6.19792C1.0625 6.10017 1.14183 6.02083 1.23958 6.02083H3.01042C3.10817 6.02083 3.1875 6.10017 3.1875 6.19792V15.7604C3.1875 15.8567 3.10675 15.9375 3.01042 15.9375H1.23958C1.14183 15.9375 1.0625 15.8582 1.0625 15.7604V6.19792Z" fill="#FF4A76"/>
</svg>
