<svg width="12" height="12" viewBox="0 0 12 12" fill="none" xmlns="http://www.w3.org/2000/svg">
<path fill-rule="evenodd" clip-rule="evenodd" d="M11.3518 0.722168L11.3512 0.720579C11.2848 0.545142 11.1817 0.39663 11.0545 0.280849C10.7559 0.00918168 10.3247 -0.0822804 9.92383 0.0814697L0.734362 3.83142C0.590153 3.89165 0.459319 3.97987 0.349431 4.091C0.239543 4.20212 0.152783 4.33393 0.0941714 4.47881C-0.153625 5.0788 0.104371 5.76579 0.671363 6.01359L3.39652 7.20217C3.93497 7.44127 4.35674 7.88397 4.56951 8.43335L5.70169 11.2953C5.75691 11.4383 5.84112 11.5683 5.94903 11.6771C6.05693 11.7859 6.1862 11.8713 6.32868 11.9277C6.90408 12.1515 7.55387 11.8383 7.77946 11.2287L11.3512 1.58085C11.4508 1.31085 11.455 1.01446 11.3608 0.74686C11.3579 0.738572 11.3549 0.730341 11.3518 0.722168ZM10.0139 1.4488L1.46011 4.93933L3.92413 6.01402C4.77527 6.39197 5.44233 7.0912 5.77988 7.959L6.72203 10.3406L10.0139 1.4488Z" fill="#333333"/>
</svg>
