<svg width="158" height="45" viewBox="0 0 158 45" fill="none" xmlns="http://www.w3.org/2000/svg">
<path fill-rule="evenodd" clip-rule="evenodd" d="M19.2862 2.14307H21.4292V4.03428C21.4292 4.06735 21.4357 4.1001 21.4484 4.13066C21.4611 4.16122 21.4796 4.18898 21.503 4.21237C21.5264 4.23576 21.5541 4.25431 21.5847 4.26697C21.6153 4.27963 21.648 4.28614 21.6811 4.28614H25.4635C25.5303 4.28614 25.5944 4.31268 25.6416 4.35991C25.6888 4.40714 25.7154 4.4712 25.7154 4.538V5.76602C22.2157 5.09647 18.5943 5.53756 15.3577 7.02757C15.3193 7.04534 15.277 7.05316 15.2348 7.0503C15.1926 7.04744 15.1518 7.03399 15.1162 7.01119C15.0805 6.98839 15.0512 6.95699 15.0309 6.91987C15.0106 6.88275 15 6.84111 15 6.79881V2.01192C14.9986 1.47875 14.7862 0.96781 14.4092 0.5908C14.0322 0.213789 13.5213 0.00137695 12.9881 0L2.01195 0C1.47872 0.00118103 0.967663 0.21353 0.59061 0.590583C0.213558 0.967636 0.00120859 1.47869 2.75612e-05 2.01192V12.9866C0.00140451 13.5198 0.213816 14.0307 0.590827 14.4077C0.967837 14.7847 1.47878 14.9971 2.01195 14.9985H7.19823C6.85762 15.6918 6.56484 16.4076 6.32193 17.1408H4.53728C4.47054 17.141 4.4066 17.1676 4.35941 17.2148C4.31221 17.262 4.28562 17.326 4.28542 17.3927V19.2839H2.1431V17.3942C2.1431 17.3275 2.11666 17.2636 2.06959 17.2164C2.02252 17.1691 1.95865 17.1425 1.89198 17.1423H0.25189C0.185092 17.1423 0.12103 17.1689 0.0737964 17.2161C0.026563 17.2633 2.75612e-05 17.3274 2.75612e-05 17.3942V19.0335C2.75612e-05 19.1003 0.026563 19.1644 0.0737964 19.2116C0.12103 19.2589 0.185092 19.2854 0.25189 19.2854H2.1431V21.4285H0.25189C0.218499 21.4285 0.185441 21.4351 0.154638 21.448C0.123835 21.4609 0.0959031 21.4798 0.0724661 21.5035C0.0490292 21.5273 0.0305554 21.5555 0.0181194 21.5865C0.00568348 21.6175 -0.000466388 21.6507 2.75612e-05 21.6841V27.6095C2.72694e-05 27.6762 0.0264604 27.7402 0.0735328 27.7874C0.120605 27.8346 0.184476 27.8612 0.251145 27.8614H1.89049C1.95716 27.8612 2.02103 27.8346 2.0681 27.7874C2.11517 27.7402 2.14161 27.6762 2.14161 27.6095V25.7146H4.28542V27.6058C4.28562 27.6726 4.31221 27.7365 4.35941 27.7837C4.4066 27.8309 4.47054 27.8575 4.53728 27.8577H6.32193C6.56483 28.5909 6.85762 29.3067 7.19823 30H2.01195C1.47878 30.0014 0.967837 30.2138 0.590827 30.5908C0.213816 30.9678 0.00140451 31.4788 2.75612e-05 32.0119V42.9866C0.00140451 43.5198 0.213816 44.0307 0.590827 44.4077C0.967837 44.7847 1.47878 44.9971 2.01195 44.9985H12.9874C13.5205 44.9971 14.0315 44.7847 14.4085 44.4077C14.7855 44.0307 14.9979 43.5198 14.9993 42.9866V37.8018C15.6926 38.1424 16.4083 38.4352 17.1416 38.6781V40.462C17.1418 40.5287 17.1684 40.5927 17.2156 40.6399C17.2628 40.6871 17.3267 40.7137 17.3935 40.7139H21.4277V42.6051C21.4279 42.6718 21.4545 42.7358 21.5017 42.7829C21.5489 42.8301 21.6129 42.8567 21.6796 42.8569H23.3189C23.3856 42.8571 23.4495 42.8837 23.4966 42.931C23.5436 42.9782 23.5701 43.0421 23.5701 43.1088V44.7481C23.5703 44.8149 23.5969 44.8788 23.644 44.926C23.6912 44.9732 23.7552 44.9998 23.8219 45H27.6051C27.6719 45 27.7359 44.9735 27.7832 44.9262C27.8304 44.879 27.8569 44.8149 27.8569 44.7481V40.7139H30V42.6051C30 42.6717 30.0264 42.7357 30.0735 42.7829C30.1206 42.8301 30.1845 42.8567 30.2511 42.8569H32.1423V44.7481C32.1425 44.8149 32.1691 44.8788 32.2163 44.926C32.2635 44.9732 32.3275 44.9998 32.3942 45H34.0335C34.1002 44.9998 34.1641 44.9732 34.2111 44.926C34.2582 44.8788 34.2847 44.8148 34.2847 44.7481V42.8569H36.4277V44.7481C36.4279 44.8149 36.4545 44.8788 36.5017 44.926C36.5489 44.9732 36.6129 44.9998 36.6796 45H38.3189C38.3857 44.9998 38.4496 44.9732 38.4968 44.926C38.544 44.8788 38.5706 44.8149 38.5708 44.7481V40.7139H40.462C40.5287 40.7137 40.5925 40.687 40.6396 40.6398C40.6867 40.5926 40.7131 40.5287 40.7131 40.462V38.5715H42.6043C42.6711 38.5715 42.7352 38.545 42.7824 38.4978C42.8296 38.4505 42.8562 38.3865 42.8562 38.3197V36.4285H44.7474C44.8141 36.4283 44.8781 36.4017 44.9253 36.3545C44.9725 36.3073 44.9991 36.2433 44.9993 36.1766V32.3942C44.9991 32.3274 44.9725 32.2635 44.9253 32.2163C44.8781 32.1691 44.8141 32.1425 44.7474 32.1423H43.108C43.0413 32.1425 42.9774 32.1691 42.9302 32.2163C42.883 32.2635 42.8564 32.3274 42.8562 32.3942V36.4285H40.9657C40.8991 36.4285 40.8351 36.4549 40.7879 36.502C40.7407 36.549 40.7141 36.6129 40.7139 36.6796V38.5715H36.4285V36.4285H38.3189C38.3857 36.4283 38.4496 36.4017 38.4968 36.3545C38.544 36.3073 38.5706 36.2433 38.5708 36.1766V32.1423H40.462C40.5285 32.1421 40.5923 32.1156 40.6393 32.0686C40.6864 32.0215 40.7129 31.9577 40.7131 31.8912V30.2534C40.7133 30.1866 40.7399 30.1227 40.7871 30.0755C40.8343 30.0283 40.8982 30.0017 40.965 30.0015H42.6043C42.6711 30.0015 42.7352 29.975 42.7824 29.9277C42.8296 29.8805 42.8562 29.8164 42.8562 29.7496V27.8577H44.7474C44.8141 27.8575 44.8781 27.8309 44.9253 27.7837C44.9725 27.7365 44.9991 27.6726 44.9993 27.6058V17.3972C44.9991 17.3304 44.9725 17.2665 44.9253 17.2193C44.8781 17.1721 44.8141 17.1455 44.7474 17.1453H40.9657C40.899 17.1455 40.835 17.1721 40.7878 17.2193C40.7407 17.2665 40.7141 17.3304 40.7139 17.3972V19.2884H39.234C38.9756 17.9326 38.5522 16.6135 37.9732 15.3607C37.9554 15.3223 37.9476 15.2801 37.9504 15.238C37.9533 15.1958 37.9666 15.1551 37.9894 15.1195C38.0121 15.0838 38.0434 15.0545 38.0804 15.0341C38.1174 15.0138 38.159 15.0031 38.2012 15.003H42.9873C43.5205 15.0016 44.0314 14.7892 44.4085 14.4122C44.7855 14.0352 44.9979 13.5242 44.9993 12.9911V2.01192C44.9979 1.47875 44.7855 0.96781 44.4085 0.5908C44.0314 0.213789 43.5205 0.00137695 42.9873 0L32.0134 0C31.4802 0.00137695 30.9693 0.213789 30.5923 0.5908C30.2153 0.96781 30.0029 1.47875 30.0015 2.01192V6.79881C30.0015 6.84111 29.9909 6.88275 29.9706 6.91987C29.9503 6.95699 29.921 6.98839 29.8853 7.01119C29.8497 7.03399 29.8089 7.04744 29.7667 7.0503C29.7245 7.05316 29.6822 7.04534 29.6438 7.02757C29.0615 6.75851 28.4644 6.52266 27.8554 6.32116V2.39419C27.8554 2.32739 27.8289 2.26333 27.7817 2.21609C27.7344 2.16886 27.6704 2.14232 27.6036 2.14232H25.7146V0.251863C25.7146 0.185065 25.6881 0.121002 25.6408 0.0737689C25.5936 0.0265355 25.5296 0 25.4628 0L23.8234 0C23.7567 0.000196578 23.6927 0.0267952 23.6455 0.0739861C23.5983 0.121177 23.5717 0.185125 23.5715 0.251863V2.14307H21.4285V0.251863C21.4285 0.185194 21.402 0.121244 21.355 0.0740319C21.3079 0.0268198 21.244 0.000197246 21.1774 0L17.3949 0C17.3282 0.000196578 17.2643 0.0267952 17.2171 0.0739861C17.1699 0.121177 17.1433 0.185125 17.1431 0.251863V4.03428C17.1431 4.10108 17.1696 4.16514 17.2169 4.21237C17.2641 4.2596 17.3281 4.28614 17.3949 4.28614H19.0343C19.0674 4.28614 19.1001 4.27963 19.1307 4.26697C19.1612 4.25431 19.189 4.23576 19.2124 4.21237C19.2358 4.18898 19.2543 4.16122 19.267 4.13066C19.2796 4.1001 19.2862 4.06735 19.2862 4.03428V2.14307ZM29.4948 19.3905C28.1031 17.0178 26.1149 15.0504 23.7278 13.6836C21.3406 12.3168 18.6375 11.5982 15.8868 11.5991C15.4732 11.5991 15.0991 11.614 14.7459 11.6431C14.3733 11.6706 14.0008 11.7176 13.6282 11.7697C15.2038 10.4623 17.0491 9.51951 19.0319 9.00897C21.0146 8.49843 23.0858 8.43277 25.0969 8.81669C26.5111 10.1871 27.6307 11.8317 28.3873 13.6498C29.1439 15.468 29.5215 17.4213 29.497 19.3905H29.4948ZM34.1222 21.6647C33.2278 23.2194 32.0506 24.5933 30.6513 25.7153C30.632 25.7313 30.6138 25.7484 30.5969 25.7668C29.9842 26.2525 29.3336 26.6884 28.6513 27.07C30.2194 24.3274 30.926 21.1763 30.6791 18.0267C30.4322 14.8771 29.2432 11.8746 27.2668 9.40984C29.2015 10.1206 30.9555 11.2499 32.4032 12.7171C33.8509 14.1843 34.9567 15.9531 35.6416 17.8972C35.4 18.8768 35.0568 19.8285 34.6177 20.737C34.4687 21.041 34.3003 21.3584 34.1252 21.6647H34.1222ZM33.0104 31.6229C29.9669 32.4996 26.72 32.3556 23.766 31.2131C23.7496 31.2072 23.7332 31.2012 23.7169 31.196C22.9827 30.9085 22.2737 30.5608 21.5969 30.1565C23.507 30.1426 25.3989 29.7834 27.1811 29.0961C28.7095 28.5119 30.1369 27.6917 31.4113 26.6654C31.427 26.6526 31.4419 26.6389 31.456 26.6244L31.4613 26.62L31.4687 26.6133C32.9594 25.405 34.2146 23.9323 35.1714 22.269C35.3577 21.9449 35.5343 21.6088 35.7005 21.2779C35.8897 20.892 36.0566 20.4903 36.2124 20.0857C36.5744 22.1256 36.4745 24.2208 35.92 26.217C35.3655 28.2132 34.3705 30.0597 33.0082 31.6207L33.0104 31.6229ZM15.4061 25.6088C16.3722 27.2459 17.6217 28.6982 19.0961 29.8979C19.1153 29.9134 19.1354 29.9276 19.1565 29.9404C20.4092 30.9454 21.8084 31.7526 23.3055 32.3338H23.3115L23.3264 32.3398C23.3413 32.3458 23.3569 32.351 23.3726 32.3554C25.171 33.0487 27.0823 33.4024 29.0097 33.3987C29.8035 33.3974 30.5961 33.3367 31.3808 33.2168C29.7894 34.5393 27.9228 35.4897 25.9173 35.9988C23.9117 36.5079 21.8178 36.5628 19.7884 36.1595C19.0801 35.4775 18.4438 34.7244 17.8897 33.9121C17.7012 33.6259 17.5172 33.3271 17.3383 33.0231C16.0451 30.7672 15.3783 28.2067 15.4069 25.6066L15.4061 25.6088ZM16.2444 17.9374C14.8886 20.3318 14.1798 23.0381 14.1879 25.7897C14.196 28.5413 14.9207 31.2433 16.2906 33.6297C16.4784 33.9553 16.6789 34.275 16.8868 34.5879C17.1103 34.9128 17.342 35.2235 17.5842 35.5283C15.6573 34.7954 13.916 33.646 12.4849 32.162C11.0538 30.6781 9.96812 28.8963 9.30554 26.9441C9.79523 25.0526 10.6624 23.2797 11.8548 21.7319C13.0473 20.1841 14.5404 18.8934 16.2444 17.9374ZM15.889 12.81C17.6838 12.8088 19.4633 13.1395 21.1379 13.7854C21.8855 14.0787 22.6082 14.4321 23.2988 14.842C21.3913 14.8577 19.502 15.215 17.7206 15.8972L17.6774 15.9158C15.6652 16.6976 13.8349 17.8841 12.2998 19.4018C10.7647 20.9195 9.55736 22.7361 8.75263 24.7392C8.42139 22.7153 8.54289 20.6431 9.1084 18.6717C9.67391 16.7004 10.6694 14.8789 12.0231 13.3383C12.945 13.0874 13.8886 12.925 14.8413 12.8532C15.1684 12.8249 15.5119 12.8122 15.8845 12.8122L15.889 12.81ZM22.5037 39.5387C22.1438 39.5387 21.7869 39.5261 21.4322 39.5037V40.7139H23.5745V39.503C23.2176 39.5246 22.8607 39.538 22.5037 39.5387ZM12.7504 36.4732C12.0298 35.97 11.3492 35.412 10.7146 34.804V39.7072C10.714 39.974 10.6078 40.2297 10.4191 40.4183C10.2304 40.607 9.97473 40.7133 9.70792 40.7139H5.29064C5.02382 40.7133 4.76811 40.607 4.57944 40.4183C4.39077 40.2297 4.28452 39.974 4.28393 39.7072V35.2921C4.28452 35.0253 4.39077 34.7696 4.57944 34.5809C4.76811 34.3922 5.02382 34.286 5.29064 34.2854H10.1938C9.58591 33.6507 9.02787 32.9701 8.52461 32.2496H3.25636C2.98974 32.2502 2.73422 32.3564 2.54569 32.5449C2.35716 32.7334 2.25099 32.989 2.2504 33.2556V41.7429C2.25099 42.0096 2.35714 42.2652 2.54564 42.4539C2.73415 42.6425 2.98968 42.7488 3.25636 42.7496H11.7437C12.0105 42.749 12.2662 42.6428 12.4549 42.4541C12.6435 42.2654 12.7498 42.0097 12.7504 41.7429V36.4732ZM5.4963 23.5708C5.47394 23.2168 5.46202 22.8599 5.46202 22.5C5.46178 21.4213 5.56357 20.3449 5.76604 19.2854H4.28542V21.1773C4.28542 21.2441 4.25888 21.3082 4.21165 21.3554C4.16442 21.4027 4.10036 21.4292 4.03356 21.4292H2.1431V23.5715H5.4963V23.5708ZM8.5261 12.7504C9.02965 12.0297 9.58793 11.3488 10.196 10.7139H5.29064C5.02389 10.7135 4.76817 10.6074 4.57948 10.4188C4.3908 10.2303 4.28452 9.97464 4.28393 9.7079V5.29061C4.28472 5.024 4.39108 4.76855 4.57975 4.58016C4.76841 4.39177 5.02402 4.28579 5.29064 4.28539H9.70568C9.97269 4.2852 10.2289 4.39092 10.418 4.57937C10.6072 4.76782 10.7138 5.02361 10.7146 5.29061V10.1945C11.3495 9.58656 12.0301 9.02828 12.7504 8.52459V3.25633C12.7498 2.98959 12.6435 2.73395 12.4548 2.5454C12.2661 2.35685 12.0104 2.25077 11.7437 2.25037H3.25636C2.98974 2.25096 2.73422 2.35714 2.54569 2.54566C2.35716 2.73419 2.25099 2.98972 2.2504 3.25633V11.7437C2.25099 12.0103 2.35716 12.2658 2.54569 12.4543C2.73422 12.6429 2.98974 12.749 3.25636 12.7496L8.5261 12.7504ZM32.3554 8.60134C32.8814 8.97428 33.3857 9.37682 33.8659 9.807C33.902 9.83944 33.9468 9.86068 33.9948 9.86817C34.0428 9.87566 34.092 9.86907 34.1363 9.84919C34.1806 9.82932 34.2182 9.79701 34.2446 9.7562C34.2709 9.71538 34.2848 9.6678 34.2847 9.61923V5.29061C34.2852 5.02387 34.3915 4.76823 34.5802 4.57968C34.7689 4.39113 35.0246 4.28504 35.2914 4.28465H39.7064C39.9733 4.28485 40.2292 4.39085 40.418 4.57942C40.6069 4.76798 40.7133 5.02374 40.7139 5.29061V9.70641C40.7133 9.97315 40.607 10.2288 40.4183 10.4173C40.2296 10.6059 39.9739 10.712 39.7072 10.7124H35.38C35.3315 10.7124 35.2839 10.7265 35.2432 10.7529C35.2024 10.7793 35.1702 10.817 35.1503 10.8613C35.1305 10.9057 35.1239 10.9548 35.1313 11.0028C35.1388 11.0508 35.1599 11.0956 35.1923 11.1319C35.6223 11.6124 36.0251 12.1167 36.3987 12.6423C36.4215 12.6756 36.4523 12.7026 36.4882 12.7211C36.5241 12.7396 36.564 12.7489 36.6043 12.7481H41.7459C42.0125 12.7475 42.268 12.6414 42.4566 12.4528C42.6451 12.2643 42.7513 12.0088 42.7519 11.7422V3.25633C42.7513 2.98972 42.6451 2.73419 42.4566 2.54566C42.268 2.35714 42.0125 2.25096 41.7459 2.25037H33.2563C32.9897 2.25077 32.734 2.35688 32.5455 2.54545C32.3569 2.73402 32.2508 2.98966 32.2504 3.25633V8.39791C32.2497 8.43827 32.259 8.47817 32.2774 8.51405C32.2959 8.54994 32.3229 8.5807 32.3562 8.60358L32.3554 8.60134ZM39.503 21.4285C39.5253 21.7824 39.538 22.1393 39.538 22.5C39.537 23.5788 39.434 24.6552 39.2303 25.7146H40.7131V21.4285H39.503ZM38.5715 28.152C38.0727 29.566 37.3889 30.9077 36.538 32.1423H38.5715V28.152ZM36.4285 32.301C34.7786 34.6408 32.5684 36.5294 30 37.7943V40.7146H31.8927C31.9594 40.7148 32.0234 40.7414 32.0706 40.7886C32.1178 40.8358 32.1444 40.8997 32.1446 40.9665V42.8577H34.2876V36.6803C34.288 36.6137 34.3147 36.55 34.3619 36.5029C34.4091 36.4559 34.4729 36.4294 34.5395 36.4292H36.4307V32.301H36.4285ZM27.8592 38.6721C27.1578 38.9051 26.4419 39.0918 25.7161 39.231V40.7139H27.8592V38.6721ZM22.5037 7.28689C19.4949 7.28615 16.5534 8.17766 14.0512 9.84869C11.549 11.5197 9.59849 13.8952 8.44636 16.6748C7.29424 19.4543 6.99222 22.5131 7.5785 25.4643C8.16478 28.4155 9.61302 31.1265 11.7401 33.2547C13.8672 35.3828 16.5775 36.8323 19.5284 37.4201C22.4793 38.0078 25.5383 37.7073 28.3184 36.5565C31.0985 35.4057 33.4749 33.4564 35.1472 30.9551C36.8194 28.4537 37.7124 25.5126 37.7131 22.5037C37.7136 20.5059 37.3206 18.5276 36.5565 16.6816C35.7924 14.8357 34.6723 13.1584 33.2599 11.7453C31.8476 10.3323 30.1708 9.21132 28.3253 8.44634C26.4797 7.68136 24.5016 7.28737 22.5037 7.28689ZM17.3949 45H19.0343C19.101 44.9998 19.165 44.9732 19.2122 44.926C19.2594 44.8788 19.286 44.8149 19.2862 44.7481V43.1088C19.2862 43.0757 19.2796 43.043 19.267 43.0124C19.2543 42.9818 19.2358 42.9541 19.2124 42.9307C19.189 42.9073 19.1612 42.8888 19.1307 42.8761C19.1001 42.8634 19.0674 42.8569 19.0343 42.8569H17.3949C17.3281 42.8569 17.2641 42.8835 17.2169 42.9307C17.1696 42.9779 17.1431 43.042 17.1431 43.1088V44.7481C17.1433 44.8149 17.1699 44.8788 17.2171 44.926C17.2643 44.9732 17.3282 44.9998 17.3949 45ZM43.1088 42.8569H44.7481C44.8149 42.8567 44.8788 42.8301 44.926 42.7829C44.9732 42.7358 44.9998 42.6718 45 42.6051V40.9657C44.9998 40.899 44.9732 40.835 44.926 40.7878C44.8788 40.7407 44.8149 40.7141 44.7481 40.7139H43.1088C43.0421 40.7141 42.9781 40.7407 42.9309 40.7878C42.8837 40.835 42.8571 40.899 42.8569 40.9657V42.6051C42.8571 42.6718 42.8837 42.7358 42.9309 42.7829C42.9781 42.8301 43.0421 42.8567 43.1088 42.8569ZM42.8569 27.8577H40.7139V25.7146H42.8569V27.8577Z" fill="#B8B8B8"/>
<path d="M119.517 22.6501V21.2858C119.516 20.494 119.671 19.7095 119.974 18.9773C120.277 18.2451 120.723 17.5795 121.285 17.0184C121.847 16.4574 122.515 16.0119 123.251 15.7075C123.986 15.4032 124.775 15.2458 125.572 15.2444H126.194C126.993 15.2435 127.784 15.3991 128.522 15.7024C129.259 16.0057 129.93 16.4507 130.495 17.0119C131.059 17.573 131.507 18.2394 131.812 18.9728C132.117 19.7062 132.274 20.4922 132.273 21.2858V24.0098C132.274 24.8034 132.118 25.5895 131.812 26.323C131.507 27.0564 131.06 27.7229 130.495 28.2841C129.93 28.8453 129.26 29.2902 128.522 29.5935C127.784 29.8967 126.993 30.0522 126.194 30.0512H125.572C124.775 30.0498 123.986 29.8924 123.251 29.588C122.515 29.2836 121.847 28.8382 121.285 28.2772C120.723 27.7161 120.277 27.0505 119.974 26.3183C119.671 25.586 119.516 24.8016 119.517 24.0098V22.6501ZM135.536 22.6501V21.2858C135.536 18.8232 134.551 16.4617 132.799 14.7204C131.047 12.9791 128.671 12.0006 126.193 12H125.57C123.097 12.0061 120.726 12.9873 118.98 14.7281C117.233 16.4689 116.252 18.8273 116.253 21.2858V24.0098C116.252 26.4683 117.233 28.8267 118.98 30.5675C120.726 32.3083 123.097 33.2894 125.57 33.2956H126.193C128.671 33.295 131.047 32.3164 132.799 30.5752C134.551 28.8339 135.536 26.4723 135.536 24.0098V22.6501ZM140.429 12.3211C140.429 11.949 143.344 11.949 143.643 12.2469L153.819 27.2322V12.3211C153.819 11.9235 157.059 11.9235 157.059 12.3211V33C157.059 33.3976 154.093 33.3976 153.843 33.0498L143.667 18.0901V33C143.667 33.3976 140.429 33.3976 140.429 33V12.3211Z" fill="#B8B8B8"/>
<path d="M112.606 21.0157C113.503 21.0029 113.515 24.274 112.617 24.2867H104.462C103.54 24.3053 103.554 21.0296 104.452 21.018L112.606 21.0157Z" fill="#B8B8B8"/>
<path d="M92.0552 26.0375C91.9802 25.8465 91.8505 25.6815 91.6822 25.5628C91.5139 25.4442 91.3144 25.3771 91.1082 25.3699H87.6781V32.9946C87.6781 33.3667 84.4126 33.3667 84.4126 32.9946V12.3006C84.4126 12.1511 85.0843 12.0282 85.9824 12.0039H93.2996C95.0705 12.0879 96.7442 12.8335 97.9857 14.0915C99.2272 15.3494 99.9449 17.0269 99.9952 18.7883C99.9997 20.1863 99.5619 21.5502 98.7438 22.6874C97.9257 23.8246 96.7686 24.6774 95.4362 25.1253L99.9952 32.9506C99.9952 33.4212 96.3576 33.3969 96.108 32.9262L92.0552 26.0375ZM60 21.3002C60.0006 18.8444 60.9825 16.4893 62.7297 14.7528C64.4769 13.0163 66.8465 12.0405 69.3174 12.0398H70.1151C72.5895 12.0368 74.9637 13.0106 76.7156 14.7473C78.4675 16.4839 79.4536 18.841 79.457 21.3002V24.0241C79.4561 26.4863 78.4716 28.8473 76.7198 30.5883C74.9681 32.3293 72.5925 33.3078 70.1151 33.3088H69.3174C66.8441 33.3026 64.4743 32.3218 62.7276 30.5815C60.9809 28.8412 60 26.4834 60 24.0253L60 21.3002ZM76.1938 21.3002C76.1943 20.5078 76.0372 19.7232 75.7316 18.9913C75.4259 18.2595 74.9778 17.5949 74.4129 17.0358C73.8481 16.4766 73.1776 16.034 72.44 15.7332C71.7025 15.4324 70.9124 15.2794 70.1151 15.2831H69.3174C68.5222 15.2822 67.7347 15.4372 66.9998 15.7393C66.265 16.0414 65.5974 16.4846 65.0352 17.0435C64.4731 17.6025 64.0274 18.2662 63.7237 18.9966C63.42 19.727 63.2644 20.5098 63.2656 21.3002V24.0241C63.2639 24.8158 63.4192 25.6002 63.7225 26.3322C64.0259 27.0643 64.4714 27.7298 65.0336 28.2907C65.5958 28.8517 66.2637 29.297 66.9992 29.6013C67.7346 29.9056 68.5231 30.063 69.3197 30.0643H70.1175C70.9159 30.0653 71.7067 29.9097 72.4445 29.6065C73.1823 29.3032 73.8527 28.8584 74.4174 28.2973C74.982 27.7363 75.4297 27.07 75.735 26.3368C76.0402 25.6035 76.1969 24.8176 76.1961 24.0241L76.1938 21.3002ZM87.6781 15.2228V22.4512H93.3019C94.2279 22.3626 95.0896 21.9417 95.7258 21.2673C96.3621 20.5929 96.7293 19.7112 96.7588 18.7872C96.7169 17.8769 96.3429 17.0129 95.7067 16.3567C95.0705 15.7005 94.2157 15.297 93.3019 15.2217H87.6781V15.2228Z" fill="#B8B8B8"/>
<path d="M71.158 27.8349C70.4991 27.2426 72.6742 24.8316 73.3366 25.4239L79.3278 30.8058C80.0054 31.4144 77.8116 33.8091 77.1504 33.2156L71.158 27.8349Z" fill="#B8B8B8"/>
</svg>
