<svg width="180" height="70" viewBox="0 0 180 70" fill="none" xmlns="http://www.w3.org/2000/svg">
<path fill-rule="evenodd" clip-rule="evenodd" d="M30.1857 3.33366H33.5399V6.27554C33.5399 6.32699 33.5501 6.37794 33.5699 6.42547C33.5897 6.47301 33.6188 6.5162 33.6554 6.55258C33.692 6.58896 33.7354 6.61782 33.7832 6.63751C33.8311 6.6572 33.8823 6.66733 33.9341 6.66733H39.8541C39.9587 6.66733 40.0589 6.70861 40.1329 6.78208C40.2068 6.85556 40.2483 6.95521 40.2483 7.05912V8.96937C34.7709 7.92785 29.1028 8.61398 24.0371 10.9318C23.977 10.9594 23.9108 10.9716 23.8448 10.9671C23.7787 10.9627 23.7148 10.9418 23.659 10.9063C23.6033 10.8708 23.5574 10.822 23.5256 10.7642C23.4938 10.7065 23.4772 10.6417 23.4772 10.5759V3.12966C23.4751 2.30028 23.1426 1.50548 22.5526 0.919021C21.9625 0.332561 21.1628 0.00214192 20.3283 0L3.149 0C2.31441 0.00183715 1.51454 0.332158 0.924392 0.918685C0.334249 1.50521 0.00189162 2.30019 4.31373e-05 3.12966V20.2014C0.00219826 21.0307 0.334654 21.8255 0.924731 22.412C1.51481 22.9985 2.3145 23.3289 3.149 23.331H11.2663C10.7332 24.4095 10.2749 25.5229 9.89476 26.6635H7.10152C6.99706 26.6638 6.89697 26.7052 6.82311 26.7786C6.74925 26.852 6.70762 26.9515 6.70731 27.0553V29.9972H3.35426V27.0576C3.35426 26.9539 3.31289 26.8544 3.23922 26.781C3.16554 26.7076 3.06557 26.6661 2.96123 26.6658H0.394245C0.289697 26.6658 0.18943 26.7071 0.115502 26.7806C0.041575 26.8541 4.31373e-05 26.9537 4.31373e-05 27.0576V29.6077C4.31373e-05 29.7116 0.041575 29.8113 0.115502 29.8848C0.18943 29.9582 0.289697 29.9995 0.394245 29.9995H3.35426V33.3332H0.394245C0.341984 33.3332 0.290242 33.3435 0.242032 33.3635C0.193821 33.3836 0.150103 33.413 0.11342 33.45C0.0767379 33.487 0.0478237 33.5308 0.0283596 33.579C0.00889549 33.6272 -0.000729966 33.6788 4.31373e-05 33.7308V42.9482C4.26806e-05 43.0519 0.0414145 43.1514 0.11509 43.2248C0.188765 43.2982 0.288732 43.3397 0.393079 43.34H2.95889C3.06324 43.3397 3.16321 43.2982 3.23688 43.2248C3.31056 43.1514 3.35193 43.0519 3.35193 42.9482V40.0005H6.70731V42.9424C6.70762 43.0462 6.74925 43.1457 6.82311 43.2191C6.89697 43.2925 6.99706 43.3339 7.10152 43.3342H9.89476C10.2749 44.4748 10.7332 45.5882 11.2663 46.6667H3.149C2.3145 46.6688 1.51481 46.9992 0.924731 47.5857C0.334654 48.1721 0.00219826 48.9669 4.31373e-05 49.7963V66.868C0.00219826 67.6974 0.334654 68.4922 0.924731 69.0787C1.51481 69.6651 2.3145 69.9955 3.149 69.9977H20.3271C21.1616 69.9955 21.9613 69.6651 22.5514 69.0787C23.1415 68.4922 23.4739 67.6974 23.4761 66.868V58.8028C24.5612 59.3326 25.6815 59.7881 26.8291 60.1659V62.9409C26.8294 63.0447 26.8711 63.1442 26.9449 63.2176C27.0188 63.291 27.1189 63.3324 27.2233 63.3327H33.5376V66.2746C33.5379 66.3784 33.5795 66.4778 33.6534 66.5512C33.7272 66.6247 33.8273 66.666 33.9318 66.6663H36.4976C36.6019 66.6666 36.7019 66.7081 36.7756 66.7815C36.8492 66.8549 36.8906 66.9544 36.8906 67.0581V69.6082C36.8909 69.712 36.9326 69.8115 37.0064 69.8849C37.0803 69.9583 37.1804 69.9997 37.2848 70H43.206C43.3106 70 43.4108 69.9587 43.4848 69.8852C43.5587 69.8118 43.6002 69.7121 43.6002 69.6082V63.3327H46.9544V66.2746C46.9544 66.3783 46.9958 66.4777 47.0695 66.5512C47.1432 66.6246 47.2431 66.666 47.3475 66.6663H50.3075V69.6082C50.3078 69.712 50.3494 69.8115 50.4233 69.8849C50.4972 69.9583 50.5972 69.9997 50.7017 70H53.2675C53.3719 69.9997 53.4718 69.9583 53.5455 69.8848C53.6192 69.8114 53.6605 69.7119 53.6605 69.6082V66.6663H57.0148V69.6082C57.0151 69.712 57.0567 69.8115 57.1306 69.8849C57.2044 69.9583 57.3045 69.9997 57.409 70H59.9748C60.0792 69.9997 60.1793 69.9583 60.2532 69.8849C60.327 69.8115 60.3687 69.712 60.369 69.6082V63.3327H63.329C63.4333 63.3324 63.5333 63.291 63.607 63.2175C63.6807 63.1441 63.722 63.0446 63.722 62.9409V60.0002H66.6821C66.7866 60.0002 66.8869 59.9589 66.9608 59.8854C67.0347 59.8119 67.0763 59.7123 67.0763 59.6084V56.6665H70.0363C70.1407 56.6662 70.2408 56.6248 70.3147 56.5514C70.3885 56.478 70.4302 56.3785 70.4305 56.2747V50.391C70.4302 50.2871 70.3885 50.1877 70.3147 50.1143C70.2408 50.0409 70.1407 49.9995 70.0363 49.9992H67.4705C67.366 49.9995 67.2659 50.0409 67.1921 50.1143C67.1182 50.1877 67.0766 50.2871 67.0763 50.391V56.6665H64.1174C64.0131 56.6665 63.913 56.7076 63.8391 56.7808C63.7652 56.8541 63.7235 56.9534 63.7232 57.0571V60.0002H57.0159V56.6665H59.9748C60.0792 56.6662 60.1793 56.6248 60.2532 56.5514C60.327 56.478 60.3687 56.3785 60.369 56.2747V49.9992H63.329C63.4331 49.9989 63.5329 49.9576 63.6066 49.8844C63.6802 49.8112 63.7217 49.7121 63.722 49.6085V47.0608C63.7223 46.957 63.764 46.8575 63.8378 46.7841C63.9117 46.7107 64.0118 46.6693 64.1162 46.669H66.6821C66.7866 46.669 66.8869 46.6277 66.9608 46.5542C67.0347 46.4808 67.0763 46.3811 67.0763 46.2772V43.3342H70.0363C70.1407 43.3339 70.2408 43.2925 70.3147 43.2191C70.3885 43.1457 70.4302 43.0462 70.4305 42.9424V27.0623C70.4302 26.9584 70.3885 26.859 70.3147 26.7856C70.2408 26.7122 70.1407 26.6708 70.0363 26.6705H64.1174C64.0129 26.6708 63.9129 26.7122 63.839 26.7856C63.7651 26.859 63.7235 26.9584 63.7232 27.0623V30.0041H61.407C61.0026 27.8951 60.3399 25.8433 59.4336 23.8944C59.4058 23.8347 59.3936 23.7691 59.398 23.7035C59.4025 23.638 59.4234 23.5746 59.459 23.5191C59.4945 23.4637 59.5435 23.4181 59.6014 23.3864C59.6594 23.3548 59.7244 23.3381 59.7905 23.338H67.2815C68.116 23.3358 68.9157 23.0054 69.5058 22.4189C70.0959 21.8325 70.4283 21.0377 70.4305 20.2083V3.12966C70.4283 2.30028 70.0959 1.50548 69.5058 0.919021C68.9157 0.332561 68.116 0.00214192 67.2815 0L50.1057 0C49.2712 0.00214192 48.4715 0.332561 47.8815 0.919021C47.2914 1.50548 46.9589 2.30028 46.9568 3.12966V10.5759C46.9568 10.6417 46.9402 10.7065 46.9084 10.7642C46.8767 10.822 46.8308 10.8708 46.775 10.9063C46.7192 10.9418 46.6553 10.9627 46.5892 10.9671C46.5232 10.9716 46.4571 10.9594 46.397 10.9318C45.4856 10.5132 44.551 10.1464 43.5979 9.83292V3.72429C43.5979 3.62038 43.5564 3.52073 43.4824 3.44726C43.4085 3.37378 43.3082 3.33251 43.2037 3.33251H40.2472V0.391787C40.2472 0.287878 40.2056 0.188226 40.1317 0.114752C40.0578 0.0412774 39.9575 0 39.853 0L37.2872 0C37.1827 0.000305788 37.0826 0.0416814 37.0087 0.115089C36.9349 0.188498 36.8933 0.287972 36.8929 0.391787V3.33366H33.5387V0.391787C33.5387 0.288079 33.4974 0.188602 33.4237 0.115161C33.35 0.0417197 33.25 0.000306828 33.1457 0L27.2257 0C27.1212 0.000305788 27.0211 0.0416814 26.9473 0.115089C26.8734 0.188498 26.8318 0.287972 26.8315 0.391787V6.27554C26.8315 6.37945 26.873 6.4791 26.9469 6.55258C27.0208 6.62605 27.1211 6.66733 27.2257 6.66733H29.7915C29.8432 6.66733 29.8945 6.6572 29.9423 6.63751C29.9902 6.61782 30.0336 6.58896 30.0702 6.55258C30.1068 6.5162 30.1359 6.47301 30.1557 6.42547C30.1755 6.37794 30.1857 6.32699 30.1857 6.27554V3.33366ZM46.1637 30.1629C43.9854 26.4721 40.8737 23.4117 37.1374 21.2856C33.4012 19.1595 29.1704 18.0417 24.8651 18.0431C24.2178 18.0431 23.6324 18.0662 23.0795 18.1114C22.4964 18.1543 21.9133 18.2274 21.3301 18.3085C23.7962 16.2747 26.6843 14.8081 29.7877 14.014C32.891 13.2198 36.1326 13.1176 39.2803 13.7149C41.4938 15.8466 43.2462 18.4049 44.4304 21.2331C45.6145 24.0613 46.2055 27.0999 46.1672 30.1629H46.1637ZM53.4063 33.7006C52.0064 36.1191 50.1639 38.2562 47.9738 40.0017C47.9436 40.0264 47.9152 40.0531 47.8886 40.0816C46.9298 40.8373 45.9115 41.5152 44.8435 42.109C47.2979 37.8426 48.4038 32.941 48.0173 28.0415C47.6308 23.1421 45.7699 18.4716 42.6765 14.6375C45.7047 15.7431 48.4499 17.4998 50.7158 19.7821C52.9817 22.0644 54.7124 24.8159 55.7843 27.84C55.4062 29.3639 54.8691 30.8444 54.1819 32.2575C53.9486 32.7304 53.685 33.2242 53.411 33.7006H53.4063ZM51.6662 49.1913C46.9026 50.5549 41.8208 50.331 37.1973 48.5537C37.1717 48.5445 37.146 48.5352 37.1204 48.5271C35.9714 48.0799 34.8616 47.5391 33.8023 46.9101C36.7919 46.8886 39.7529 46.3298 42.5424 45.2606C44.9346 44.3519 47.1687 43.076 49.1634 41.4796C49.1878 41.4596 49.2112 41.4383 49.2333 41.4158L49.2415 41.4088L49.2532 41.3984C51.5863 39.5189 53.5509 37.228 55.0484 34.6407C55.34 34.1364 55.6164 33.6137 55.8765 33.099C56.1727 32.4986 56.434 31.8738 56.6777 31.2444C57.2443 34.4176 57.0879 37.6768 56.22 40.782C55.3521 43.8872 53.7949 46.7596 51.6627 49.1878L51.6662 49.1913ZM24.1129 39.8359C25.625 42.3825 27.5805 44.6416 29.8883 46.5079C29.9182 46.532 29.9498 46.5541 29.9827 46.5739C31.9433 48.1373 34.1334 49.3929 36.4766 50.2971H36.4859L36.5092 50.3063C36.5326 50.3156 36.5571 50.3237 36.5816 50.3307C39.3963 51.4091 42.3878 51.9593 45.4045 51.9535C46.6469 51.9516 47.8874 51.857 49.1156 51.6706C46.6248 53.7277 43.7033 55.2062 40.5644 55.9981C37.4254 56.79 34.1481 56.8754 30.9717 56.2481C29.8631 55.1872 28.8673 54.0157 28.0001 52.7521C27.705 52.307 27.4169 51.8422 27.137 51.3693C25.113 47.8601 24.0694 43.8771 24.114 39.8324L24.1129 39.8359ZM25.4249 27.9026C23.3029 31.6272 22.1935 35.837 22.2062 40.1172C22.2189 44.3975 23.3531 48.6007 25.4972 52.3128C25.7911 52.8193 26.1049 53.3166 26.4303 53.8034C26.7801 54.3088 27.1429 54.7922 27.5219 55.2663C24.506 54.1263 21.7806 52.3382 19.5407 50.0298C17.3008 47.7215 15.6016 44.9499 14.5645 41.9131C15.331 38.9707 16.6882 36.2128 18.5545 33.8051C20.4209 31.3974 22.7579 29.3897 25.4249 27.9026ZM24.8686 19.9266C27.6777 19.9248 30.463 20.4392 33.0839 21.4439C34.2541 21.9002 35.3852 22.4499 36.4661 23.0876C33.4805 23.1119 30.5236 23.6678 27.7353 24.7289L27.6677 24.7579C24.5184 25.9741 21.6537 27.8197 19.251 30.1805C16.8483 32.5414 14.9587 35.3673 13.6992 38.4832C13.1807 35.3349 13.3709 32.1114 14.256 29.0449C15.1411 25.9783 16.6991 23.1449 18.818 20.7485C20.2608 20.3582 21.7377 20.1055 23.2288 19.9939C23.7408 19.9498 24.2785 19.9301 24.8616 19.9301L24.8686 19.9266ZM35.2217 61.5047C34.6584 61.5047 34.0997 61.485 33.5446 61.4502V63.3327H36.8976V61.4491C36.339 61.4827 35.7803 61.5036 35.2217 61.5047ZM19.9562 56.736C18.8285 55.9534 17.7632 55.0853 16.77 54.1396V61.7667C16.769 62.1817 16.6027 62.5795 16.3075 62.873C16.0122 63.1665 15.6119 63.3318 15.1943 63.3327H8.28062C7.86302 63.3318 7.46279 63.1665 7.1675 62.873C6.87221 62.5795 6.70591 62.1817 6.70498 61.7667V54.8988C6.70591 54.4838 6.87221 54.086 7.1675 53.7925C7.46279 53.499 7.86302 53.3338 8.28062 53.3328H15.9547C15.0034 52.3455 14.13 51.2868 13.3423 50.1661H5.09668C4.67939 50.167 4.27945 50.3322 3.98438 50.6254C3.68931 50.9187 3.52313 51.3162 3.52221 51.7309V64.9334C3.52313 65.3483 3.68927 65.7459 3.98431 66.0393C4.27935 66.3328 4.67928 66.4982 5.09668 66.4994H18.3806C18.7982 66.4985 19.1984 66.3332 19.4937 66.0397C19.789 65.7463 19.9553 65.3485 19.9562 64.9334V56.736ZM8.60252 36.6657C8.56753 36.1151 8.54887 35.5599 8.54887 35C8.54849 33.322 8.70781 31.6477 9.02471 29.9995H6.70731V32.9425C6.70731 33.0465 6.66578 33.1461 6.59186 33.2196C6.51793 33.2931 6.41766 33.3343 6.31311 33.3343H3.35426V36.6668H8.60252V36.6657ZM13.3446 19.8339C14.1327 18.7129 15.0065 17.6538 15.9582 16.666H8.28062C7.86313 16.6654 7.46289 16.5004 7.16757 16.2071C6.87225 15.9138 6.70591 15.5161 6.70498 15.1012V8.22984C6.70621 7.8151 6.87269 7.41774 7.16798 7.12469C7.46327 6.83165 7.86333 6.66678 8.28062 6.66617H15.1908C15.6087 6.66586 16.0097 6.83032 16.3057 7.12347C16.6018 7.41661 16.7687 7.8145 16.77 8.22984V15.8581C17.7636 14.9124 18.8288 14.044 19.9562 13.2605V5.06541C19.9553 4.65047 19.789 4.25281 19.4937 3.95951C19.1983 3.66622 18.7981 3.50119 18.3806 3.50058H5.09668C4.67939 3.5015 4.27945 3.66666 3.98438 3.95992C3.68931 4.25319 3.52313 4.65067 3.52221 5.06541V18.2679C3.52313 18.6827 3.68931 19.0801 3.98438 19.3734C4.27945 19.6667 4.67939 19.8318 5.09668 19.8328L13.3446 19.8339ZM50.641 13.3799C51.4642 13.96 52.2535 14.5862 53.0051 15.2553C53.0617 15.3058 53.1318 15.3388 53.2069 15.3505C53.282 15.3621 53.359 15.3519 53.4283 15.321C53.4977 15.2901 53.5566 15.2398 53.5978 15.1763C53.639 15.1128 53.6608 15.0388 53.6605 14.9632V8.22984C53.6615 7.8149 53.8278 7.41724 54.1231 7.12395C54.4185 6.83065 54.8187 6.66562 55.2362 6.66501H62.1464C62.5641 6.66532 62.9646 6.83021 63.2602 7.12354C63.5558 7.41687 63.7223 7.8147 63.7232 8.22984V15.0989C63.7223 15.5138 63.5559 15.9115 63.2606 16.2048C62.9653 16.498 62.5651 16.6631 62.1476 16.6637H55.375C55.2989 16.6637 55.2246 16.6856 55.1608 16.7268C55.097 16.7679 55.0465 16.8264 55.0154 16.8954C54.9844 16.9644 54.974 17.0408 54.9857 17.1155C54.9973 17.1902 55.0305 17.2599 55.0811 17.3163C55.7541 18.0638 56.3845 18.8482 56.9693 19.6658C57.0051 19.7176 57.0532 19.7597 57.1094 19.7884C57.1656 19.8171 57.228 19.8315 57.2912 19.8304H65.3385C65.7558 19.8295 66.1557 19.6644 66.4508 19.3711C66.7459 19.0778 66.912 18.6803 66.913 18.2656V5.06541C66.912 4.65067 66.7459 4.25319 66.4508 3.95992C66.1557 3.66666 65.7558 3.5015 65.3385 3.50058H52.0511C51.6337 3.50119 51.2336 3.66626 50.9384 3.95958C50.6433 4.25291 50.4772 4.65058 50.4766 5.06541V13.0634C50.4755 13.1262 50.49 13.1883 50.5189 13.2441C50.5478 13.2999 50.5902 13.3478 50.6422 13.3833L50.641 13.3799ZM61.828 33.3332C61.863 33.8838 61.8828 34.439 61.8828 35C61.8812 36.6782 61.72 38.3525 61.4011 40.0005H63.722V33.3332H61.828ZM60.3701 43.792C59.5893 45.9915 58.5191 48.0787 57.1874 49.9992H60.3701V43.792ZM57.0159 50.2461C54.4336 53.8856 50.9743 56.8236 46.9544 58.7912V63.3338H49.9168C50.0212 63.3341 50.1213 63.3755 50.1952 63.4489C50.2691 63.5223 50.3107 63.6218 50.311 63.7256V66.6675H53.6652V57.0583C53.6658 56.9547 53.7076 56.8555 53.7814 56.7823C53.8552 56.7092 53.9552 56.668 54.0594 56.6677H57.0194V50.2461H57.0159ZM43.6037 60.1567C42.506 60.519 41.3855 60.8094 40.2495 61.026V63.3327H43.6037V60.1567ZM35.2217 11.3352C30.5124 11.334 25.9084 12.7208 21.9921 15.3202C18.0758 17.9196 15.023 21.6148 13.2198 25.9385C11.4166 30.2622 10.9439 35.0203 11.8615 39.6111C12.7791 44.2019 15.0458 48.4191 18.375 51.7295C21.7042 55.0399 25.9463 57.2948 30.5649 58.209C35.1835 59.1232 39.9711 58.6558 44.3224 56.8657C48.6737 55.0756 52.3932 52.0433 55.0105 48.1523C57.6278 44.2613 59.0254 39.6863 59.0266 35.0058C59.0274 31.8981 58.4122 28.8207 57.2163 25.9492C56.0204 23.0778 54.2672 20.4685 52.0567 18.2705C49.8462 16.0725 47.2218 14.3287 44.3332 13.1388C41.4446 11.9488 38.3485 11.3359 35.2217 11.3352ZM27.2257 70H29.7915C29.8959 69.9997 29.996 69.9583 30.0699 69.8849C30.1437 69.8115 30.1854 69.712 30.1857 69.6082V67.0581C30.1857 67.0067 30.1755 66.9557 30.1557 66.9082C30.1359 66.8607 30.1068 66.8175 30.0702 66.7811C30.0336 66.7447 29.9902 66.7159 29.9423 66.6962C29.8945 66.6765 29.8432 66.6663 29.7915 66.6663H27.2257C27.1211 66.6663 27.0208 66.7076 26.9469 66.7811C26.873 66.8546 26.8315 66.9542 26.8315 67.0581V69.6082C26.8318 69.712 26.8734 69.8115 26.9473 69.8849C27.0211 69.9583 27.1212 69.9997 27.2257 70ZM67.4716 66.6663H70.0374C70.1419 66.666 70.242 66.6247 70.3158 66.5512C70.3897 66.4778 70.4313 66.3784 70.4316 66.2746V63.7245C70.4313 63.6206 70.3897 63.5212 70.3158 63.4478C70.242 63.3744 70.1419 63.333 70.0374 63.3327H67.4716C67.3672 63.333 67.2671 63.3744 67.1932 63.4478C67.1194 63.5212 67.0777 63.6206 67.0774 63.7245V66.2746C67.0777 66.3784 67.1194 66.4778 67.1932 66.5512C67.2671 66.6247 67.3672 66.666 67.4716 66.6663ZM67.0774 43.3342H63.7232V40.0005H67.0774V43.3342Z" fill="url(#paint0_linear_1_9860)"/>
<path d="M142.459 18.1985V16.8342C142.457 16.0423 142.612 15.2579 142.915 14.5257C143.219 13.7935 143.664 13.1278 144.226 12.5668C144.789 12.0057 145.457 11.5603 146.192 11.2559C146.928 10.9515 147.716 10.7941 148.513 10.7928H149.136C149.934 10.7918 150.725 10.9475 151.463 11.2508C152.201 11.554 152.871 11.999 153.436 12.5602C154.001 13.1214 154.448 13.7877 154.754 14.5211C155.059 15.2545 155.215 16.0405 155.214 16.8342V19.5581C155.215 20.3518 155.059 21.1379 154.754 21.8713C154.449 22.6048 154.001 23.2712 153.436 23.8324C152.872 24.3936 152.201 24.8386 151.463 25.1418C150.725 25.445 149.934 25.6006 149.136 25.5995H148.513C147.716 25.5981 146.928 25.4408 146.192 25.1364C145.457 24.832 144.789 24.3865 144.226 23.8255C143.664 23.2645 143.219 22.5988 142.915 21.8666C142.612 21.1344 142.457 20.3499 142.459 19.5581V18.1985ZM158.478 18.1985V16.8342C158.477 14.3716 157.492 12.0101 155.74 10.2688C153.988 8.52748 151.612 7.54895 149.135 7.54834H148.512C146.038 7.55448 143.668 8.53559 141.921 10.2764C140.174 12.0172 139.194 14.3756 139.194 16.8342V19.5581C139.194 22.0166 140.174 24.375 141.921 26.1159C143.668 27.8567 146.038 28.8378 148.512 28.8439H149.135C151.612 28.8433 153.988 27.8648 155.74 26.1235C157.492 24.3822 158.477 22.0207 158.478 19.5581V18.1985ZM163.37 7.86942C163.37 7.49734 166.286 7.49734 166.584 7.79524L176.76 22.7805V7.86942C176.76 7.47184 180 7.47184 180 7.86942V28.5483C180 28.9459 177.034 28.9459 176.785 28.5982L166.609 13.6384V28.5483C166.609 28.9459 163.37 28.9459 163.37 28.5483V7.86942Z" fill="#563B84"/>
<path d="M135.548 16.564C136.445 16.5513 136.456 19.8223 135.558 19.8351H127.404C126.481 19.8536 126.495 16.5779 127.393 16.5663L135.548 16.564Z" fill="#563B84"/>
<path d="M114.997 21.5859C114.922 21.3948 114.792 21.2298 114.624 21.1112C114.455 20.9925 114.256 20.9254 114.05 20.9182H110.62V28.543C110.62 28.9151 107.354 28.9151 107.354 28.543V7.84899C107.354 7.69946 108.026 7.57659 108.924 7.55225H116.241C118.012 7.63627 119.686 8.38187 120.927 9.63982C122.169 10.8978 122.886 12.5753 122.937 14.3367C122.941 15.7346 122.503 17.0986 121.685 18.2357C120.867 19.3729 119.71 20.2257 118.378 20.6736L122.937 28.4989C122.937 28.9695 119.299 28.9452 119.049 28.4746L114.997 21.5859ZM82.9414 16.8485C82.942 14.3927 83.9239 12.0377 85.6711 10.3011C87.4183 8.56463 89.7879 7.5888 92.2588 7.58819H93.0565C95.5309 7.58511 97.9051 8.55898 99.657 10.2956C101.409 12.0322 102.395 14.3893 102.398 16.8485V19.5725C102.398 22.0346 101.413 24.3957 99.6612 26.1367C97.9095 27.8777 95.5339 28.8562 93.0565 28.8571H92.2588C89.7855 28.851 87.4157 27.8702 85.669 26.1298C83.9223 24.3895 82.9414 22.0317 82.9414 19.5736V16.8485ZM99.1352 16.8485C99.1357 16.0561 98.9786 15.2715 98.673 14.5397C98.3673 13.8079 97.9192 13.1433 97.3544 12.5841C96.7895 12.025 96.119 11.5823 95.3814 11.2815C94.6439 10.9807 93.8538 10.8278 93.0565 10.8314H92.2588C91.4636 10.8305 90.6761 10.9855 89.9412 11.2876C89.2064 11.5897 88.5388 12.0329 87.9766 12.5919C87.4145 13.1508 86.9688 13.8145 86.6651 14.545C86.3614 15.2754 86.2058 16.0582 86.207 16.8485V19.5725C86.2053 20.3642 86.3606 21.1485 86.6639 21.8806C86.9673 22.6127 87.4128 23.2782 87.975 23.8391C88.5372 24.4 89.2051 24.8453 89.9406 25.1497C90.676 25.454 91.4645 25.6113 92.2611 25.6127H93.0589C93.8573 25.6136 94.6481 25.458 95.3859 25.1548C96.1237 24.8516 96.7941 24.4067 97.3588 23.8457C97.9234 23.2846 98.3711 22.6184 98.6764 21.8851C98.9816 21.1519 99.1383 20.366 99.1375 19.5725L99.1352 16.8485ZM110.62 10.7712V17.9995H116.243C117.169 17.9109 118.031 17.49 118.667 16.8156C119.304 16.1412 119.671 15.2595 119.7 14.3355C119.658 13.4252 119.284 12.5612 118.648 11.9051C118.012 11.2489 117.157 10.8454 116.243 10.77H110.62V10.7712Z" fill="#563B84"/>
<path d="M94.0994 23.3833C93.4405 22.791 95.6156 20.38 96.278 20.9723L102.269 26.3541C102.947 26.9627 100.753 29.3575 100.092 28.764L94.0994 23.3833Z" fill="#563B84"/>
<path d="M86.2969 47.9813C86.6894 47.9936 87.0802 47.9244 87.4445 47.7784C87.8087 47.6324 88.1383 47.4126 88.4125 47.1331C88.6866 46.8535 88.8992 46.5203 89.0367 46.1547C89.1743 45.7891 89.2338 45.399 89.2114 45.0093V41.489C89.2372 41.1143 89.1863 40.7383 89.0619 40.3836C88.9375 40.0289 88.7422 39.7029 88.4876 39.4253C88.233 39.1477 87.9245 38.9242 87.5807 38.7683C87.2368 38.6124 86.8648 38.5273 86.487 38.5182C86.1023 38.5 85.7188 38.573 85.368 38.731C85.0172 38.889 84.7092 39.1275 84.4693 39.427V38.7454C84.4693 37.0067 84.965 36.4549 85.9925 36.0203C86.7629 35.7631 87.5526 35.567 88.3542 35.4337C88.4046 35.4288 88.4509 35.4041 88.4831 35.3652C88.5152 35.3263 88.5305 35.2763 88.5256 35.2263V34.5771C88.5256 34.445 88.4498 34.3882 88.3157 34.4067C87.7069 34.54 86.7156 34.7475 85.8012 35.0315C84.3737 35.5044 83.3835 36.4515 83.3835 38.7407V45.0093C83.3611 45.3989 83.4206 45.7889 83.5581 46.1544C83.6955 46.52 83.908 46.8531 84.182 47.1326C84.456 47.4121 84.7855 47.6319 85.1496 47.778C85.5137 47.9242 85.9044 47.9934 86.2969 47.9813ZM86.2969 46.9381C86.0446 46.9472 85.7933 46.9026 85.5598 46.8074C85.3263 46.7121 85.116 46.5683 84.943 46.3857C84.7699 46.203 84.6381 45.9857 84.5564 45.7484C84.4748 45.511 84.445 45.259 84.4693 45.0093V41.489C84.4452 41.2394 84.4751 40.9876 84.5568 40.7504C84.6386 40.5131 84.7704 40.296 84.9434 40.1135C85.1165 39.931 85.3267 39.7873 85.5601 39.6921C85.7935 39.5969 86.0447 39.5523 86.2969 39.5614C86.5494 39.5521 86.8011 39.5966 87.0349 39.692C87.2687 39.7873 87.4793 39.9313 87.6525 40.1142C87.8257 40.2971 87.9576 40.5147 88.0391 40.7525C88.1207 40.9902 88.1502 41.2425 88.1256 41.4925V45.0093C88.1502 45.2593 88.1207 45.5117 88.0391 45.7494C87.9576 45.9871 87.8257 46.2048 87.6525 46.3877C87.4793 46.5706 87.2687 46.7145 87.0349 46.8099C86.8011 46.9052 86.5494 46.9497 86.2969 46.9404V46.9381ZM93.9138 47.9593C94.3041 47.9663 94.6916 47.8935 95.0523 47.7454C95.4131 47.5973 95.7393 47.377 96.0108 47.0983C96.2823 46.8196 96.4932 46.4883 96.6304 46.1252C96.7676 45.7621 96.8283 45.3747 96.8085 44.9873C96.8103 44.9621 96.8065 44.9367 96.7976 44.913C96.7886 44.8893 96.7747 44.8678 96.7567 44.8499C96.7387 44.832 96.717 44.8181 96.6932 44.8093C96.6693 44.8004 96.6438 44.7966 96.6184 44.7984H95.9187C95.8929 44.7952 95.8667 44.7979 95.8422 44.8063C95.8176 44.8146 95.7952 44.8284 95.7768 44.8466C95.7584 44.8648 95.7444 44.8869 95.7358 44.9113C95.7273 44.9357 95.7244 44.9617 95.7274 44.9873C95.7459 45.2344 95.7128 45.4825 95.6302 45.7163C95.5476 45.95 95.4173 46.1643 95.2474 46.3456C95.0776 46.527 94.8719 46.6714 94.6432 46.77C94.4145 46.8686 94.1678 46.9191 93.9185 46.9184C93.6659 46.9277 93.4143 46.8832 93.1805 46.7879C92.9467 46.6925 92.7361 46.5486 92.5629 46.3656C92.3896 46.1827 92.2578 45.9651 92.1762 45.7274C92.0946 45.4896 92.0651 45.2373 92.0898 44.9873V43.8282H93.9138C94.2918 43.8528 94.6708 43.7992 95.0268 43.6707C95.3828 43.5423 95.7081 43.3418 95.9822 43.0819C96.2562 42.8221 96.473 42.5085 96.6189 42.1611C96.7647 41.8137 96.8365 41.44 96.8295 41.0636C96.8485 40.6773 96.7863 40.2913 96.6467 39.9302C96.5071 39.5691 96.2933 39.2409 96.019 38.9666C95.7446 38.6922 95.4156 38.4778 95.0532 38.3369C94.6907 38.196 94.3027 38.1318 93.9138 38.1484C93.5182 38.1309 93.1233 38.197 92.7553 38.3423C92.3873 38.4877 92.0545 38.709 91.7789 38.9917C91.5034 39.2743 91.2913 39.6119 91.1567 39.9821C91.0221 40.3522 90.968 40.7465 90.9981 41.139V44.9804C90.9691 45.3717 91.024 45.7647 91.1593 46.1334C91.2945 46.502 91.5069 46.838 91.7826 47.1189C92.0582 47.3999 92.3907 47.6195 92.7581 47.7631C93.1255 47.9068 93.5195 47.9713 93.9138 47.9524V47.9593ZM92.0851 42.7942V41.1471C92.0537 40.8949 92.0783 40.639 92.1572 40.3973C92.2361 40.1556 92.3673 39.934 92.5417 39.7481C92.716 39.5623 92.9292 39.4166 93.1663 39.3215C93.4034 39.2263 93.6585 39.184 93.9138 39.1974C94.1621 39.1855 94.4101 39.2262 94.6413 39.317C94.8724 39.4077 95.0815 39.5464 95.2545 39.7237C95.4276 39.9011 95.5606 40.113 95.6447 40.3455C95.7289 40.5779 95.7622 40.8255 95.7426 41.0718C95.7517 41.3086 95.7099 41.5447 95.6199 41.7642C95.5299 41.9837 95.3938 42.1816 95.2207 42.3446C95.0476 42.5076 94.8415 42.6321 94.6161 42.7096C94.3907 42.7872 94.1513 42.816 93.9138 42.7942H92.0851ZM101.299 47.9802C101.687 47.9797 102.071 47.9019 102.429 47.7513C102.786 47.6007 103.11 47.3804 103.38 47.1035C103.65 46.8265 103.862 46.4985 104.002 46.1388C104.143 45.7791 104.209 45.395 104.198 45.0093C104.2 44.9839 104.196 44.9584 104.187 44.9346C104.178 44.9108 104.164 44.8891 104.146 44.8711C104.128 44.8531 104.106 44.8392 104.082 44.8302C104.058 44.8213 104.032 44.8175 104.007 44.8192H103.307C103.28 44.8142 103.253 44.8155 103.227 44.8231C103.201 44.8307 103.177 44.8444 103.158 44.863C103.138 44.8816 103.123 44.9045 103.114 44.93C103.105 44.9555 103.103 44.9827 103.106 45.0093C103.122 45.2557 103.086 45.5025 103.002 45.7348C102.919 45.9671 102.788 46.1801 102.619 46.3607C102.45 46.5414 102.245 46.6859 102.018 46.7856C101.791 46.8852 101.546 46.9379 101.298 46.9404C101.047 46.9471 100.797 46.9006 100.566 46.804C100.334 46.7075 100.126 46.563 99.9555 46.3804C99.7846 46.1977 99.6548 45.981 99.5747 45.7446C99.4946 45.5082 99.4661 45.2575 99.491 45.0093V41.1112C99.4634 40.8654 99.4889 40.6167 99.5657 40.3815C99.6425 40.1464 99.7689 39.9302 99.9365 39.7474C100.104 39.5647 100.309 39.4195 100.537 39.3217C100.766 39.2238 101.013 39.1756 101.261 39.18C101.494 39.1724 101.726 39.2121 101.943 39.2965C102.16 39.3809 102.357 39.5083 102.523 39.671C102.689 39.8337 102.82 40.0282 102.907 40.2427C102.995 40.4573 103.038 40.6873 103.033 40.9187C103.03 40.9445 103.032 40.9706 103.041 40.9951C103.049 41.0196 103.063 41.0419 103.082 41.0602C103.1 41.0786 103.123 41.0925 103.147 41.1009C103.172 41.1093 103.198 41.112 103.224 41.1088H103.924C103.95 41.1104 103.975 41.1065 103.999 41.0975C104.023 41.0885 104.045 41.0745 104.063 41.0565C104.081 41.0386 104.095 41.017 104.104 40.9933C104.113 40.9695 104.117 40.9441 104.115 40.9187C104.09 40.1656 103.765 39.4533 103.211 38.9385C102.657 38.4237 101.92 38.1487 101.162 38.1739C100.404 38.1991 99.6877 38.5225 99.1698 39.0729C98.6519 39.6233 98.3751 40.3557 98.4005 41.1088V45.0093C98.3776 45.3975 98.4361 45.7862 98.5722 46.1507C98.7082 46.5153 98.919 46.8478 99.1911 47.1271C99.4633 47.4065 99.7908 47.6267 100.153 47.7737C100.515 47.9208 100.904 47.9915 101.295 47.9813L101.299 47.9802ZM109.603 42.4905L111.793 38.5495C111.868 38.4162 111.773 38.3177 111.64 38.3177H110.841C110.794 38.3156 110.747 38.3269 110.705 38.3503C110.664 38.3737 110.63 38.4082 110.608 38.4498L108.476 42.3491H107.188V38.5182C107.19 38.4929 107.186 38.4675 107.177 38.4438C107.169 38.42 107.155 38.3984 107.137 38.3804C107.119 38.3625 107.097 38.3485 107.073 38.3395C107.049 38.3304 107.024 38.3265 106.998 38.3281H106.299C106.273 38.3264 106.247 38.3301 106.223 38.3391C106.199 38.348 106.178 38.362 106.159 38.38C106.141 38.398 106.127 38.4196 106.118 38.4435C106.109 38.4673 106.106 38.4928 106.107 38.5182V47.6023C106.106 47.6277 106.109 47.6532 106.118 47.677C106.127 47.7009 106.141 47.7225 106.159 47.7405C106.178 47.7585 106.199 47.7725 106.223 47.7814C106.247 47.7904 106.273 47.7941 106.299 47.7924H106.998C107.024 47.7939 107.049 47.7901 107.073 47.7811C107.097 47.772 107.119 47.7581 107.137 47.7401C107.155 47.7221 107.169 47.7005 107.177 47.6767C107.186 47.653 107.19 47.6276 107.188 47.6023V43.4005H108.674C108.922 43.3793 109.171 43.4106 109.405 43.4922C109.64 43.5739 109.854 43.704 110.034 43.874C110.214 44.0441 110.355 44.2501 110.449 44.4786C110.543 44.7071 110.587 44.9528 110.579 45.1994V47.6023C110.577 47.6277 110.581 47.6532 110.59 47.677C110.599 47.7009 110.613 47.7225 110.631 47.7405C110.649 47.7585 110.671 47.7725 110.695 47.7814C110.719 47.7904 110.744 47.7941 110.77 47.7924H111.47C111.495 47.7941 111.521 47.7904 111.545 47.7814C111.569 47.7725 111.591 47.7585 111.609 47.7405C111.627 47.7225 111.641 47.7009 111.65 47.677C111.659 47.6532 111.663 47.6277 111.661 47.6023V45.1994C111.675 44.584 111.479 43.9819 111.106 43.4906C110.733 42.9992 110.204 42.6473 109.605 42.4917L109.603 42.4905ZM116.172 47.9802C116.566 47.9948 116.959 47.9276 117.326 47.7827C117.692 47.6379 118.024 47.4187 118.301 47.1391C118.577 46.8595 118.792 46.5257 118.931 46.159C119.07 45.7922 119.131 45.4007 119.109 45.0093V41.1112C119.117 40.7235 119.047 40.3382 118.903 39.9778C118.759 39.6174 118.544 39.2892 118.271 39.0123C117.998 38.7354 117.672 38.5155 117.312 38.3653C116.953 38.2152 116.566 38.1378 116.176 38.1378C115.786 38.1378 115.4 38.2152 115.04 38.3653C114.681 38.5155 114.355 38.7354 114.082 39.0123C113.809 39.2892 113.594 39.6174 113.45 39.9778C113.306 40.3382 113.236 40.7235 113.244 41.1112V45.0093C113.222 45.4004 113.282 45.7918 113.421 46.1584C113.56 46.525 113.774 46.8588 114.05 47.1385C114.326 47.4182 114.657 47.6376 115.023 47.7827C115.389 47.9278 115.782 47.9955 116.176 47.9813L116.172 47.9802ZM116.172 46.959C115.919 46.967 115.666 46.9209 115.432 46.8238C115.198 46.7268 114.987 46.581 114.814 46.3963C114.641 46.2116 114.51 45.9922 114.43 45.753C114.35 45.5137 114.322 45.2602 114.348 45.0093V41.1112C114.33 40.8617 114.364 40.6113 114.448 40.3755C114.532 40.1396 114.663 39.9235 114.835 39.7404C115.006 39.5574 115.214 39.4114 115.445 39.3116C115.675 39.2118 115.924 39.1603 116.176 39.1603C116.427 39.1603 116.676 39.2118 116.907 39.3116C117.138 39.4114 117.345 39.5574 117.517 39.7404C117.688 39.9235 117.82 40.1396 117.904 40.3755C117.987 40.6113 118.021 40.8617 118.003 41.1112V45.0093C118.03 45.2605 118.002 45.5144 117.921 45.7538C117.841 45.9933 117.709 46.2129 117.536 46.3976C117.363 46.5824 117.152 46.7281 116.917 46.825C116.683 46.9218 116.43 46.9675 116.176 46.959H116.172ZM125.638 38.517V42.3584H122.288V38.5182C122.29 38.4929 122.286 38.4675 122.277 38.4438C122.268 38.42 122.254 38.3984 122.236 38.3804C122.218 38.3625 122.197 38.3485 122.173 38.3395C122.149 38.3304 122.124 38.3265 122.098 38.3281H121.398C121.373 38.3264 121.347 38.3301 121.323 38.3391C121.299 38.348 121.277 38.362 121.259 38.38C121.241 38.398 121.227 38.4196 121.218 38.4435C121.209 38.4673 121.205 38.4928 121.207 38.5182V47.6023C121.205 47.6277 121.209 47.6532 121.218 47.677C121.227 47.7009 121.241 47.7225 121.259 47.7405C121.277 47.7585 121.299 47.7725 121.323 47.7814C121.347 47.7904 121.373 47.7941 121.398 47.7924H122.098C122.124 47.7939 122.149 47.7901 122.173 47.7811C122.197 47.772 122.218 47.7581 122.236 47.7401C122.254 47.7221 122.268 47.7005 122.277 47.6767C122.286 47.653 122.29 47.6276 122.288 47.6023V43.3866H125.64V47.6069C125.638 47.6322 125.642 47.6576 125.651 47.6814C125.66 47.7051 125.674 47.7267 125.692 47.7447C125.71 47.7627 125.732 47.7767 125.755 47.7857C125.779 47.7947 125.805 47.7986 125.83 47.797H126.53C126.556 47.7988 126.581 47.795 126.605 47.7861C126.629 47.7771 126.651 47.7632 126.669 47.7452C126.687 47.7272 126.701 47.7055 126.71 47.6817C126.719 47.6578 126.723 47.6323 126.721 47.6069V38.5182C126.723 38.4928 126.719 38.4673 126.71 38.4435C126.701 38.4196 126.687 38.398 126.669 38.38C126.651 38.362 126.629 38.348 126.605 38.3391C126.581 38.3301 126.556 38.3264 126.53 38.3281H125.83C125.805 38.3267 125.779 38.3307 125.756 38.3398C125.732 38.3489 125.711 38.3629 125.693 38.3809C125.675 38.3989 125.661 38.4204 125.652 38.4441C125.643 38.4677 125.64 38.493 125.641 38.5182L125.638 38.517ZM130.684 47.7901H131.384C131.41 47.7918 131.435 47.7881 131.459 47.7791C131.483 47.7702 131.505 47.7562 131.523 47.7382C131.541 47.7202 131.555 47.6986 131.564 47.6747C131.573 47.6509 131.577 47.6254 131.575 47.6V39.3701H133.675C133.7 39.3718 133.726 39.3681 133.75 39.3593C133.773 39.3504 133.795 39.3365 133.813 39.3187C133.831 39.3008 133.845 39.2793 133.854 39.2556C133.864 39.2319 133.867 39.2065 133.866 39.1812V38.5182C133.867 38.4928 133.864 38.4674 133.854 38.4437C133.845 38.4199 133.831 38.3984 133.813 38.3804C133.795 38.3624 133.773 38.3485 133.75 38.3395C133.726 38.3304 133.7 38.3266 133.675 38.3281H128.421C128.395 38.3266 128.369 38.3304 128.346 38.3395C128.322 38.3485 128.3 38.3624 128.282 38.3804C128.264 38.3984 128.25 38.4199 128.241 38.4437C128.232 38.4674 128.228 38.4928 128.229 38.5182V39.1812C128.228 39.2065 128.232 39.2319 128.241 39.2556C128.25 39.2793 128.264 39.3008 128.282 39.3187C128.3 39.3365 128.322 39.3504 128.346 39.3593C128.37 39.3681 128.395 39.3718 128.421 39.3701H130.497V47.6C130.495 47.6255 130.498 47.6511 130.507 47.6751C130.516 47.6991 130.53 47.7209 130.548 47.739C130.566 47.7571 130.588 47.7712 130.612 47.7802C130.636 47.7892 130.662 47.793 130.688 47.7912L130.684 47.7901ZM137.615 47.9605C138.004 47.9743 138.392 47.9074 138.753 47.7641C139.114 47.6208 139.442 47.4042 139.714 47.1281C139.986 46.8521 140.198 46.5226 140.335 46.1608C140.472 45.799 140.532 45.4128 140.51 45.0267V41.0683C140.533 40.6836 140.475 40.2983 140.34 39.9372C140.204 39.576 139.995 39.2469 139.724 38.9708C139.454 38.6948 139.128 38.4778 138.768 38.3338C138.409 38.1898 138.023 38.1219 137.635 38.1345C137.266 38.1286 136.899 38.1965 136.557 38.3342C136.215 38.4718 135.904 38.6765 135.643 38.9361C135.382 39.1956 135.176 39.5046 135.037 39.8448C134.899 40.1851 134.83 40.5495 134.836 40.9164C134.835 40.9417 134.839 40.967 134.848 40.9906C134.857 41.0143 134.871 41.0358 134.888 41.0538C134.906 41.0717 134.928 41.0857 134.952 41.0948C134.975 41.1039 135.001 41.1079 135.026 41.1065H135.726C135.843 41.1065 135.898 41.0486 135.917 40.9164C135.909 40.689 135.948 40.4624 136.031 40.2502C136.114 40.0381 136.239 39.8449 136.399 39.6823C136.559 39.5198 136.751 39.3912 136.963 39.3045C137.175 39.2177 137.402 39.1746 137.631 39.1777C137.878 39.1695 138.124 39.2138 138.353 39.3076C138.581 39.4014 138.787 39.5426 138.957 39.7217C139.126 39.9008 139.255 40.1138 139.335 40.3464C139.415 40.579 139.444 40.8259 139.421 41.0706V42.3004H137.582C137.209 42.2803 136.836 42.3358 136.486 42.4636C136.135 42.5915 135.815 42.7889 135.544 43.044C135.273 43.299 135.057 43.6062 134.91 43.9469C134.762 44.2876 134.686 44.6546 134.686 45.0256C134.666 45.4143 134.729 45.8028 134.869 46.1662C135.01 46.5296 135.225 46.86 135.501 47.1361C135.777 47.4122 136.108 47.628 136.472 47.7698C136.837 47.9115 137.228 47.9761 137.619 47.9593L137.615 47.9605ZM137.615 46.9173C137.364 46.9313 137.113 46.8915 136.878 46.8006C136.644 46.7096 136.432 46.5697 136.257 46.3902C136.082 46.2106 135.947 45.9957 135.863 45.7601C135.779 45.5245 135.746 45.2736 135.768 45.0244C135.766 44.7926 135.812 44.5629 135.903 44.3497C135.995 44.1366 136.13 43.9447 136.3 43.7862C136.471 43.6278 136.672 43.5062 136.892 43.4292C137.112 43.3522 137.346 43.3215 137.578 43.339H139.424V45.0244C139.449 45.2709 139.419 45.5196 139.339 45.7538C139.258 45.9881 139.127 46.2022 138.955 46.3818C138.784 46.5613 138.575 46.7021 138.344 46.7945C138.113 46.8869 137.864 46.9288 137.615 46.9173ZM146.108 42.4871L148.299 38.546C148.374 38.4127 148.279 38.3142 148.147 38.3142H147.347C147.299 38.312 147.252 38.3232 147.211 38.3466C147.17 38.37 147.136 38.4046 147.114 38.4463L144.981 42.3456H143.693V38.5182C143.695 38.4929 143.691 38.4675 143.682 38.4438C143.673 38.42 143.659 38.3984 143.641 38.3804C143.623 38.3625 143.602 38.3485 143.578 38.3395C143.554 38.3304 143.528 38.3265 143.503 38.3281H142.803C142.778 38.3266 142.752 38.3304 142.728 38.3395C142.704 38.3485 142.683 38.3624 142.664 38.3804C142.646 38.3984 142.632 38.4199 142.623 38.4437C142.614 38.4674 142.61 38.4928 142.612 38.5182V47.6023C142.61 47.6277 142.614 47.6531 142.623 47.6768C142.632 47.7006 142.646 47.7221 142.664 47.7401C142.683 47.7581 142.704 47.772 142.728 47.781C142.752 47.7901 142.778 47.7939 142.803 47.7924H143.503C143.528 47.7939 143.554 47.7901 143.578 47.7811C143.602 47.772 143.623 47.7581 143.641 47.7401C143.659 47.7221 143.673 47.7005 143.682 47.6767C143.691 47.653 143.695 47.6276 143.693 47.6023V43.4005H145.179C145.426 43.3793 145.675 43.4106 145.91 43.4922C146.144 43.5739 146.359 43.704 146.539 43.874C146.719 44.044 146.861 44.2501 146.955 44.4785C147.049 44.707 147.093 44.9527 147.084 45.1994V47.6023C147.083 47.6277 147.087 47.6532 147.096 47.677C147.105 47.7009 147.119 47.7225 147.137 47.7405C147.155 47.7585 147.177 47.7725 147.201 47.7814C147.225 47.7904 147.25 47.7941 147.276 47.7924H147.976C148.001 47.7939 148.027 47.7901 148.05 47.781C148.074 47.772 148.096 47.7581 148.114 47.7401C148.132 47.7221 148.146 47.7006 148.155 47.6768C148.164 47.6531 148.168 47.6277 148.167 47.6023V45.1994C148.181 44.5838 147.985 43.9816 147.612 43.4903C147.238 42.9989 146.709 42.647 146.109 42.4917L146.108 42.4871ZM151.555 47.7866H152.255C152.28 47.7883 152.306 47.7846 152.33 47.7756C152.354 47.7667 152.376 47.7527 152.394 47.7347C152.412 47.7167 152.426 47.6951 152.435 47.6712C152.444 47.6474 152.448 47.6219 152.446 47.5965V39.3667H154.545C154.571 39.3684 154.596 39.3646 154.62 39.3558C154.644 39.3469 154.666 39.3331 154.684 39.3152C154.702 39.2973 154.716 39.2758 154.725 39.2521C154.734 39.2284 154.738 39.203 154.736 39.1777V38.5182C154.738 38.4928 154.734 38.4673 154.725 38.4435C154.716 38.4196 154.702 38.398 154.684 38.38C154.666 38.362 154.644 38.348 154.62 38.3391C154.596 38.3301 154.571 38.3264 154.545 38.3281H149.291C149.266 38.3264 149.24 38.3301 149.216 38.3391C149.192 38.348 149.17 38.362 149.152 38.38C149.134 38.398 149.12 38.4196 149.111 38.4435C149.102 38.4673 149.098 38.4928 149.1 38.5182V39.1812C149.098 39.2065 149.102 39.2319 149.111 39.2556C149.12 39.2793 149.134 39.3008 149.152 39.3187C149.171 39.3365 149.192 39.3504 149.216 39.3593C149.24 39.3681 149.266 39.3718 149.291 39.3701H151.367V47.6C151.365 47.6255 151.369 47.6511 151.378 47.6751C151.387 47.6991 151.401 47.7209 151.419 47.739C151.437 47.7571 151.459 47.7712 151.483 47.7802C151.507 47.7892 151.533 47.793 151.558 47.7912L151.555 47.7866ZM160.679 38.5135V42.3549H157.329V38.5182C157.331 38.4928 157.327 38.4673 157.318 38.4435C157.309 38.4196 157.295 38.398 157.277 38.38C157.259 38.362 157.237 38.348 157.213 38.3391C157.189 38.3301 157.163 38.3264 157.138 38.3281H156.438C156.412 38.3264 156.387 38.3301 156.363 38.3391C156.339 38.348 156.317 38.362 156.299 38.38C156.281 38.398 156.267 38.4196 156.258 38.4435C156.249 38.4673 156.245 38.4928 156.247 38.5182V47.6023C156.245 47.6277 156.249 47.6532 156.258 47.677C156.267 47.7009 156.281 47.7225 156.299 47.7405C156.317 47.7585 156.339 47.7725 156.363 47.7814C156.387 47.7904 156.412 47.7941 156.438 47.7924H157.138C157.163 47.7941 157.189 47.7904 157.213 47.7814C157.237 47.7725 157.259 47.7585 157.277 47.7405C157.295 47.7225 157.309 47.7009 157.318 47.677C157.327 47.6532 157.331 47.6277 157.329 47.6023V43.3866H160.681V47.6069C160.679 47.6322 160.683 47.6576 160.692 47.6814C160.701 47.7051 160.715 47.7267 160.733 47.7447C160.751 47.7627 160.772 47.7767 160.796 47.7857C160.82 47.7947 160.846 47.7986 160.871 47.797H161.571C161.596 47.7986 161.622 47.7947 161.646 47.7857C161.67 47.7767 161.691 47.7627 161.709 47.7447C161.727 47.7267 161.741 47.7051 161.75 47.6814C161.759 47.6576 161.763 47.6322 161.761 47.6069V38.5182C161.763 38.4929 161.759 38.4675 161.75 38.4438C161.741 38.42 161.727 38.3984 161.709 38.3804C161.691 38.3625 161.67 38.3485 161.646 38.3395C161.622 38.3304 161.596 38.3265 161.571 38.3281H160.871C160.846 38.3267 160.82 38.3307 160.797 38.3398C160.773 38.3489 160.751 38.3629 160.734 38.3809C160.716 38.3989 160.702 38.4204 160.693 38.4441C160.684 38.4677 160.68 38.493 160.682 38.5182L160.679 38.5135ZM165.097 47.826H167.001C167.388 47.8415 167.775 47.7791 168.138 47.6424C168.5 47.5058 168.831 47.2977 169.111 47.0308C169.39 46.7638 169.613 46.4434 169.765 46.0889C169.917 45.7344 169.995 45.353 169.995 44.9676C169.995 44.5822 169.917 44.2008 169.765 43.8463C169.613 43.4918 169.39 43.1714 169.111 42.9044C168.831 42.6375 168.5 42.4294 168.138 42.2928C167.775 42.1561 167.388 42.0937 167.001 42.1092H165.327V38.5159C165.329 38.4906 165.325 38.4652 165.316 38.4414C165.308 38.4177 165.294 38.3961 165.276 38.3781C165.258 38.3601 165.236 38.3462 165.212 38.3371C165.188 38.3281 165.163 38.3242 165.137 38.3258H164.438C164.412 38.3241 164.386 38.3278 164.362 38.3368C164.338 38.3457 164.317 38.3597 164.298 38.3777C164.28 38.3957 164.266 38.4173 164.257 38.4412C164.248 38.465 164.245 38.4905 164.246 38.5159V46.9775C164.233 47.0922 164.246 47.2084 164.284 47.3175C164.322 47.4265 164.384 47.5257 164.466 47.6075C164.548 47.6894 164.647 47.7518 164.757 47.7903C164.867 47.8287 164.983 47.8421 165.099 47.8295L165.097 47.826ZM171.133 47.7878H171.833C171.858 47.7895 171.884 47.7857 171.908 47.7768C171.932 47.7678 171.954 47.7539 171.972 47.7359C171.99 47.7179 172.004 47.6962 172.013 47.6724C172.022 47.6486 172.026 47.6231 172.024 47.5977V38.5182C172.026 38.4928 172.022 38.4673 172.013 38.4435C172.004 38.4196 171.99 38.398 171.972 38.38C171.954 38.362 171.932 38.348 171.908 38.3391C171.884 38.3301 171.858 38.3264 171.833 38.3281H171.133C171.108 38.3266 171.082 38.3304 171.058 38.3395C171.034 38.3485 171.013 38.3624 170.995 38.3804C170.976 38.3984 170.962 38.4199 170.953 38.4437C170.944 38.4674 170.94 38.4928 170.942 38.5182V47.6023C170.94 47.6279 170.945 47.6535 170.954 47.6773C170.963 47.7012 170.978 47.7228 170.996 47.7407C171.015 47.7586 171.037 47.7724 171.061 47.7811C171.085 47.7898 171.111 47.7933 171.137 47.7912L171.133 47.7878ZM165.325 46.7851V43.1547H167.001C167.248 43.1336 167.497 43.1649 167.732 43.2464C167.966 43.328 168.18 43.458 168.36 43.6279C168.54 43.7978 168.682 44.0037 168.776 44.2321C168.87 44.4604 168.914 44.706 168.906 44.9525C168.916 45.2014 168.874 45.4498 168.782 45.6813C168.689 45.9127 168.548 46.1221 168.368 46.2955C168.188 46.469 167.973 46.6026 167.738 46.6876C167.502 46.7726 167.251 46.807 167.001 46.7886L165.325 46.7851ZM176.981 47.9582C177.371 47.9652 177.759 47.8924 178.119 47.7442C178.48 47.5961 178.806 47.3759 179.078 47.0971C179.349 46.8184 179.56 46.4872 179.697 46.124C179.835 45.7609 179.895 45.3736 179.876 44.9861C179.877 44.9609 179.874 44.9356 179.865 44.9119C179.856 44.8882 179.842 44.8666 179.824 44.8488C179.806 44.8309 179.784 44.817 179.76 44.8081C179.736 44.7992 179.711 44.7955 179.685 44.7972H178.986C178.96 44.7938 178.934 44.7963 178.909 44.8046C178.884 44.8129 178.862 44.8267 178.843 44.8449C178.825 44.8632 178.811 44.8854 178.802 44.9099C178.794 44.9344 178.791 44.9605 178.794 44.9861C178.813 45.2332 178.78 45.4814 178.697 45.7151C178.615 45.9489 178.484 46.1632 178.314 46.3445C178.145 46.5258 177.939 46.6703 177.71 46.7688C177.482 46.8674 177.235 46.9179 176.986 46.9173C176.733 46.9266 176.481 46.882 176.248 46.7867C176.014 46.6914 175.803 46.5474 175.63 46.3645C175.457 46.1816 175.325 45.9639 175.243 45.7262C175.162 45.4885 175.132 45.2361 175.157 44.9861V43.827H176.986C177.364 43.8516 177.742 43.798 178.098 43.6695C178.455 43.5411 178.78 43.3406 179.054 43.0808C179.328 42.8209 179.545 42.5074 179.691 42.16C179.836 41.8126 179.908 41.4389 179.901 41.0625C179.891 40.2939 179.574 39.5608 179.02 39.0244C178.467 38.4881 177.721 38.1923 176.948 38.2023C176.174 38.2123 175.437 38.5272 174.897 39.0777C174.357 39.6282 174.06 40.3693 174.07 41.1378V44.9792C174.039 45.3711 174.093 45.765 174.228 46.1347C174.362 46.5044 174.574 46.8414 174.85 47.1234C175.125 47.4055 175.458 47.6261 175.826 47.7706C176.194 47.9151 176.588 47.9802 176.983 47.9616L176.981 47.9582ZM175.152 42.7908V41.1436C175.134 40.8973 175.166 40.6498 175.248 40.4163C175.329 40.1828 175.457 39.9682 175.624 39.7855C175.791 39.6028 175.994 39.4559 176.221 39.3537C176.447 39.2515 176.692 39.1962 176.94 39.191C177.189 39.1859 177.436 39.2311 177.666 39.3239C177.896 39.4167 178.105 39.5551 178.28 39.7308C178.455 39.9064 178.592 40.1156 178.683 40.3455C178.774 40.5755 178.816 40.8214 178.808 41.0683C178.818 41.3051 178.776 41.5412 178.686 41.7607C178.596 41.9802 178.46 42.1781 178.287 42.3411C178.113 42.5042 177.907 42.6286 177.682 42.7062C177.457 42.7837 177.217 42.8125 176.98 42.7908H175.152ZM88.2002 53.7631H84.39C84.2742 53.7497 84.1568 53.7626 84.0467 53.8007C83.9366 53.8388 83.8366 53.9011 83.7541 53.9831C83.6717 54.065 83.6089 54.1644 83.5706 54.2739C83.5323 54.3833 83.5193 54.5 83.5328 54.6151V63.0373C83.5312 63.0627 83.5351 63.0881 83.5442 63.1118C83.5533 63.1356 83.5673 63.1571 83.5854 63.1751C83.6035 63.1931 83.6252 63.207 83.6491 63.216C83.673 63.2251 83.6985 63.2289 83.724 63.2274H84.4238C84.4493 63.2289 84.4748 63.2251 84.4986 63.2161C84.5225 63.207 84.5441 63.1931 84.5621 63.1751C84.5801 63.1571 84.594 63.1355 84.6029 63.1118C84.6119 63.088 84.6156 63.0626 84.6139 63.0373V54.8075H87.9705V63.0373C87.9689 63.0627 87.9728 63.0881 87.9819 63.1118C87.991 63.1356 88.005 63.1571 88.0231 63.1751C88.0412 63.1931 88.0629 63.207 88.0868 63.216C88.1107 63.2251 88.1362 63.2289 88.1617 63.2274H88.8615C88.887 63.2289 88.9126 63.2251 88.9365 63.216C88.9604 63.207 88.9821 63.1931 89.0002 63.1751C89.0182 63.1571 89.0323 63.1356 89.0413 63.1118C89.0504 63.0881 89.0543 63.0627 89.0528 63.0373V54.6151C89.0661 54.5004 89.0532 54.3842 89.0152 54.2751C88.9771 54.1661 88.9148 54.0669 88.8329 53.9851C88.751 53.9032 88.6516 53.8408 88.542 53.8023C88.4325 53.7639 88.3157 53.7505 88.2002 53.7631ZM90.3707 63.2263C91.7236 63.1312 92.505 62.0335 92.505 60.3284V56.5612C92.4957 56.3146 92.5394 56.0689 92.6331 55.8403C92.7268 55.6118 92.8684 55.4057 93.0484 55.2357C93.2285 55.0658 93.4429 54.9359 93.6773 54.8546C93.9118 54.7734 94.161 54.7427 94.4083 54.7646H95.7041V63.035C95.7025 63.0604 95.7064 63.0858 95.7155 63.1095C95.7246 63.1333 95.7386 63.1548 95.7567 63.1728C95.7748 63.1908 95.7965 63.2047 95.8204 63.2137C95.8443 63.2227 95.8698 63.2266 95.8953 63.2251H96.5951C96.6206 63.2266 96.6462 63.2227 96.6701 63.2137C96.694 63.2047 96.7157 63.1908 96.7338 63.1728C96.7518 63.1548 96.7659 63.1333 96.7749 63.1095C96.784 63.0858 96.7879 63.0604 96.7864 63.035V54.5733C96.7998 54.4583 96.7869 54.3418 96.7486 54.2325C96.7103 54.1231 96.6477 54.0238 96.5654 53.9418C96.4831 53.8599 96.3832 53.7975 96.2733 53.7594C96.1633 53.7212 96.0461 53.7082 95.9303 53.7214H94.4072C94.02 53.6993 93.6325 53.7565 93.2685 53.8896C92.9046 54.0227 92.5722 54.2288 92.2918 54.495C92.0114 54.7613 91.7892 55.082 91.6389 55.4373C91.4885 55.7925 91.4134 56.1747 91.418 56.5601V60.3273C91.418 61.4632 91.018 62.066 90.3683 62.1633C90.3418 62.1636 90.3156 62.1692 90.2913 62.18C90.267 62.1907 90.2453 62.2063 90.2273 62.2258C90.2094 62.2452 90.1957 62.2681 90.187 62.2931C90.1784 62.3181 90.175 62.3445 90.1771 62.3708V63.0338C90.1752 63.0595 90.1788 63.0852 90.1878 63.1094C90.1968 63.1335 90.2109 63.1554 90.2291 63.1737C90.2474 63.1919 90.2694 63.206 90.2936 63.2151C90.3178 63.2242 90.3437 63.228 90.3695 63.2263H90.3707ZM101.684 63.3967C102.072 63.4105 102.46 63.3436 102.821 63.2002C103.182 63.0569 103.51 62.8403 103.782 62.5643C104.054 62.2882 104.266 61.9588 104.403 61.597C104.54 61.2352 104.6 60.8489 104.578 60.4629V56.5056C104.601 56.1209 104.543 55.7358 104.407 55.3747C104.272 55.0137 104.062 54.6846 103.792 54.4086C103.521 54.1325 103.196 53.9155 102.836 53.7715C102.477 53.6274 102.091 53.5594 101.703 53.5718C101.334 53.5659 100.968 53.6338 100.625 53.7715C100.283 53.9092 99.9719 54.1139 99.7108 54.3734C99.4497 54.6329 99.2437 54.942 99.1052 55.2822C98.9667 55.6224 98.8983 55.9868 98.9043 56.3538C98.9026 56.3791 98.9064 56.4044 98.9153 56.4282C98.9242 56.4519 98.9382 56.4735 98.9562 56.4915C98.9741 56.5095 98.9958 56.5235 99.0196 56.5325C99.0435 56.5415 99.069 56.5454 99.0944 56.5439H99.7942C99.9108 56.5439 99.9657 56.4871 99.9855 56.3538C99.9776 56.1264 100.016 55.8997 100.099 55.6876C100.182 55.4754 100.307 55.2822 100.467 55.1197C100.628 54.9571 100.819 54.8285 101.031 54.7418C101.243 54.6551 101.47 54.6119 101.699 54.6151C101.946 54.6069 102.192 54.6511 102.42 54.7449C102.649 54.8386 102.855 54.9797 103.024 55.1587C103.194 55.3376 103.323 55.5505 103.403 55.7829C103.483 56.0154 103.512 56.2621 103.489 56.5068V57.7378H101.645C101.272 57.7174 100.899 57.7729 100.549 57.9006C100.199 58.0284 99.8781 58.2258 99.6071 58.4809C99.336 58.736 99.1202 59.0433 98.9727 59.3841C98.8252 59.7248 98.7491 60.0919 98.7492 60.4629C98.7297 60.8517 98.7921 61.2403 98.9323 61.6038C99.0725 61.9673 99.2876 62.2977 99.5637 62.5738C99.8398 62.85 100.171 63.0658 100.536 63.2075C100.901 63.3491 101.291 63.4136 101.682 63.3967H101.684ZM101.684 62.3534C101.432 62.3685 101.181 62.3294 100.946 62.2388C100.711 62.1483 100.499 62.0084 100.323 61.8288C100.148 61.6492 100.013 61.4341 99.9294 61.1982C99.8454 60.9622 99.8136 60.711 99.8362 60.4617C99.8338 60.2299 99.8798 60.0002 99.9714 59.7871C100.063 59.5739 100.198 59.382 100.368 59.2236C100.539 59.0651 100.74 58.9435 100.96 58.8665C101.18 58.7895 101.414 58.7588 101.646 58.7763H103.491V60.4617C103.516 60.7081 103.486 60.9569 103.405 61.191C103.325 61.4252 103.194 61.6393 103.022 61.8188C102.851 61.9982 102.642 62.1389 102.411 62.2311C102.18 62.3234 101.931 62.3651 101.682 62.3534H101.684ZM107.853 63.2251H108.553C108.578 63.2266 108.604 63.2227 108.628 63.2137C108.652 63.2047 108.674 63.1908 108.692 63.1728C108.71 63.1548 108.724 63.1333 108.733 63.1095C108.742 63.0858 108.746 63.0604 108.744 63.035V54.8052H110.844C110.869 54.8067 110.894 54.8028 110.918 54.7939C110.942 54.7849 110.963 54.7711 110.981 54.7532C110.999 54.7353 111.013 54.7139 111.022 54.6903C111.031 54.6667 111.035 54.6414 111.034 54.6162V53.9532C111.035 53.928 111.031 53.9027 111.022 53.8791C111.013 53.8555 110.999 53.8341 110.981 53.8162C110.963 53.7984 110.942 53.7845 110.918 53.7755C110.894 53.7666 110.869 53.7627 110.844 53.7643H105.587C105.562 53.7626 105.536 53.7663 105.512 53.7752C105.488 53.784 105.467 53.7979 105.449 53.8158C105.43 53.8336 105.416 53.8551 105.407 53.8788C105.398 53.9025 105.394 53.9279 105.396 53.9532V54.6162C105.394 54.6415 105.398 54.6669 105.407 54.6906C105.416 54.7143 105.43 54.7358 105.449 54.7537C105.467 54.7715 105.488 54.7854 105.512 54.7943C105.536 54.8031 105.562 54.8069 105.587 54.8052H107.663V63.035C107.661 63.0602 107.665 63.0856 107.674 63.1093C107.683 63.133 107.697 63.1546 107.714 63.1727C107.732 63.1907 107.754 63.2048 107.777 63.2141C107.801 63.2233 107.827 63.2275 107.852 63.2263L107.853 63.2251ZM114.767 63.3955C115.157 63.4023 115.545 63.3294 115.905 63.1812C116.266 63.033 116.592 62.8128 116.863 62.5341C117.135 62.2554 117.346 61.9242 117.483 61.5612C117.62 61.1981 117.681 60.8109 117.662 60.4235C117.663 60.3982 117.66 60.3728 117.651 60.3491C117.642 60.3253 117.628 60.3037 117.61 60.2857C117.592 60.2677 117.57 60.2538 117.546 60.2447C117.522 60.2357 117.497 60.2318 117.472 60.2334H116.772C116.746 60.2302 116.72 60.2329 116.695 60.2413C116.67 60.2497 116.648 60.2637 116.629 60.282C116.611 60.3003 116.597 60.3226 116.588 60.3471C116.58 60.3716 116.577 60.3978 116.58 60.4235C116.599 60.6705 116.566 60.9186 116.483 61.1523C116.401 61.386 116.27 61.6002 116.1 61.7814C115.931 61.9626 115.725 62.107 115.496 62.2055C115.267 62.3039 115.021 62.3543 114.772 62.3534C114.519 62.3635 114.267 62.3197 114.033 62.225C113.799 62.1302 113.587 61.9867 113.414 61.804C113.24 61.6214 113.108 61.4039 113.026 61.1661C112.944 60.9284 112.914 60.676 112.938 60.4258V59.2667H114.769C115.147 59.2913 115.526 59.2376 115.882 59.1092C116.238 58.9807 116.564 58.7802 116.838 58.5204C117.112 58.2606 117.328 57.947 117.474 57.5996C117.62 57.2522 117.692 56.8785 117.685 56.5021C117.675 55.7336 117.358 55.0005 116.804 54.4641C116.25 53.9277 115.505 53.632 114.731 53.642C113.958 53.652 113.22 53.9668 112.681 54.5174C112.141 55.0679 111.843 55.8089 111.854 56.5775V60.4258C111.825 60.817 111.88 61.2098 112.015 61.5782C112.151 61.9467 112.363 62.2824 112.639 62.5632C112.914 62.844 113.247 63.0634 113.614 63.2071C113.981 63.3508 114.375 63.4154 114.769 63.3967L114.767 63.3955ZM112.937 58.2234V56.5763C112.919 56.33 112.951 56.0825 113.032 55.849C113.114 55.6155 113.242 55.4009 113.409 55.2182C113.576 55.0355 113.779 54.8886 114.006 54.7864C114.232 54.6842 114.477 54.6288 114.725 54.6237C114.974 54.6186 115.221 54.6638 115.451 54.7566C115.681 54.8494 115.89 54.9878 116.065 55.1635C116.24 55.3391 116.377 55.5483 116.468 55.7782C116.558 56.0082 116.601 56.2541 116.593 56.501C116.602 56.7374 116.561 56.973 116.471 57.1922C116.381 57.4113 116.246 57.609 116.073 57.7719C115.9 57.9349 115.695 58.0594 115.47 58.1373C115.245 58.2152 115.006 58.2445 114.769 58.2234H112.937ZM119.235 63.2205H119.935C119.96 63.222 119.986 63.2181 120.01 63.2091C120.033 63.2001 120.055 63.1861 120.073 63.1681C120.091 63.1501 120.105 63.1285 120.114 63.1048C120.123 63.081 120.126 63.0557 120.125 63.0304V60.6263C120.116 60.3798 120.161 60.1343 120.255 59.9061C120.349 59.6778 120.491 59.472 120.671 59.3021C120.851 59.1323 121.065 59.0022 121.299 58.9206C121.533 58.8389 121.782 58.8076 122.029 58.8285H123.325V63.0304C123.324 63.0556 123.327 63.0809 123.336 63.1046C123.345 63.1282 123.359 63.1498 123.377 63.1677C123.395 63.1856 123.417 63.1996 123.441 63.2087C123.464 63.2178 123.49 63.2218 123.515 63.2205H124.215C124.24 63.222 124.266 63.2181 124.29 63.2091C124.314 63.2001 124.335 63.1861 124.353 63.1681C124.371 63.1501 124.385 63.1285 124.394 63.1048C124.403 63.081 124.407 63.0557 124.405 63.0304V58.8285H125.701C125.948 58.8076 126.197 58.8389 126.431 58.9206C126.665 59.0022 126.88 59.1323 127.059 59.3021C127.239 59.472 127.381 59.6778 127.475 59.9061C127.569 60.1343 127.614 60.3798 127.605 60.6263V63.0304C127.604 63.0557 127.608 63.0811 127.617 63.1049C127.626 63.1286 127.64 63.1502 127.658 63.1682C127.676 63.1861 127.698 63.2001 127.722 63.2091C127.746 63.2181 127.771 63.222 127.797 63.2205H128.496C128.522 63.222 128.547 63.2181 128.571 63.2091C128.595 63.2001 128.617 63.1861 128.635 63.1682C128.653 63.1502 128.667 63.1286 128.676 63.1049C128.685 63.0811 128.689 63.0557 128.688 63.0304V60.6263C128.701 60.011 128.506 59.4091 128.133 58.9179C127.76 58.4268 127.231 58.0751 126.631 57.9197L128.84 53.9787C128.917 53.8466 128.821 53.7469 128.689 53.7469H127.89C127.842 53.7423 127.794 53.7526 127.752 53.7762C127.71 53.7999 127.677 53.8358 127.657 53.879L125.505 57.7783H124.4V53.9358C124.402 53.9106 124.398 53.8852 124.389 53.8615C124.38 53.8378 124.367 53.8163 124.349 53.7984C124.331 53.7805 124.309 53.7666 124.285 53.7578C124.261 53.7489 124.236 53.7452 124.21 53.7469H123.51C123.485 53.7453 123.46 53.7492 123.436 53.7582C123.412 53.7671 123.391 53.781 123.373 53.7988C123.355 53.8167 123.341 53.8381 123.332 53.8617C123.323 53.8854 123.319 53.9106 123.32 53.9358V57.7783H122.233L120.082 53.879C120.061 53.8358 120.028 53.7999 119.986 53.7762C119.944 53.7526 119.896 53.7423 119.848 53.7469H119.048C118.915 53.7469 118.815 53.8419 118.897 53.9787L121.106 57.9197C120.507 58.0753 119.978 58.427 119.605 58.9181C119.232 59.4093 119.036 60.0111 119.049 60.6263V63.0304C119.048 63.0557 119.052 63.0811 119.061 63.1049C119.07 63.1286 119.084 63.1502 119.102 63.1682C119.12 63.1861 119.142 63.2001 119.166 63.2091C119.19 63.2181 119.215 63.222 119.241 63.2205H119.235ZM133.464 63.2575H135.179C135.295 63.2709 135.412 63.2581 135.522 63.22C135.632 63.1819 135.732 63.1195 135.815 63.0376C135.897 62.9556 135.96 62.8562 135.998 62.7467C136.036 62.6373 136.049 62.5206 136.035 62.4056V53.9439C136.037 53.9187 136.033 53.8933 136.024 53.8696C136.015 53.8459 136.001 53.8244 135.983 53.8065C135.965 53.7886 135.944 53.7748 135.92 53.7659C135.896 53.757 135.87 53.7533 135.845 53.755H135.145C135.12 53.7535 135.095 53.7573 135.071 53.7663C135.047 53.7752 135.025 53.7891 135.007 53.8069C134.99 53.8248 134.976 53.8462 134.967 53.8699C134.958 53.8935 134.954 53.9187 134.955 53.9439V62.2155H133.467C133.22 62.2373 132.972 62.2068 132.738 62.126C132.504 62.0451 132.29 61.9158 132.11 61.7467C131.93 61.5775 131.788 61.3722 131.694 61.1445C131.6 60.9168 131.555 60.6718 131.564 60.4258V53.952C131.565 53.9267 131.561 53.9014 131.552 53.8777C131.543 53.854 131.529 53.8325 131.511 53.8146C131.493 53.7967 131.471 53.7829 131.447 53.774C131.423 53.7651 131.398 53.7614 131.372 53.7631H130.673C130.647 53.7616 130.622 53.7654 130.598 53.7744C130.574 53.7833 130.553 53.7972 130.535 53.8151C130.517 53.8329 130.503 53.8544 130.494 53.878C130.485 53.9016 130.481 53.9268 130.483 53.952V60.4258C130.478 60.8107 130.553 61.1923 130.703 61.5471C130.853 61.9019 131.075 62.2223 131.355 62.4883C131.635 62.7544 131.967 62.9604 132.33 63.0938C132.693 63.2271 133.08 63.2848 133.467 63.2633L133.464 63.2575Z" fill="#A89EDC"/>
<defs>
<linearGradient id="paint0_linear_1_9860" x1="84.4475" y1="85.61" x2="-5.58805" y2="-14.061" gradientUnits="userSpaceOnUse">
<stop stop-color="#FFDE4A"/>
<stop offset="0.29" stop-color="#F56D6D"/>
<stop offset="0.561" stop-color="#C47DE3"/>
<stop offset="0.78" stop-color="#47B2FF"/>
<stop offset="1" stop-color="#67E2EB"/>
</linearGradient>
</defs>
</svg>
