<svg width="20" height="20" viewBox="0 0 20 20" fill="none" xmlns="http://www.w3.org/2000/svg">
<g clip-path="url(#clip0_1_12058)">
<path d="M0.641667 12.5C0.450833 12.5 0.279167 12.3683 0.235833 12.175C0.0791667 11.4817 0 10.75 0 10C0 4.48583 4.48583 0 10 0C13.1667 0 16.1742 1.525 18.0442 4.07917C18.18 4.265 18.14 4.52583 17.9542 4.66167C17.7683 4.79833 17.5067 4.75667 17.3717 4.57167C15.6583 2.23083 12.9017 0.833333 10 0.833333C4.94583 0.833333 0.833333 4.94583 0.833333 10C0.833333 10.6892 0.905833 11.3592 1.04833 11.9917C1.09917 12.2167 0.958333 12.4392 0.733333 12.49C0.7025 12.4967 0.671667 12.5 0.641667 12.5Z" fill="#FF4A76"/>
<path d="M9.99969 20.0001C6.83302 20.0001 3.82552 18.4751 1.95552 15.9209C1.81969 15.7351 1.85969 15.4742 2.04552 15.3384C2.23052 15.2009 2.49219 15.2417 2.62802 15.4284C4.34135 17.7692 7.09802 19.1667 9.99969 19.1667C15.0539 19.1667 19.1664 15.0542 19.1664 10.0001C19.1664 9.30172 19.0922 8.63256 18.9447 8.01339C18.8914 7.78922 19.0297 7.56422 19.2539 7.51172C19.4797 7.45672 19.703 7.59672 19.7555 7.82089C19.9172 8.50339 19.9997 9.23672 19.9997 10.0001C19.9997 15.5142 15.5139 20.0001 9.99969 20.0001Z" fill="#FF4A76"/>
<path d="M2.12537 18.3333C1.89871 18.3333 1.71287 18.1517 1.70871 17.9233L1.66704 15.4233C1.66537 15.3117 1.70787 15.2042 1.78704 15.1242C1.86454 15.045 1.97204 15 2.08371 15H4.58371C4.81371 15 5.00037 15.1867 5.00037 15.4167C5.00037 15.6467 4.81371 15.8333 4.58371 15.8333H2.50704L2.54204 17.91C2.54621 18.14 2.36287 18.3292 2.13287 18.3333C2.13037 18.3333 2.12787 18.3333 2.12537 18.3333Z" fill="#FF4A76"/>
<path d="M17.9167 5.00008H15.4167C15.1867 5.00008 15 4.81341 15 4.58341C15 4.35341 15.1867 4.16675 15.4167 4.16675H17.5V2.08341C17.5 1.85341 17.6867 1.66675 17.9167 1.66675C18.1467 1.66675 18.3333 1.85341 18.3333 2.08341V4.58341C18.3333 4.81341 18.1467 5.00008 17.9167 5.00008Z" fill="#FF4A76"/>
<path d="M8.49059 14C8.22491 14 7.97011 13.8946 7.78225 13.7071C7.59438 13.5196 7.48884 13.2652 7.48884 13C7.48884 12.7348 7.59438 12.4804 7.78225 12.2929C7.97011 12.1054 8.22491 12 8.49059 12C8.75627 12 9.01107 12.1054 9.19894 12.2929C9.3868 12.4804 9.49234 12.7348 9.49234 13C9.49234 13.2652 9.3868 13.5196 9.19894 13.7071C9.01107 13.8946 8.75627 14 8.49059 14ZM11.9967 14C11.731 14 11.4762 13.8946 11.2884 13.7071C11.1005 13.5196 10.995 13.2652 10.995 13C10.995 12.7348 11.1005 12.4804 11.2884 12.2929C11.4762 12.1054 11.731 12 11.9967 12C12.2624 12 12.5172 12.1054 12.7051 12.2929C12.8929 12.4804 12.9985 12.7348 12.9985 13C12.9985 13.2652 12.8929 13.5196 12.7051 13.7071C12.5172 13.8946 12.2624 14 11.9967 14ZM5.46631 6.9615C5.34127 6.95747 5.2227 6.90506 5.13568 6.81534C5.04866 6.72562 5 6.60563 5 6.48075C5 6.35587 5.04866 6.23588 5.13568 6.14616C5.2227 6.05644 5.34127 6.00403 5.46631 6H6.04282C6.4946 6 6.88529 6.313 6.98346 6.753L7.61106 9.574C7.70923 10.014 8.09991 10.327 8.5517 10.327H12.3143L13.0365 7.442H8.35586C8.232 7.43636 8.11508 7.38327 8.02943 7.29378C7.94378 7.20428 7.89598 7.08527 7.89598 6.9615C7.89598 6.83773 7.94378 6.71872 8.02943 6.62922C8.11508 6.53973 8.232 6.48664 8.35586 6.481H13.0365C13.183 6.48096 13.3275 6.51424 13.4591 6.57832C13.5907 6.64239 13.7059 6.73558 13.796 6.85079C13.8861 6.966 13.9487 7.10021 13.9791 7.2432C14.0094 7.38619 14.0067 7.53421 13.9712 7.676L13.2489 10.56C13.1968 10.7681 13.0766 10.9528 12.9072 11.0848C12.7378 11.2168 12.5291 11.2885 12.3143 11.2885H8.5517C8.11333 11.2886 7.68805 11.1394 7.3461 10.8656C7.00415 10.5917 6.76597 10.2097 6.67091 9.7825L6.04282 6.9615H5.46631Z" fill="#FF4A76"/>
</g>
<defs>
<clipPath id="clip0_1_12058">
<rect width="20" height="20" fill="white"/>
</clipPath>
</defs>
</svg>
