<svg width="24" height="24" viewBox="0 0 24 24" fill="none" xmlns="http://www.w3.org/2000/svg">
<g clip-path="url(#clip0_1_10977)">
<path d="M23.67 0.33507C23.2303 -0.10518 22.5169 -0.10518 22.0772 0.33507L0.338836 22.0734C-0.101227 22.5133 -0.101227 23.2262 0.338836 23.6661C0.558773 23.8862 0.847148 23.9963 1.13534 23.9963C1.42352 23.9963 1.7119 23.8862 1.93165 23.6661L23.67 1.9277C24.1101 1.48782 24.1101 0.774945 23.67 0.33507Z" fill="white"/>
<path d="M5.3505 0.0126953C2.40038 0.0126953 0 2.41326 0 5.36338C0 8.31351 2.40038 10.7139 5.3505 10.7139C8.30081 10.7139 10.701 8.31332 10.701 5.3632C10.701 2.41307 8.30063 0.0126953 5.3505 0.0126953ZM5.3505 8.46088C3.64238 8.46088 2.25281 7.07113 2.25281 5.3632C2.25281 3.65526 3.64256 2.26551 5.3505 2.26551C7.05863 2.26551 8.44819 3.65526 8.44819 5.3632C8.44819 7.07113 7.05863 8.46088 5.3505 8.46088Z" fill="white"/>
<path d="M18.6493 13.2935C15.6992 13.2935 13.2988 15.6938 13.2988 18.644C13.2988 21.5941 15.6992 23.9945 18.6493 23.9945C21.5995 23.9945 23.9998 21.5943 23.9998 18.644C23.9998 15.6936 21.5995 13.2935 18.6493 13.2935ZM18.6493 21.7415C16.9412 21.7415 15.5516 20.3517 15.5516 18.6438C15.5516 16.9358 16.9414 15.5461 18.6493 15.5461C20.3573 15.5461 21.747 16.9358 21.747 18.6438C21.747 20.3517 20.3575 21.7415 18.6493 21.7415Z" fill="white"/>
</g>
<defs>
<clipPath id="clip0_1_10977">
<rect width="24" height="24" fill="white"/>
</clipPath>
</defs>
</svg>
