<svg width="17" height="17" viewBox="0 0 17 17" fill="none" xmlns="http://www.w3.org/2000/svg">
<g clip-path="url(#clip0_1_11233)">
<path d="M15.0526 16.9999H1.94886C0.874342 16.9999 0.000976562 16.1266 0.000976562 15.052V9.03147C0.000976562 8.73823 0.238967 8.50024 0.532207 8.50024C0.825447 8.50024 1.06344 8.73823 1.06344 9.03147V15.052C1.06344 15.5401 1.46082 15.9375 1.94886 15.9375H15.0526C15.5406 15.9375 15.9379 15.5401 15.9379 15.052V4.78163C15.9379 4.29359 15.5406 3.8962 15.0526 3.8962H12.5735C12.2802 3.8962 12.0422 3.65821 12.0422 3.36497C12.0422 3.07173 12.2802 2.83374 12.5735 2.83374H15.0526C16.1271 2.83374 17.0003 3.70711 17.0003 4.78163V15.052C17.0003 16.1266 16.1271 16.9999 15.0526 16.9999Z" fill="#999999"/>
<path d="M12.2188 11.3335C12.0227 11.3335 11.8377 11.2244 11.7456 11.0439L11.7364 11.0261C10.7384 9.0301 8.73605 7.79203 6.50842 7.79203H5.66695V10.094C5.66695 10.3107 5.53518 10.5055 5.33403 10.587C5.13508 10.6684 4.90344 10.6189 4.75325 10.4623L0.149216 5.68125C-0.0490876 5.47581 -0.0490876 5.15002 0.149216 4.94458L4.75325 0.163509C4.90266 0.00631851 5.13365 -0.0425764 5.33403 0.038872C5.53518 0.12032 5.66695 0.315122 5.66695 0.531842V2.8338H5.84399C9.65196 2.8338 12.75 5.93195 12.75 9.73979V10.8023C12.75 11.048 12.5822 11.2612 12.3427 11.3187C12.3016 11.3286 12.2599 11.3335 12.2188 11.3335ZM5.13572 6.72957H6.50842C8.50805 6.72957 10.3545 7.57311 11.6429 9.01091C11.2831 6.13168 8.81958 3.89626 5.84399 3.89626H5.13572C4.84248 3.89626 4.60449 3.65827 4.60449 3.36503V1.84928L1.26913 5.31291L4.60449 8.77655V7.2608C4.60449 6.96756 4.84248 6.72957 5.13572 6.72957Z" fill="#999999"/>
</g>
<defs>
<clipPath id="clip0_1_11233">
<rect width="17" height="17" fill="white"/>
</clipPath>
</defs>
</svg>
