<svg width="41" height="32" viewBox="0 0 41 32" fill="none" xmlns="http://www.w3.org/2000/svg">
<path d="M0 32L40.537 26.594V0L0 5.406V32ZM2.1 7.241L38.44 2.4V24.759L2.1 29.6V7.241Z" fill="#F43E36"/>
<path d="M5.51958 15.397C5.87017 15.5722 6.23909 15.708 6.61958 15.802C6.90907 15.8658 7.20725 15.8803 7.50158 15.845C7.75782 15.82 8.00116 15.7206 8.20158 15.559C8.28197 15.4971 8.34731 15.4178 8.39269 15.327C8.43806 15.2363 8.4623 15.1364 8.46358 15.035C8.46358 14.749 8.15358 14.468 7.52958 14.196C7.42958 14.153 7.35358 14.115 7.29558 14.096L6.82358 13.896C6.4222 13.7409 6.06869 13.4829 5.79858 13.148C5.57108 12.8374 5.45356 12.4598 5.46458 12.075C5.46408 11.7987 5.52058 11.5253 5.63052 11.2719C5.74047 11.0184 5.90151 10.7904 6.10358 10.602C6.55284 10.171 7.13324 9.90243 7.75258 9.83899C8.02112 9.80416 8.29245 9.79612 8.56258 9.81499C8.88791 9.83983 9.21127 9.88593 9.53058 9.95299V11.598C9.22336 11.4434 8.90054 11.3221 8.56758 11.236C8.31692 11.1645 8.05509 11.1404 7.79558 11.165C7.59116 11.185 7.39712 11.2646 7.23758 11.394C7.17347 11.4475 7.12221 11.5147 7.08759 11.5907C7.05297 11.6667 7.03588 11.7495 7.03758 11.833C7.03561 11.952 7.07803 12.0675 7.15658 12.157C7.25621 12.2656 7.38031 12.3489 7.51858 12.4L8.33858 12.743C8.86094 12.923 9.33533 13.2199 9.72558 13.611C9.97137 13.9237 10.0982 14.3135 10.0836 14.711C10.0895 15.0345 10.0306 15.3559 9.91036 15.6562C9.79014 15.9566 9.61104 16.2299 9.38358 16.46C8.88526 16.9583 8.23055 17.2697 7.52958 17.342C7.24655 17.3753 6.96134 17.3864 6.67658 17.375C6.33733 17.3577 5.99958 17.3179 5.66558 17.256L5.51958 15.397ZM13.4806 10.587L13.2516 10.62V12.489L13.5516 12.446C13.9042 12.4179 14.2408 12.2868 14.5196 12.069C14.6279 11.9774 14.7141 11.8626 14.7719 11.7331C14.8298 11.6036 14.8577 11.4627 14.8536 11.321C14.8675 11.1913 14.8439 11.0604 14.7856 10.9437C14.7273 10.8271 14.6367 10.7297 14.5246 10.663C14.1921 10.5333 13.8282 10.5072 13.4806 10.588V10.587ZM11.5806 16.565V9.55299L13.3806 9.30998C13.8167 9.2381 14.2599 9.21897 14.7006 9.25299C15.0079 9.28436 15.3044 9.38376 15.5686 9.54399C15.8246 9.69354 16.0341 9.91131 16.1736 10.173C16.3173 10.4428 16.3909 10.7443 16.3876 11.05C16.3947 11.3846 16.3308 11.717 16.2001 12.0252C16.0695 12.3334 15.875 12.6104 15.6296 12.838C15.0588 13.3505 14.3383 13.6661 13.5746 13.738C13.4836 13.752 13.4176 13.757 13.3746 13.762C13.3316 13.767 13.2886 13.762 13.2506 13.772V16.337L11.5806 16.565ZM18.5806 13.4L20.4206 13.152L19.5106 11.078L18.5806 13.4ZM15.9536 15.979L19.5336 8.271L19.6336 8.25699L23.1276 15.016L21.3786 15.25L20.9356 14.292L18.0896 14.673L17.6366 15.755L15.9536 15.979ZM29.1296 9.41998C28.8629 9.17143 28.5505 8.97716 28.2096 8.84799C27.8947 8.73793 27.5582 8.70367 27.2276 8.74799C26.6553 8.81643 26.133 9.10741 25.7736 9.55798C25.3935 10.0242 25.1925 10.6107 25.2066 11.212C25.189 11.4849 25.2301 11.7584 25.3272 12.0141C25.4244 12.2697 25.5752 12.5016 25.7696 12.694C25.9661 12.8689 26.2004 12.996 26.4542 13.0654C26.708 13.1348 26.9744 13.1446 27.2326 13.094C27.6072 13.041 27.9681 12.9164 28.2956 12.727C28.6814 12.5032 29.0369 12.231 29.3536 11.917L29.2436 13.795C28.9452 14.0389 28.6148 14.2408 28.2616 14.395C27.9077 14.5502 27.5337 14.6545 27.1506 14.705C26.7559 14.7612 26.3545 14.75 25.9636 14.672C25.5903 14.5954 25.2346 14.4499 24.9146 14.243C24.4713 13.9563 24.1127 13.5566 23.8756 13.085C23.631 12.5801 23.5084 12.0249 23.5176 11.464C23.5163 10.9521 23.6067 10.444 23.7846 9.96399C23.9638 9.48548 24.2251 9.04184 24.5566 8.65298C24.8913 8.26473 25.2934 7.94018 25.7436 7.69499C26.183 7.45396 26.663 7.29566 27.1596 7.22798C27.5331 7.17515 27.9125 7.17988 28.2846 7.24199C28.6443 7.30356 28.991 7.42598 29.3096 7.60399L29.1296 9.41998ZM30.7296 13.996V6.98399L35.0486 6.40698V7.85098L32.3556 8.21298V9.48099L34.6626 9.17099V10.607L32.3556 10.917V12.307L35.0866 11.94V13.418L30.7296 13.996Z" fill="#342E59"/>
<path d="M13.419 23.015L15.264 22.767L14.349 20.693L13.419 23.015ZM10.792 25.594L14.367 17.886L14.467 17.872L17.967 24.631L16.218 24.865L15.775 23.902L12.929 24.283L12.476 25.365L10.792 25.594ZM20.692 18.544L20.463 18.577V20.45L20.763 20.407C21.1156 20.3789 21.4523 20.2478 21.731 20.03C21.8392 19.9384 21.9254 19.8235 21.9833 19.694C22.0411 19.5646 22.069 19.4237 22.065 19.282C22.0789 19.1523 22.0553 19.0214 21.997 18.9047C21.9387 18.7881 21.8481 18.6906 21.736 18.624C21.4042 18.4918 21.04 18.4639 20.692 18.544ZM18.792 24.522V17.51L20.592 17.267C21.0281 17.195 21.4713 17.1759 21.912 17.21C22.2193 17.2413 22.5159 17.3408 22.78 17.501C23.0361 17.6505 23.2455 17.8683 23.385 18.13C23.529 18.3997 23.603 18.7012 23.6 19.007C23.6071 19.3416 23.5432 19.674 23.4126 19.9822C23.2819 20.2904 23.0874 20.5674 22.842 20.795C22.2712 21.3076 21.5508 21.6231 20.787 21.695C20.696 21.704 20.63 21.714 20.587 21.719C20.544 21.724 20.501 21.719 20.463 21.728V24.293L18.792 24.522ZM26.834 17.722L26.605 17.755V19.628L26.905 19.585C27.2576 19.5568 27.5942 19.4257 27.873 19.208C27.9813 19.1164 28.0675 19.0016 28.1254 18.8721C28.1832 18.7426 28.2111 18.6017 28.207 18.46C28.2209 18.3303 28.1973 18.1994 28.139 18.0827C28.0807 17.9661 27.9901 17.8686 27.878 17.802C27.5461 17.669 27.1817 17.64 26.833 17.719L26.834 17.722ZM24.934 23.7V16.688L26.734 16.445C27.1701 16.373 27.6133 16.3539 28.054 16.388C28.3613 16.4193 28.6579 16.5188 28.922 16.679C29.1781 16.8286 29.3875 17.0463 29.527 17.308C29.6711 17.5777 29.745 17.8792 29.742 18.185C29.7491 18.5196 29.6852 18.852 29.5546 19.1602C29.4239 19.4684 29.2294 19.7454 28.984 19.973C28.4132 20.4855 27.6928 20.8011 26.929 20.873C26.838 20.883 26.772 20.892 26.729 20.897C26.686 20.902 26.643 20.897 26.605 20.907V23.465L24.934 23.7Z" fill="#342E59"/>
</svg>
