<svg width="56" height="20" viewBox="0 0 56 20" fill="none" xmlns="http://www.w3.org/2000/svg">
<path d="M27.0593 18.626L27.7309 14.7463C29.5807 16.2257 35.1928 16.6438 35.1928 14.3007C35.1928 11.9575 28.9382 11.8989 28.9382 7.43096C28.9382 2.6853 34.266 1.7124 36.509 1.7124C37.896 1.74673 39.2685 2.00095 40.575 2.46547L39.9303 6.17882C37.9954 5.11829 33.5929 4.86652 33.5929 6.82049C33.5929 8.77446 39.9027 9.19258 39.9027 13.6865C39.9027 18.0133 35.248 19.6041 32.1625 19.6041C30.4118 19.6328 28.6741 19.2997 27.0593 18.626ZM51.5096 19.3048L50.9791 16.7381H45.2335L44.2888 19.304H39.5774L46.3199 3.30914C46.4851 2.90113 46.7769 2.55623 47.1526 2.32462C47.5284 2.09301 47.9686 1.98677 48.4092 2.02135H52.0439L55.6607 19.304L51.5096 19.3048ZM46.5348 13.1911H50.2463L48.9107 6.7232L46.5348 13.1911ZM19.7527 19.304L22.5747 2.02135H27.0966L24.2738 19.304H19.7527ZM8.91132 19.304L4.98414 4.28947C3.53862 3.40416 1.97454 2.72682 0.338379 2.27757L0.412998 2.06814L7.44432 2.10305C9.40529 2.10305 9.70601 4.50559 9.70601 4.50559L11.1297 11.35L11.6394 13.9093L15.9494 2.02135H20.8152L13.6205 19.304H8.91132Z" fill="white"/>
<path fill-rule="evenodd" clip-rule="evenodd" d="M11.131 11.3495L9.60954 3.57819C9.51887 3.09551 9.24636 2.66553 8.84773 2.37618C8.44911 2.08683 7.95448 1.95998 7.465 2.02156H0.339663L0.256836 2.31342C2.7105 2.93567 4.99957 4.07963 6.96655 5.66658C8.83558 7.16067 10.2727 9.12175 11.131 11.3495Z" fill="#EE9F3F"/>
</svg>
